<svg width="31" height="27" viewBox="0 0 31 27" fill="none" xmlns="http://www.w3.org/2000/svg">
<g clip-path="url(#clip0_413_2028)">
<rect width="30.8571" height="27" fill="#034460"/>
<path d="M21.5307 0V6.39474C21.5307 6.58318 21.4553 6.76391 21.3211 6.89716C21.1868 7.0304 21.0047 7.10526 20.8148 7.10526H14.3716V13.5C14.3716 13.6884 14.2962 13.8692 14.162 14.0024C14.0277 14.1357 13.8456 14.2105 13.6557 14.2105H7.21256V20.6053C7.21256 20.7937 7.13713 20.9744 7.00287 21.1077C6.86861 21.2409 6.68652 21.3158 6.49665 21.3158H0.0534668V27H31.5535V0H21.5307ZM26.3345 14.0045L20.7647 19.5324L22.1822 19.3263C22.2761 19.3115 22.372 19.3154 22.4644 19.3377C22.5567 19.3601 22.6436 19.4005 22.7201 19.4565C22.7966 19.5126 22.861 19.5832 22.9097 19.6642C22.9583 19.7453 22.9903 19.8351 23.0036 19.9285C23.0169 20.0219 23.0113 20.117 22.9872 20.2083C22.9631 20.2996 22.9209 20.3851 22.8631 20.46C22.8053 20.5349 22.733 20.5977 22.6506 20.6446C22.5681 20.6914 22.477 20.7216 22.3827 20.7332L18.8389 21.2376C18.8059 21.2435 18.7723 21.2459 18.7387 21.2447C18.5485 21.2453 18.3658 21.1712 18.2304 21.0387C18.1535 20.9594 18.0956 20.8639 18.0609 20.7594C18.0262 20.6548 18.0156 20.5439 18.0299 20.4347L18.5382 16.9176C18.5499 16.824 18.5803 16.7336 18.6275 16.6518C18.6748 16.5699 18.738 16.4982 18.8134 16.4408C18.8889 16.3835 18.9751 16.3416 19.0671 16.3176C19.159 16.2937 19.2548 16.2882 19.349 16.3014C19.4431 16.3146 19.5336 16.3463 19.6153 16.3946C19.6969 16.4429 19.7681 16.5068 19.8246 16.5827C19.881 16.6586 19.9217 16.7449 19.9442 16.8366C19.9668 16.9282 19.9707 17.0234 19.9557 17.1166L19.7553 18.5234L25.3179 12.9955C25.4527 12.8617 25.6355 12.7866 25.8262 12.7866C26.0168 12.7866 26.1997 12.8617 26.3345 12.9955C26.4693 13.1293 26.545 13.3108 26.545 13.5C26.545 13.6892 26.4693 13.8707 26.3345 14.0045Z" fill="#FEC201"/>
<path d="M3.7464 11.247C3.83745 11.2472 3.92764 11.2294 4.01175 11.1945C4.09586 11.1597 4.17222 11.1085 4.23641 11.0439L9.62719 5.65312L9.43174 7.02542C9.40581 7.20729 9.45315 7.39202 9.56336 7.539C9.67356 7.68599 9.83762 7.78321 10.0195 7.80929C10.0523 7.81424 10.0854 7.81679 10.1186 7.81692C10.2852 7.81658 10.4462 7.75621 10.5719 7.64687C10.6977 7.53753 10.7798 7.38654 10.8033 7.22156L11.2934 3.7915C11.3086 3.68498 11.2989 3.57636 11.2649 3.47425C11.2309 3.37214 11.1737 3.27934 11.0976 3.20322C11.0215 3.12709 10.9288 3.06972 10.8267 3.03565C10.7246 3.00158 10.616 2.99175 10.5095 3.00694L7.07873 3.49695C6.98862 3.50982 6.90194 3.54033 6.82362 3.58671C6.7453 3.63309 6.67688 3.69444 6.62227 3.76726C6.56766 3.84008 6.52794 3.92295 6.50535 4.01112C6.48277 4.0993 6.47777 4.19106 6.49065 4.28117C6.50353 4.37127 6.53403 4.45796 6.58041 4.53628C6.62679 4.6146 6.68814 4.68301 6.76097 4.73762C6.83379 4.79223 6.91665 4.83196 7.00483 4.85454C7.093 4.87713 7.18476 4.88212 7.27487 4.86924L8.64717 4.6731L3.25639 10.0639C3.15949 10.1608 3.09351 10.2843 3.06678 10.4187C3.04005 10.5531 3.05377 10.6925 3.10622 10.8191C3.15866 10.9457 3.24747 11.054 3.36142 11.1301C3.47537 11.2063 3.60934 11.2469 3.7464 11.247Z" fill="white"/>
</g>
<defs>
<clipPath id="clip0_413_2028">
<rect width="30.8571" height="27" fill="white"/>
</clipPath>
</defs>
</svg>
