<svg width="151" height="34" viewBox="0 0 151 34" fill="none" xmlns="http://www.w3.org/2000/svg">
<path d="M56.184 6.76H48.712L50.264 4.664V27H46.04V4.664L47.672 6.76H40.136V3.4H56.184V6.76ZM57.5182 27V10.008H61.7263V15.656L60.7503 15.112C60.8569 14.376 61.0543 13.6827 61.3423 13.032C61.6303 12.3707 62.0143 11.7947 62.4943 11.304C62.9743 10.8027 63.5556 10.4133 64.2383 10.136C64.9209 9.85867 65.6996 9.72 66.5743 9.72C67.2676 9.72 67.8116 9.77333 68.2063 9.88C68.6116 9.976 68.8623 10.056 68.9583 10.12L68.1903 13.976C68.0836 13.9013 67.8649 13.8107 67.5343 13.704C67.2143 13.5867 66.7823 13.528 66.2383 13.528C65.3743 13.528 64.6489 13.6773 64.0623 13.976C63.4863 14.264 63.0276 14.6587 62.6863 15.16C62.3449 15.6507 62.0996 16.1947 61.9503 16.792C61.8009 17.3787 61.7263 17.9653 61.7263 18.552V27H57.5182ZM77.1235 27.352C75.8542 27.352 74.7395 27.1547 73.7795 26.76C72.8195 26.3547 72.0675 25.7733 71.5235 25.016C70.9795 24.2587 70.7075 23.3467 70.7075 22.28C70.7075 21.1173 71.0222 20.1627 71.6515 19.416C72.2915 18.6587 73.1502 18.0773 74.2275 17.672C75.3048 17.256 76.4995 16.9893 77.8115 16.872C79.7528 16.68 81.1075 16.4987 81.8755 16.328C82.6542 16.1467 83.0435 15.8587 83.0435 15.464C83.0435 15.4533 83.0435 15.448 83.0435 15.448C83.0435 15.4373 83.0435 15.432 83.0435 15.432C83.0435 14.6853 82.7075 14.1093 82.0355 13.704C81.3635 13.2987 80.4142 13.096 79.1875 13.096C77.8968 13.096 76.9048 13.3253 76.2115 13.784C75.5288 14.232 75.1875 14.9467 75.1875 15.928H71.0275C71.0275 14.5947 71.3795 13.4693 72.0835 12.552C72.7982 11.624 73.7742 10.92 75.0115 10.44C76.2488 9.96 77.6515 9.72 79.2195 9.72C80.6808 9.72 82.0195 9.93867 83.2355 10.376C84.4515 10.8133 85.4275 11.4747 86.1635 12.36C86.8995 13.2453 87.2675 14.3493 87.2675 15.672C87.2675 15.896 87.2675 16.12 87.2675 16.344C87.2675 16.568 87.2675 16.792 87.2675 17.016V23.416C87.2675 23.8213 87.2782 24.2213 87.2995 24.616C87.3315 25 87.3902 25.3467 87.4755 25.656C87.5822 25.9973 87.7102 26.2853 87.8595 26.52C88.0088 26.7547 88.1262 26.9147 88.2115 27H84.0515C83.9768 26.9253 83.8702 26.7813 83.7315 26.568C83.6035 26.344 83.4862 26.088 83.3795 25.8C83.2728 25.48 83.1928 25.1387 83.1395 24.776C83.0862 24.4027 83.0595 23.992 83.0595 23.544L83.8915 24.12C83.5715 24.7707 83.0808 25.3413 82.4195 25.832C81.7688 26.312 80.9902 26.6853 80.0835 26.952C79.1768 27.2187 78.1902 27.352 77.1235 27.352ZM78.1475 24.04C79.0222 24.04 79.8328 23.8907 80.5795 23.592C81.3262 23.2933 81.9288 22.8347 82.3875 22.216C82.8462 21.5867 83.0755 20.7813 83.0755 19.8V17.528L84.0995 18.68C83.4168 18.936 82.5955 19.1493 81.6355 19.32C80.6755 19.48 79.7048 19.608 78.7235 19.704C77.4648 19.8213 76.5155 20.04 75.8755 20.36C75.2462 20.68 74.9315 21.2027 74.9315 21.928C74.9315 22.632 75.1982 23.16 75.7315 23.512C76.2648 23.864 77.0702 24.04 78.1475 24.04ZM103.191 27V19.464C103.191 19.0373 103.191 18.664 103.191 18.344C103.191 18.0133 103.191 17.7147 103.191 17.448C103.191 16.68 103.079 15.992 102.855 15.384C102.641 14.7653 102.268 14.28 101.735 13.928C101.212 13.576 100.487 13.4 99.5585 13.4C98.7478 13.4 98.0278 13.5973 97.3985 13.992C96.7692 14.376 96.2732 14.9093 95.9105 15.592C95.5585 16.264 95.3825 17.0427 95.3825 17.928L93.9585 17.048C93.9585 15.6293 94.2785 14.3707 94.9185 13.272C95.5692 12.1627 96.4385 11.2933 97.5265 10.664C98.6145 10.0347 99.8198 9.72 101.143 9.72C102.508 9.72 103.655 9.98667 104.583 10.52C105.521 11.0533 106.225 11.8107 106.694 12.792C107.175 13.7733 107.415 14.9253 107.415 16.248C107.415 16.76 107.415 17.336 107.415 17.976C107.415 18.616 107.415 19.2453 107.415 19.864V27H103.191ZM91.1745 27V10.008H95.3825V27H91.1745ZM118.32 27.352C117.306 27.352 116.341 27.24 115.424 27.016C114.517 26.792 113.706 26.456 112.992 26.008C112.288 25.56 111.728 25.0053 111.312 24.344C110.906 23.672 110.704 22.8987 110.704 22.024C110.704 21.96 110.704 21.896 110.704 21.832C110.704 21.768 110.704 21.7093 110.704 21.656H114.896C114.896 21.7093 114.896 21.7573 114.896 21.8C114.896 21.832 114.896 21.88 114.896 21.944C114.896 22.6373 115.21 23.16 115.84 23.512C116.48 23.8533 117.349 24.024 118.448 24.024C119.045 24.024 119.605 23.96 120.128 23.832C120.661 23.704 121.088 23.5067 121.408 23.24C121.738 22.9733 121.904 22.632 121.904 22.216C121.904 21.544 121.557 21.064 120.864 20.776C120.181 20.488 119.104 20.2267 117.632 19.992C116.821 19.8533 116.021 19.6667 115.232 19.432C114.442 19.1973 113.722 18.8827 113.072 18.488C112.432 18.0933 111.914 17.6027 111.52 17.016C111.136 16.4293 110.944 15.7147 110.944 14.872C110.944 13.752 111.274 12.8133 111.936 12.056C112.608 11.288 113.504 10.7067 114.624 10.312C115.754 9.91733 116.997 9.72 118.352 9.72C119.653 9.72 120.864 9.93333 121.984 10.36C123.104 10.7867 124.005 11.4 124.688 12.2C125.381 13 125.728 13.9653 125.728 15.096C125.728 15.1387 125.728 15.1867 125.728 15.24C125.728 15.2827 125.728 15.32 125.728 15.352H121.568C121.568 15.32 121.568 15.288 121.568 15.256C121.568 15.224 121.568 15.1867 121.568 15.144C121.568 14.6533 121.413 14.2533 121.104 13.944C120.794 13.6347 120.394 13.4053 119.904 13.256C119.413 13.1067 118.896 13.032 118.352 13.032C117.872 13.032 117.376 13.0853 116.864 13.192C116.352 13.288 115.925 13.464 115.584 13.72C115.242 13.9653 115.072 14.312 115.072 14.76C115.072 15.1867 115.248 15.5333 115.6 15.8C115.952 16.0667 116.442 16.2907 117.072 16.472C117.701 16.6427 118.426 16.7973 119.248 16.936C120.026 17.064 120.81 17.24 121.6 17.464C122.4 17.688 123.13 17.9867 123.792 18.36C124.453 18.7333 124.986 19.224 125.392 19.832C125.808 20.4293 126.016 21.1707 126.016 22.056C126.016 22.9947 125.802 23.7947 125.376 24.456C124.949 25.1173 124.368 25.6667 123.632 26.104C122.906 26.5307 122.085 26.8453 121.168 27.048C120.25 27.2507 119.301 27.352 118.32 27.352ZM129.487 33.992V10.008H133.695V33.992H129.487ZM139.055 27.352C137.732 27.352 136.506 27.0107 135.375 26.328C134.255 25.6347 133.348 24.6907 132.655 23.496C131.972 22.3013 131.631 20.9573 131.631 19.464C131.631 19.4213 131.631 19.384 131.631 19.352C131.631 19.3093 131.631 19.272 131.631 19.24L133.711 19.192C133.711 19.2133 133.711 19.24 133.711 19.272C133.711 19.304 133.711 19.3307 133.711 19.352C133.711 20.184 133.919 20.9253 134.335 21.576C134.751 22.216 135.29 22.7227 135.951 23.096C136.623 23.4587 137.338 23.64 138.095 23.64C139.322 23.64 140.367 23.2187 141.231 22.376C142.095 21.5333 142.527 20.2267 142.527 18.456C142.527 16.6747 142.095 15.3733 141.231 14.552C140.378 13.72 139.332 13.304 138.095 13.304C137.348 13.304 136.639 13.4853 135.967 13.848C135.306 14.2 134.762 14.6907 134.335 15.32C133.919 15.9493 133.711 16.6853 133.711 17.528L131.631 17.432C131.631 15.928 131.972 14.5947 132.655 13.432C133.348 12.2693 134.255 11.3627 135.375 10.712C136.506 10.0507 137.732 9.72 139.055 9.72C140.431 9.72 141.711 10.056 142.895 10.728C144.09 11.4 145.05 12.3867 145.775 13.688C146.511 14.9893 146.879 16.5787 146.879 18.456C146.879 20.3867 146.522 22.0133 145.807 23.336C145.092 24.6587 144.143 25.6613 142.959 26.344C141.775 27.016 140.474 27.352 139.055 27.352Z" fill="#034460"/>
<g clip-path="url(#clip0_164_1253)">
<rect width="30.8571" height="27" fill="#034460"/>
<path d="M21.5307 0V6.39474C21.5307 6.58318 21.4553 6.76391 21.3211 6.89716C21.1868 7.0304 21.0047 7.10526 20.8148 7.10526H14.3716V13.5C14.3716 13.6884 14.2962 13.8692 14.162 14.0024C14.0277 14.1357 13.8456 14.2105 13.6557 14.2105H7.21256V20.6053C7.21256 20.7937 7.13713 20.9744 7.00287 21.1077C6.86861 21.2409 6.68652 21.3158 6.49665 21.3158H0.0534668V27H31.5535V0H21.5307ZM26.3345 14.0045L20.7647 19.5324L22.1822 19.3263C22.2761 19.3115 22.372 19.3154 22.4644 19.3377C22.5567 19.3601 22.6436 19.4005 22.7201 19.4565C22.7966 19.5126 22.861 19.5832 22.9097 19.6642C22.9583 19.7453 22.9903 19.8351 23.0036 19.9285C23.0169 20.0219 23.0113 20.117 22.9872 20.2083C22.9631 20.2996 22.9209 20.3851 22.8631 20.46C22.8053 20.5349 22.733 20.5977 22.6506 20.6446C22.5681 20.6914 22.477 20.7216 22.3827 20.7332L18.8389 21.2376C18.8059 21.2435 18.7723 21.2459 18.7387 21.2447C18.5485 21.2453 18.3658 21.1712 18.2304 21.0387C18.1535 20.9594 18.0956 20.8639 18.0609 20.7594C18.0262 20.6548 18.0156 20.5439 18.0299 20.4347L18.5382 16.9176C18.5499 16.824 18.5803 16.7336 18.6275 16.6518C18.6748 16.5699 18.738 16.4982 18.8134 16.4408C18.8889 16.3835 18.9751 16.3416 19.0671 16.3176C19.159 16.2937 19.2548 16.2882 19.349 16.3014C19.4431 16.3146 19.5336 16.3463 19.6153 16.3946C19.6969 16.4429 19.7681 16.5068 19.8246 16.5827C19.881 16.6586 19.9217 16.7449 19.9442 16.8366C19.9668 16.9282 19.9707 17.0234 19.9557 17.1166L19.7553 18.5234L25.3179 12.9955C25.4527 12.8617 25.6355 12.7866 25.8262 12.7866C26.0168 12.7866 26.1997 12.8617 26.3345 12.9955C26.4693 13.1293 26.545 13.3108 26.545 13.5C26.545 13.6892 26.4693 13.8707 26.3345 14.0045Z" fill="#FEC201"/>
<path d="M3.7464 11.247C3.83745 11.2472 3.92764 11.2294 4.01175 11.1945C4.09586 11.1597 4.17222 11.1085 4.23641 11.0439L9.62719 5.65312L9.43174 7.02542C9.40581 7.20729 9.45315 7.39202 9.56336 7.539C9.67356 7.68599 9.83762 7.78321 10.0195 7.80929C10.0523 7.81424 10.0854 7.81679 10.1186 7.81692C10.2852 7.81658 10.4462 7.75621 10.5719 7.64687C10.6977 7.53753 10.7798 7.38654 10.8033 7.22156L11.2934 3.7915C11.3086 3.68498 11.2989 3.57636 11.2649 3.47425C11.2309 3.37214 11.1737 3.27934 11.0976 3.20322C11.0215 3.12709 10.9288 3.06972 10.8267 3.03565C10.7246 3.00158 10.616 2.99175 10.5095 3.00694L7.07873 3.49695C6.98862 3.50982 6.90194 3.54033 6.82362 3.58671C6.7453 3.63309 6.67688 3.69444 6.62227 3.76726C6.56766 3.84008 6.52794 3.92295 6.50535 4.01112C6.48277 4.0993 6.47777 4.19106 6.49065 4.28117C6.50353 4.37127 6.53403 4.45796 6.58041 4.53628C6.62679 4.6146 6.68814 4.68301 6.76097 4.73762C6.83379 4.79223 6.91665 4.83196 7.00483 4.85454C7.093 4.87713 7.18476 4.88212 7.27487 4.86924L8.64717 4.6731L3.25639 10.0639C3.15949 10.1608 3.09351 10.2843 3.06678 10.4187C3.04005 10.5531 3.05377 10.6925 3.10622 10.8191C3.15866 10.9457 3.24747 11.054 3.36142 11.1301C3.47537 11.2063 3.60934 11.2469 3.7464 11.247Z" fill="white"/>
</g>
<defs>
<clipPath id="clip0_164_1253">
<rect width="30.8571" height="27" fill="white"/>
</clipPath>
</defs>
</svg>
