<svg width="42" height="36" viewBox="0 0 42 36" fill="none" xmlns="http://www.w3.org/2000/svg">
<g clip-path="url(#clip0_28_7253)">
<rect width="41.1429" height="36" fill="#034460"/>
<path d="M28.7077 0V8.52632C28.7077 8.77757 28.6071 9.01854 28.4281 9.19621C28.2491 9.37387 28.0063 9.47368 27.7531 9.47368H19.1622V18C19.1622 18.2513 19.0616 18.4922 18.8826 18.6699C18.7036 18.8476 18.4608 18.9474 18.2077 18.9474H9.61674V27.4737C9.61674 27.7249 9.51618 27.9659 9.33716 28.1436C9.15815 28.3212 8.91536 28.4211 8.6622 28.4211H0.0712891V36H42.0713V0H28.7077ZM35.1127 18.6726L27.6863 26.0432L29.5763 25.7684C29.7015 25.7487 29.8293 25.7538 29.9525 25.7836C30.0756 25.8134 30.1915 25.8673 30.2935 25.942C30.3954 26.0168 30.4813 26.1109 30.5462 26.219C30.6111 26.327 30.6537 26.4468 30.6714 26.5714C30.6892 26.6959 30.6818 26.8227 30.6496 26.9444C30.6174 27.0661 30.5612 27.1802 30.4841 27.28C30.4071 27.3799 30.3107 27.4635 30.2007 27.5261C30.0908 27.5886 29.9693 27.6288 29.8436 27.6442L25.1186 28.3168C25.0745 28.3247 25.0297 28.3279 24.9849 28.3263C24.7313 28.327 24.4877 28.2283 24.3072 28.0516C24.2047 27.9458 24.1274 27.8186 24.0811 27.6792C24.0349 27.5398 24.0208 27.3918 24.0399 27.2463L24.7177 22.5568C24.7332 22.432 24.7737 22.3115 24.8367 22.2023C24.8997 22.0932 24.984 21.9976 25.0846 21.9211C25.1852 21.8446 25.3002 21.7888 25.4228 21.7569C25.5454 21.7249 25.6731 21.7176 25.7986 21.7352C25.9241 21.7528 26.0448 21.795 26.1537 21.8595C26.2626 21.9239 26.3574 22.0091 26.4327 22.1103C26.508 22.2115 26.5623 22.3265 26.5923 22.4487C26.6224 22.571 26.6276 22.6979 26.6077 22.8221L26.3404 24.6979L33.7572 17.3274C33.9369 17.149 34.1807 17.0488 34.4349 17.0488C34.6891 17.0488 34.9329 17.149 35.1127 17.3274C35.2924 17.5058 35.3934 17.7477 35.3934 18C35.3934 18.2523 35.2924 18.4942 35.1127 18.6726Z" fill="#FEC201"/>
<path d="M4.9952 14.996C5.1166 14.9963 5.23685 14.9725 5.349 14.926C5.46115 14.8796 5.56297 14.8113 5.64854 14.7252L12.8363 7.53749L12.5757 9.36722C12.5411 9.60972 12.6042 9.85602 12.7511 10.052C12.8981 10.248 13.1168 10.3776 13.3593 10.4124C13.403 10.419 13.4472 10.4224 13.4914 10.4226C13.7136 10.4221 13.9282 10.3416 14.0959 10.1958C14.2636 10.05 14.3731 9.84872 14.4045 9.62875L15.0578 5.05534C15.0782 4.91331 15.0652 4.76848 15.0199 4.63233C14.9746 4.49619 14.8982 4.37246 14.7968 4.27095C14.6954 4.16945 14.5717 4.09295 14.4356 4.04753C14.2995 4.0021 14.1547 3.989 14.0126 4.00925L9.43831 4.66259C9.31817 4.67977 9.20258 4.72043 9.09816 4.78227C8.99373 4.84412 8.90251 4.92592 8.8297 5.02302C8.75689 5.12011 8.70391 5.2306 8.6738 5.34816C8.64369 5.46573 8.63703 5.58808 8.6542 5.70822C8.67137 5.82836 8.71204 5.94395 8.77388 6.04837C8.83572 6.1528 8.91753 6.24402 9.01462 6.31683C9.11172 6.38964 9.2222 6.44261 9.33977 6.47273C9.45734 6.50284 9.57969 6.5095 9.69983 6.49233L11.5296 6.2308L4.34186 13.4185C4.21266 13.5477 4.12468 13.7124 4.08904 13.8916C4.05339 14.0709 4.07169 14.2566 4.14162 14.4255C4.21155 14.5943 4.32996 14.7386 4.4819 14.8402C4.63383 14.9417 4.81246 14.9959 4.9952 14.996Z" fill="white"/>
</g>
<defs>
<clipPath id="clip0_28_7253">
<rect width="41.1429" height="36" fill="white"/>
</clipPath>
</defs>
</svg>
