<svg width="14" height="14" viewBox="0 0 14 14" fill="none" xmlns="http://www.w3.org/2000/svg">
<g clip-path="url(#clip0_166_54)">
<path d="M7.00232 3.40552C5.01724 3.40552 3.41016 5.01435 3.41016 6.99768C3.41016 8.98277 5.01899 10.5899 7.00232 10.5899C8.98741 10.5899 10.5945 8.98102 10.5945 6.99768C10.5945 5.0126 8.98566 3.40552 7.00232 3.40552ZM7.00232 9.32927C5.71374 9.32927 4.67074 8.28568 4.67074 6.99768C4.67074 5.70968 5.71432 4.6661 7.00232 4.6661C8.29032 4.6661 9.33391 5.70968 9.33391 6.99768C9.33449 8.28568 8.29091 9.32927 7.00232 9.32927Z" fill="#F2F3F4"/>
<path d="M9.88647 0.0444028C8.59847 -0.0156805 5.40822 -0.0127639 4.11905 0.0444028C2.98622 0.0974861 1.98697 0.371069 1.18138 1.17665C-0.164951 2.52299 0.00713257 4.33715 0.00713257 6.99774C0.00713257 9.72074 -0.144534 11.4929 1.18138 12.8188C2.53297 14.1698 4.37338 13.9931 7.00247 13.9931C9.6998 13.9931 10.6308 13.9948 11.5845 13.6256C12.8813 13.1222 13.8601 11.9631 13.9558 9.88115C14.0165 8.59257 14.013 5.4029 13.9558 4.11374C13.8403 1.65615 12.5214 0.165736 9.88647 0.0444028ZM11.9252 11.9281C11.0426 12.8107 9.81822 12.7319 6.98555 12.7319C4.06888 12.7319 2.8993 12.7751 2.04588 11.9193C1.06297 10.9411 1.24088 9.37015 1.24088 6.9884C1.24088 3.76549 0.910133 1.4444 4.14472 1.27874C4.88788 1.25249 5.10663 1.24374 6.97738 1.24374L7.00363 1.26124C10.1122 1.26124 12.5511 0.935736 12.6975 4.16974C12.7308 4.90765 12.7384 5.12932 12.7384 6.99715C12.7378 9.87999 12.7926 11.0566 11.9252 11.9281Z" fill="#F2F3F4"/>
<path d="M10.7369 4.10315C11.2005 4.10315 11.5763 3.72733 11.5763 3.26373C11.5763 2.80014 11.2005 2.42432 10.7369 2.42432C10.2733 2.42432 9.89746 2.80014 9.89746 3.26373C9.89746 3.72733 10.2733 4.10315 10.7369 4.10315Z" fill="#F2F3F4"/>
</g>
<defs>
<clipPath id="clip0_166_54">
<rect width="14" height="14" fill="white"/>
</clipPath>
</defs>
</svg>
