<svg width="75" height="75" viewBox="0 0 75 75" fill="none" xmlns="http://www.w3.org/2000/svg">
<circle cx="37.5" cy="37.5" r="25.5" fill="#FEC201"/>
<circle cx="37.5" cy="37.5" r="31.5" stroke="white" stroke-opacity="0.1" stroke-width="12"/>
<path d="M32.25 30.653C32.25 29.797 33.167 29.255 33.917 29.667L45.457 36.015C45.6334 36.1121 45.7805 36.2548 45.8829 36.4281C45.9854 36.6015 46.0394 36.7991 46.0394 37.0005C46.0394 37.2018 45.9854 37.3995 45.8829 37.5729C45.7805 37.7462 45.6334 37.8889 45.457 37.986L33.917 44.333C33.7458 44.4271 33.553 44.4751 33.3576 44.472C33.1622 44.469 32.9709 44.4151 32.8027 44.3157C32.6345 44.2163 32.495 44.0748 32.3981 43.9051C32.3012 43.7354 32.2501 43.5434 32.25 43.348V30.653Z" stroke="white" stroke-width="1.5" stroke-linecap="round" stroke-linejoin="round"/>
</svg>
