<svg width="17" height="16" viewBox="0 0 17 16" fill="none" xmlns="http://www.w3.org/2000/svg">
<path d="M14.3911 9.344C15.3191 5.184 11.6711 1.408 7.3831 2.128C5.0631 0.687998 1.9751 2.32 1.9751 5.088C1.9751 5.728 2.1511 6.336 2.4551 6.848C1.6071 11.024 5.2711 14.752 9.5591 13.968C12.5831 15.568 15.9111 12.384 14.3911 9.344ZM10.3271 11.856C9.2071 12.32 7.3511 12.32 6.2311 11.728C4.6311 10.88 4.3591 8.96 5.7351 8.96C6.7751 8.96 6.4391 10.176 7.4951 10.656C7.9751 10.88 9.0151 10.896 9.6071 10.496C10.1991 10.096 10.1511 9.472 9.8311 9.184C8.9831 8.4 6.5351 8.704 5.4151 7.328C4.9351 6.736 4.8391 5.68 5.4311 4.912C6.4711 3.568 9.5271 3.488 10.8391 4.496C12.0551 5.44 11.7191 6.672 10.7431 6.672C9.5751 6.672 10.1831 5.136 8.2791 5.136C6.9031 5.136 6.3591 6.112 7.3351 6.592C8.6471 7.264 11.9911 7.04 11.9911 9.6C11.9911 10.656 11.3351 11.44 10.3271 11.856Z" fill="#F2F3F4"/>
</svg>
