<svg width="19" height="14" viewBox="0 0 19 14" fill="none" xmlns="http://www.w3.org/2000/svg">
<path d="M17.437 2.62595C17.2385 1.87624 16.6567 1.28525 15.9188 1.08337C14.5707 0.708679 9.1785 0.708679 9.1785 0.708679C9.1785 0.708679 3.78647 0.708679 2.43844 1.06917C1.71474 1.27083 1.11869 1.87634 0.920181 2.62595C0.56543 3.99527 0.56543 6.83507 0.56543 6.83507C0.56543 6.83507 0.56543 9.68918 0.920181 11.0442C1.1189 11.7938 1.70055 12.3848 2.43854 12.5867C3.80067 12.9615 9.17871 12.9615 9.17871 12.9615C9.17871 12.9615 14.5707 12.9615 15.9188 12.601C16.6568 12.3992 17.2385 11.8082 17.4372 11.0586C17.7919 9.68918 17.7919 6.84949 17.7919 6.84949C17.7919 6.84949 17.8061 3.99527 17.437 2.62595ZM7.46173 9.45857V4.21156L11.9456 6.83507L7.46173 9.45857Z" fill="#F2F3F4"/>
</svg>
