<svg width="24" height="24" viewBox="0 0 24 24" fill="none" xmlns="http://www.w3.org/2000/svg">
<path d="M19.0611 16.1463C18.9218 16.2856 18.7564 16.3962 18.5744 16.4717C18.3923 16.5471 18.1972 16.5859 18.0001 16.5859C17.8031 16.5859 17.6079 16.5471 17.4259 16.4717C17.2438 16.3962 17.0784 16.2856 16.9391 16.1463L12.3531 11.5613C12.2594 11.4675 12.1322 11.4149 11.9996 11.4149C11.8671 11.4149 11.7399 11.4675 11.6461 11.5613L7.06113 16.1463C6.77987 16.4277 6.39834 16.5858 6.00048 16.5859C5.60262 16.586 5.22102 16.428 4.93963 16.1468C4.65823 15.8655 4.50009 15.484 4.5 15.0861C4.49991 14.6883 4.65787 14.3067 4.93913 14.0253L9.52513 9.43926C9.85014 9.11422 10.236 8.85638 10.6607 8.68046C11.0853 8.50455 11.5405 8.41401 12.0001 8.41401C12.4598 8.41401 12.9149 8.50455 13.3396 8.68046C13.7643 8.85638 14.1501 9.11422 14.4751 9.43926L19.0611 14.0253C19.3423 14.3065 19.5003 14.688 19.5003 15.0858C19.5003 15.4835 19.3423 15.865 19.0611 16.1463Z" fill="#034460"/>
</svg>
