<svg width="830" height="503" viewBox="0 0 830 503" fill="none" xmlns="http://www.w3.org/2000/svg">
<g clip-path="url(#clip0_95_154)">
<path d="M641.777 454.355L660.429 450.038C667.807 463.619 679.945 473.994 694.509 479.168C709.072 484.342 725.035 483.951 739.327 478.07C753.62 472.188 765.235 461.232 771.939 447.306C778.643 433.38 779.964 417.468 775.647 402.627C771.331 387.787 761.681 375.065 748.553 366.908C735.426 358.751 719.746 355.733 704.529 358.436C689.311 361.138 675.63 369.37 666.113 381.548C656.597 393.727 651.918 408.993 652.975 424.412L637.467 428.01M586.715 439.793L569.395 443.79C566.357 444.496 563.723 446.379 562.073 449.026C560.423 451.673 559.892 454.867 560.596 457.905L561.302 460.95C562.009 463.988 563.894 466.622 566.542 468.271C569.19 469.92 572.385 470.449 575.424 469.743L595.028 465.193M757.504 428.029C755.96 436.198 752.029 443.726 746.207 449.66C740.385 455.595 732.933 459.669 724.796 461.369C716.658 463.068 708.199 462.316 700.488 459.208C692.778 456.1 686.162 450.776 681.477 443.907C676.793 437.039 674.251 428.936 674.172 420.623C674.093 412.31 676.48 404.16 681.033 397.205C685.586 390.249 692.099 384.799 699.749 381.545C707.399 378.29 715.843 377.378 724.011 378.922C729.436 379.949 734.605 382.034 739.223 385.059C743.841 388.084 747.818 391.989 750.927 396.551C754.036 401.113 756.216 406.243 757.342 411.647C758.469 417.052 758.519 422.625 757.491 428.049L757.504 428.029Z" fill="url(#paint0_linear_95_154)"/>
<path d="M273.114 210.144C251.085 209.618 231.541 212.143 217.992 220.589C221.109 163.815 195.343 109.232 149.593 93.8645C83.1598 71.5491 57.0008 108.573 48.1013 141.56C39.0819 174.906 57.587 212.869 76.5785 168.738C95.6898 124.32 119.724 126.811 153.483 147.002C187.243 167.192 166.14 242.412 165.807 293.324C165.627 322.767 172.182 347.794 183.479 364.907C164.868 394.443 125.892 394.496 129.056 416.092C132.8 441.639 148.667 490.859 149.82 501.164L237.176 500.631C237.176 500.631 244.604 476.444 227.85 468.504C211.097 460.563 199.053 466.758 199.053 466.758L197.515 447.64C196.948 440.753 202.557 434.531 211.004 432.679C219.664 430.794 231.381 428.236 244.224 425.491C246 426.38 247.845 427.217 249.759 428.003C246.375 437.995 243.837 446.062 243.431 449.026C242.046 459.171 260.751 470.422 275.006 480.074C289.261 489.727 301.758 500.265 301.758 500.265H406.46C406.46 500.265 406.533 461.836 378.483 462.961L347.468 464.813L327.41 450.478C323.946 448.047 322.148 444.769 322.175 441.459C326.083 441.636 330.117 441.765 334.278 441.845C365 442.391 393.018 442.049 418.331 440.819C428.822 462.802 436.403 481.986 436.756 487.582C437.156 493.87 437.049 497.307 443.384 499.119C449.832 500.964 526.65 499.019 526.65 499.019C526.65 499.019 528.376 485.03 526.364 480.701C522.78 472.98 500.671 457.726 493.87 457.726C493.87 457.726 492.098 445.842 490.106 434.251C503.94 432.222 516.374 429.837 527.41 427.097C529.355 430.254 531.5 432.486 533.738 433.565C555.933 444.223 588.581 420.909 592.844 454.581C597.107 488.254 624.678 485.537 635.41 473.719C646.141 461.902 642.97 448.5 633.311 409.951C628.189 389.5 597.74 376.398 597.74 376.398C601.109 370.946 603.861 365.138 605.947 359.078" stroke="url(#paint1_linear_95_154)" stroke-width="6" stroke-linecap="round" stroke-linejoin="round"/>
<path d="M519.582 498.133C519.582 498.133 523.046 479.788 497.6 466.206" stroke="url(#paint2_linear_95_154)" stroke-width="6" stroke-linecap="round" stroke-linejoin="round"/>
<path d="M504.835 498.999C504.835 498.999 506.567 483.545 490.966 472.854" stroke="url(#paint3_linear_95_154)" stroke-width="6" stroke-linecap="round" stroke-linejoin="round"/>
<path d="M630.161 474.372C629.868 471.481 631.386 450.172 622.434 438.035" stroke="url(#paint4_linear_95_154)" stroke-width="6" stroke-linecap="round" stroke-linejoin="round"/>
<path d="M619.176 479.282C619.176 479.282 609.424 452.483 609.996 438.035" stroke="url(#paint5_linear_95_154)" stroke-width="6" stroke-linecap="round" stroke-linejoin="round"/>
<path d="M392.152 499.599C392.152 499.599 393.211 472.92 371.062 470.416" stroke="url(#paint6_linear_95_154)" stroke-width="6" stroke-linecap="round" stroke-linejoin="round"/>
<path d="M381.56 499.865C381.56 499.865 381.46 483.398 363.575 477.043" stroke="url(#paint7_linear_95_154)" stroke-width="6" stroke-linecap="round" stroke-linejoin="round"/>
<path d="M230.062 499.599C230.062 499.599 233.812 481.087 225.152 475.019C220.124 471.422 214.001 469.687 207.833 470.109" stroke="url(#paint8_linear_95_154)" stroke-width="6" stroke-linecap="round" stroke-linejoin="round"/>
<path d="M219.084 499.599C219.084 499.599 224.573 483.132 209.552 480.821" stroke="url(#paint9_linear_95_154)" stroke-width="6" stroke-linecap="round" stroke-linejoin="round"/>
<path d="M595.169 330.308L534.324 329.069C532.355 329.027 530.484 328.205 529.121 326.783C527.758 325.362 527.016 323.457 527.057 321.489L527.283 310.83C527.303 309.856 527.515 308.895 527.906 308.002C528.298 307.109 528.861 306.302 529.565 305.628C530.268 304.953 531.097 304.423 532.006 304.069C532.914 303.714 533.883 303.543 534.857 303.563L594.809 304.815" stroke="url(#paint10_linear_95_154)" stroke-width="6" stroke-linecap="round" stroke-linejoin="round"/>
<path d="M692.777 189.181C696.341 207.627 692.071 229.496 669.563 251.611C645.582 275.266 613.308 283.899 582.965 285.224C581.433 324.486 579.915 362.875 579.915 362.875C579.915 362.875 671.221 374.333 675.171 337.023C677.17 317.811 669.729 300.226 662.015 287.682L691.871 253.909C714.56 227.817 706.826 197.635 692.777 189.181ZM616.539 336.983C612.639 336.902 608.85 335.666 605.653 333.432C602.455 331.198 599.992 328.066 598.574 324.432C597.156 320.798 596.848 316.825 597.687 313.016C598.527 309.207 600.478 305.732 603.292 303.031C606.107 300.331 609.659 298.525 613.499 297.843C617.34 297.16 621.296 297.632 624.869 299.199C628.441 300.765 631.469 303.355 633.57 306.642C635.67 309.929 636.749 313.765 636.669 317.665C636.617 320.256 636.055 322.811 635.015 325.184C633.975 327.557 632.477 329.702 630.608 331.496C628.738 333.29 626.533 334.698 624.119 335.64C621.705 336.581 619.129 337.038 616.539 336.983Z" fill="url(#paint11_linear_95_154)"/>
<path d="M666.598 145.217L616.305 148.867C594.529 149.966 573.813 142.825 554.668 134.545C550.525 132.76 538.015 122.522 538.015 122.522L537.821 122.129C526.81 98.6608 513.321 73.894 507.799 71.829C494.103 66.7065 473.64 126.765 467.771 145.03C408.525 186.177 472.321 262.05 505.627 274.26C536.569 285.584 620.495 300.112 669.582 251.678C716.718 205.342 683.924 160.098 666.598 145.217Z" stroke="url(#paint12_linear_95_154)" stroke-width="6" stroke-linecap="round" stroke-linejoin="round"/>
<path d="M511.309 82.2339C511.309 82.2339 496.254 88.9951 491.891 142.226" stroke="url(#paint13_linear_95_154)" stroke-width="6" stroke-linecap="round" stroke-linejoin="round"/>
<path d="M576.725 185.051C580.647 184.894 583.625 179.748 583.377 173.556C583.13 167.365 579.75 162.472 575.828 162.629C571.906 162.786 568.928 167.933 569.175 174.124C569.423 180.316 572.803 185.208 576.725 185.051Z" fill="url(#paint14_linear_95_154)"/>
<path d="M631.031 185.593C634.949 185.421 637.905 180.267 637.634 174.082C637.363 167.896 633.967 163.021 630.049 163.192C626.131 163.364 623.174 168.518 623.446 174.704C623.717 180.889 627.113 185.765 631.031 185.593Z" fill="url(#paint15_linear_95_154)"/>
<path d="M593.311 210.185C599.812 225.252 604.561 210.391 605.574 202.091C606.653 209.898 612.309 222.421 617.424 211.996" stroke="url(#paint16_linear_95_154)" stroke-width="6" stroke-linecap="round" stroke-linejoin="round"/>
<path d="M617.538 194.777L608.058 203.017C607.326 203.582 606.421 203.875 605.496 203.847C604.572 203.819 603.686 203.472 602.989 202.864L594.07 194.87C591.931 192.952 593.297 189.888 596.315 189.848L614.72 189.614C617.904 189.561 619.716 192.878 617.538 194.777Z" fill="url(#paint17_linear_95_154)"/>
<path d="M611.996 84.2256C619.889 75.2328 627.516 69.4508 632.479 72.6216C638.761 76.6184 649.006 110.138 654.461 138.615" stroke="url(#paint18_linear_95_154)" stroke-width="6" stroke-linecap="round" stroke-linejoin="round"/>
<path d="M631.493 78.8499C631.493 78.8499 601.877 115.007 608.345 138.495" stroke="url(#paint19_linear_95_154)" stroke-width="6" stroke-linecap="round" stroke-linejoin="round"/>
<path d="M566.053 105.722V94.1643L558.059 105.722H566.053Z" fill="url(#paint20_linear_95_154)"/>
<path d="M583.125 91.2599C582.605 91.2522 582.088 91.3518 581.608 91.5523C581.128 91.7529 580.694 92.0502 580.334 92.4257C578.686 94.2775 577.865 97.3861 577.869 101.752C577.874 106.117 578.695 109.226 580.334 111.077C580.699 111.447 581.133 111.74 581.612 111.94C582.092 112.14 582.606 112.243 583.125 112.243C583.644 112.243 584.158 112.14 584.637 111.94C585.117 111.74 585.551 111.447 585.916 111.077C587.555 109.23 588.374 106.121 588.374 101.752C588.374 97.3817 587.555 94.2731 585.916 92.4257C585.555 92.0511 585.121 91.7545 584.641 91.554C584.161 91.3535 583.645 91.2534 583.125 91.2599Z" fill="url(#paint21_linear_95_154)"/>
<path d="M605.447 105.722V94.1643L597.454 105.722H605.447Z" fill="url(#paint22_linear_95_154)"/>
<path d="M700.524 127.937C693.317 124.873 647.647 120.71 629.688 119.164C629.195 108.06 614.28 61.7637 581.686 61.8769C580.534 61.8769 579.422 61.9169 578.356 61.9769L578.143 58.5796C578.143 58.5796 540.779 60.4514 522.487 92.2659L539.52 131.075L542.231 132.474C542.485 132.58 549.506 135.398 553.556 137.136C572.7 145.41 594.529 149.94 616.305 148.84L698.593 142.845C700.937 142.732 702.822 141.353 703.102 139.561L704.101 133.226C704.415 131.095 703.009 128.99 700.524 127.937ZM572.234 107.953C572.114 108.079 571.969 108.178 571.808 108.244C571.648 108.31 571.475 108.343 571.301 108.34H568.677V113.595C568.679 113.768 568.646 113.939 568.58 114.099C568.513 114.258 568.415 114.402 568.291 114.521C568.042 114.761 567.71 114.896 567.365 114.896C567.019 114.896 566.687 114.761 566.439 114.521C566.314 114.402 566.216 114.258 566.149 114.099C566.083 113.939 566.05 113.768 566.052 113.595V108.34H555.554C555.201 108.34 554.862 108.199 554.612 107.949C554.362 107.7 554.222 107.361 554.222 107.007C554.217 106.73 554.304 106.458 554.468 106.235L566.285 89.1617C566.4 88.986 566.559 88.8435 566.746 88.7488C566.933 88.6541 567.142 88.6104 567.351 88.6221C567.705 88.6221 568.044 88.7625 568.293 89.0123C568.543 89.2622 568.684 89.601 568.684 89.9544V105.715H571.308C571.661 105.715 572 105.855 572.25 106.105C572.5 106.355 572.64 106.694 572.64 107.047C572.634 107.221 572.592 107.391 572.517 107.548C572.443 107.705 572.337 107.845 572.207 107.96L572.234 107.953ZM587.768 112.983C587.158 113.593 586.434 114.077 585.637 114.408C584.839 114.738 583.985 114.908 583.122 114.908C582.259 114.908 581.404 114.738 580.607 114.408C579.81 114.077 579.086 113.593 578.476 112.983C576.322 110.762 575.245 107.025 575.245 101.772C575.245 96.518 576.322 92.781 578.476 90.5606C579.71 89.3325 581.381 88.6431 583.122 88.6431C584.863 88.6431 586.534 89.3325 587.768 90.5606C589.926 92.781 591.006 96.518 591.006 101.772C591.006 107.025 589.926 110.764 587.768 112.989V112.983ZM611.629 107.953C611.509 108.078 611.366 108.176 611.206 108.243C611.047 108.309 610.876 108.342 610.703 108.34H608.039V113.595C608.041 113.768 608.008 113.939 607.942 114.099C607.875 114.258 607.777 114.402 607.652 114.521C607.404 114.761 607.072 114.896 606.726 114.896C606.381 114.896 606.049 114.761 605.8 114.521C605.676 114.402 605.578 114.258 605.511 114.099C605.445 113.939 605.412 113.768 605.414 113.595V108.34H594.909C594.556 108.34 594.217 108.199 593.967 107.949C593.717 107.7 593.577 107.361 593.577 107.007C593.573 106.73 593.659 106.458 593.823 106.235L605.641 89.1617C605.756 88.9869 605.915 88.8452 606.102 88.7506C606.289 88.656 606.497 88.6117 606.706 88.6221C607.06 88.6221 607.399 88.7625 607.648 89.0123C607.898 89.2622 608.039 89.601 608.039 89.9544V105.715H610.703C610.876 105.713 611.047 105.746 611.206 105.812C611.366 105.878 611.509 105.977 611.629 106.101C611.869 106.35 612.003 106.682 612.003 107.027C612.003 107.373 611.869 107.705 611.629 107.953Z" fill="url(#paint23_linear_95_154)"/>
<path d="M569.823 63.3423C579.399 63.3423 587.162 59.5607 587.162 54.8958C587.162 50.2309 579.399 46.4492 569.823 46.4492C560.247 46.4492 552.483 50.2309 552.483 54.8958C552.483 59.5607 560.247 63.3423 569.823 63.3423Z" fill="url(#paint24_linear_95_154)"/>
<path d="M567.964 47.9614C564.634 40.1543 546.874 9.44566 528.929 12.6165C507.886 15.5008 567.964 47.9614 567.964 47.9614Z" stroke="url(#paint25_linear_95_154)" stroke-width="6" stroke-linecap="round" stroke-linejoin="round"/>
<path d="M568.044 47.6483C565.273 41.1802 557.113 12.843 569.67 3.5371C583.891 -7.84709 568.044 47.6483 568.044 47.6483Z" stroke="url(#paint26_linear_95_154)" stroke-width="6" stroke-linecap="round" stroke-linejoin="round"/>
<path d="M568.631 48.1681C576.305 48.1681 585.471 41.9464 584.192 27.3781C582.913 12.8098 602.037 1.65211 612.542 15.8607" stroke="url(#paint27_linear_95_154)" stroke-width="6" stroke-linecap="round" stroke-linejoin="round"/>
<path d="M568.73 46.4693C573.733 50.6193 583.066 51.5186 590.107 41.3401C597.148 31.1616 615.633 34.2258 614.793 49.1605" stroke="url(#paint28_linear_95_154)" stroke-width="6" stroke-linecap="round" stroke-linejoin="round"/>
<path d="M670.128 193.844C670.128 193.844 717.743 149.174 773.705 183.046" stroke="url(#paint29_linear_95_154)" stroke-width="6" stroke-linecap="round" stroke-linejoin="round"/>
<path d="M669.795 202.684C669.795 202.684 725.084 167.952 773.519 211.91" stroke="url(#paint30_linear_95_154)" stroke-width="6" stroke-linecap="round" stroke-linejoin="round"/>
<path d="M417.112 306.86C414.421 305.531 411.352 305.175 408.429 305.854C405.505 306.533 402.907 308.204 401.078 310.584C399.248 312.963 398.3 315.903 398.394 318.903C398.489 321.903 399.62 324.777 401.596 327.036C403.572 329.296 406.27 330.8 409.231 331.294C412.191 331.787 415.231 331.239 417.833 329.743C420.435 328.246 422.438 325.894 423.5 323.087C424.562 320.28 424.619 317.191 423.66 314.347C423.138 312.718 422.288 311.213 421.161 309.925C420.035 308.638 418.657 307.594 417.112 306.86Z" fill="url(#paint31_linear_95_154)"/>
<path d="M562.315 218.444L530.907 207.167C457.872 180.155 452.164 165.42 453.156 158.872C457.263 153.5 462.212 148.828 467.811 145.037C470.396 136.99 475.805 120.836 482.239 105.735C449.419 112.136 422.994 132.933 421.368 178.523C421.368 178.523 369.823 135.418 277.264 157.527C261.943 161.19 260.278 173.167 262.902 187.949C293.797 361.709 443.644 391.639 566.672 360.61C567.664 351.551 568.883 310.863 569.569 285.384H569.469L584.611 265.713C595.082 240.62 579.308 221.349 562.315 218.444ZM472.481 118.944C472.972 118.768 473.514 118.791 473.988 119.009C474.463 119.226 474.834 119.621 475.021 120.109C475.208 120.597 475.197 121.138 474.99 121.618C474.783 122.097 474.396 122.477 473.913 122.675C459.924 128.05 453.463 142.319 454.289 153.643C454.327 154.171 454.154 154.693 453.808 155.094C453.462 155.495 452.972 155.742 452.443 155.781H452.303C451.798 155.783 451.311 155.592 450.94 155.249C450.569 154.905 450.342 154.434 450.305 153.929C449.366 141.14 456.68 125.013 472.481 118.944ZM331.734 271.622C331.705 271.867 331.627 272.103 331.504 272.317C331.382 272.531 331.217 272.718 331.021 272.867C330.839 273.023 330.626 273.14 330.397 273.211C330.168 273.282 329.927 273.306 329.689 273.28C325.951 272.54 322.579 270.543 320.131 267.622C317.684 264.702 316.308 261.032 316.233 257.222C316.158 253.412 317.387 249.691 319.718 246.676C322.048 243.661 325.339 241.533 329.044 240.646C332.75 239.758 336.648 240.164 340.091 241.795C343.535 243.427 346.317 246.187 347.976 249.618C349.635 253.048 350.072 256.942 349.214 260.655C348.356 264.368 346.254 267.675 343.258 270.03C343.067 270.181 342.849 270.293 342.614 270.36C342.38 270.426 342.135 270.445 341.893 270.416C341.652 270.387 341.418 270.31 341.206 270.19C340.995 270.07 340.809 269.909 340.66 269.717L323.48 247.841C321.604 249.933 320.402 252.542 320.03 255.328C319.795 257.024 319.91 258.75 320.368 260.4C320.827 262.05 321.618 263.588 322.694 264.92C324.559 267.357 327.259 269.018 330.275 269.583C330.692 269.673 331.063 269.909 331.321 270.249C331.483 270.436 331.604 270.654 331.675 270.891C331.746 271.128 331.766 271.377 331.734 271.622ZM360.277 272.747C358.57 272.824 356.897 273.251 355.361 274.002C353.826 274.752 352.461 275.81 351.351 277.111L341.526 288.268C341.367 288.454 341.173 288.606 340.954 288.715C340.736 288.823 340.497 288.887 340.253 288.901C339.758 288.934 339.27 288.77 338.896 288.444C338.521 288.118 338.291 287.658 338.255 287.162C338.237 286.92 338.268 286.677 338.349 286.448C338.429 286.218 338.556 286.008 338.721 285.83L358.379 263.521C358.535 263.336 358.729 263.184 358.946 263.076C359.164 262.969 359.402 262.907 359.645 262.895C359.89 262.876 360.136 262.906 360.37 262.983C360.604 263.06 360.82 263.183 361.006 263.344C361.192 263.505 361.344 263.701 361.453 263.922C361.562 264.142 361.627 264.382 361.643 264.627C361.662 264.87 361.63 265.113 361.549 265.342C361.469 265.572 361.342 265.782 361.177 265.96L358.379 269.117C364.081 268.757 368.671 270.11 372.148 273.174C373.817 274.579 375.178 276.314 376.145 278.27C376.307 278.579 376.403 278.92 376.424 279.269C376.433 279.756 376.256 280.229 375.93 280.591C375.603 280.954 375.152 281.178 374.666 281.221C374.424 281.236 374.181 281.203 373.952 281.123C373.723 281.043 373.513 280.918 373.334 280.754C373.118 280.572 372.945 280.345 372.827 280.088C372.106 278.497 371.033 277.089 369.69 275.971C368.426 274.822 366.94 273.942 365.324 273.388C363.707 272.833 361.994 272.615 360.291 272.747H360.277ZM382.779 290.866C381.091 291.151 379.479 291.781 378.045 292.718C376.611 293.654 375.386 294.877 374.446 296.309L366.073 308.585C365.941 308.797 365.767 308.979 365.563 309.122C365.358 309.265 365.127 309.365 364.883 309.416C364.639 309.467 364.387 309.468 364.142 309.42C363.898 309.371 363.665 309.274 363.459 309.133C363.253 308.993 363.078 308.812 362.943 308.602C362.809 308.392 362.718 308.157 362.677 307.911C362.635 307.666 362.644 307.414 362.702 307.171C362.76 306.929 362.867 306.701 363.015 306.5L379.762 281.94C379.896 281.736 380.07 281.562 380.274 281.427C380.478 281.293 380.707 281.203 380.947 281.161C381.186 281.114 381.432 281.115 381.67 281.166C381.908 281.216 382.134 281.314 382.333 281.454C382.534 281.59 382.707 281.765 382.84 281.968C382.974 282.172 383.066 282.399 383.111 282.638C383.156 282.877 383.154 283.123 383.104 283.361C383.053 283.599 382.957 283.825 382.819 284.025L380.448 287.502C386.057 286.441 390.777 287.218 394.61 289.834C396.447 291.018 398.018 292.569 399.226 294.39C399.429 294.676 399.565 295.004 399.626 295.349C399.69 295.711 399.646 296.084 399.499 296.42C399.352 296.757 399.108 297.042 398.799 297.24C398.489 297.439 398.128 297.541 397.761 297.534C397.393 297.527 397.036 297.411 396.735 297.201C396.492 297.043 396.289 296.831 396.142 296.582C395.231 295.092 393.994 293.828 392.525 292.885C391.126 291.902 389.541 291.217 387.867 290.87C386.194 290.523 384.467 290.521 382.793 290.866H382.779ZM426.344 325.918C424.636 329.385 421.778 332.152 418.257 333.748C414.737 335.344 410.773 335.669 407.039 334.67C403.306 333.671 400.034 331.408 397.782 328.267C395.53 325.126 394.437 321.301 394.688 317.444C394.94 313.587 396.521 309.937 399.162 307.115C401.803 304.293 405.341 302.475 409.173 301.969C413.004 301.463 416.893 302.301 420.176 304.341C423.459 306.381 425.933 309.496 427.177 313.155C427.921 315.225 428.232 317.426 428.091 319.621C427.95 321.817 427.36 323.96 426.358 325.918H426.344ZM460.124 322.114C460.054 322.348 459.94 322.565 459.786 322.753C459.633 322.942 459.443 323.098 459.229 323.213C459.015 323.328 458.78 323.4 458.538 323.424C458.296 323.448 458.052 323.424 457.819 323.353C457.541 323.273 457.283 323.132 457.066 322.94C455.752 321.79 454.191 320.956 452.503 320.502C449.204 319.523 445.651 319.887 442.619 321.515C439.587 323.143 437.322 325.904 436.316 329.195L432.026 343.424C431.958 343.658 431.843 343.877 431.69 344.066C431.536 344.256 431.346 344.413 431.13 344.528C430.915 344.643 430.679 344.715 430.436 344.738C430.193 344.761 429.948 344.736 429.715 344.663C429.482 344.594 429.264 344.48 429.075 344.327C428.886 344.173 428.73 343.984 428.615 343.769C428.501 343.554 428.43 343.319 428.407 343.077C428.384 342.835 428.41 342.59 428.483 342.358L437.069 313.901C437.135 313.666 437.248 313.448 437.401 313.259C437.555 313.07 437.746 312.914 437.962 312.802C438.285 312.623 438.655 312.545 439.023 312.578C439.392 312.611 439.742 312.753 440.028 312.987C440.315 313.22 440.525 313.534 440.632 313.889C440.738 314.243 440.736 314.62 440.626 314.973L439.407 318.97C444.443 316.27 449.179 315.591 453.616 316.932C455.723 317.511 457.689 318.518 459.391 319.89C459.668 320.103 459.895 320.373 460.057 320.682C460.169 320.902 460.234 321.143 460.247 321.39C460.261 321.636 460.224 321.883 460.137 322.114H460.124ZM537.202 287.509H537.029C516.099 285.684 497.014 279.309 480.301 268.544C466.938 259.938 455.068 248.56 444.996 234.651C427.91 211.057 422.094 188.768 421.855 187.836C421.782 187.579 421.761 187.31 421.794 187.046C421.826 186.781 421.911 186.525 422.044 186.294C422.177 186.063 422.355 185.86 422.567 185.699C422.78 185.537 423.022 185.42 423.281 185.354C423.539 185.288 423.808 185.274 424.072 185.313C424.336 185.352 424.589 185.444 424.817 185.583C425.045 185.722 425.242 185.905 425.398 186.121C425.554 186.338 425.665 186.583 425.725 186.843C425.785 187.07 431.64 209.432 448.32 232.426C463.641 253.536 491.512 279.535 537.355 283.525C537.885 283.548 538.384 283.781 538.743 284.172C539.101 284.563 539.29 285.08 539.267 285.61C539.244 286.14 539.011 286.64 538.62 286.998C538.229 287.357 537.712 287.545 537.182 287.522L537.202 287.509Z" fill="url(#paint32_linear_95_154)"/>
<path d="M345.889 258.459C346.098 256.765 345.97 255.047 345.513 253.403C345.057 251.759 344.28 250.221 343.228 248.878C342.176 247.535 340.87 246.412 339.383 245.574C337.896 244.737 336.259 244.201 334.565 243.997C331.768 243.697 328.945 244.247 326.465 245.576L342.452 265.926C344.335 263.847 345.534 261.241 345.889 258.459Z" fill="url(#paint33_linear_95_154)"/>
<path d="M552.423 193.844C552.423 193.844 504.807 149.213 448.846 183.073" stroke="url(#paint34_linear_95_154)" stroke-width="6" stroke-linecap="round" stroke-linejoin="round"/>
<path d="M552.742 202.684C552.742 202.684 497.453 167.952 449.019 211.91" stroke="url(#paint35_linear_95_154)" stroke-width="6" stroke-linecap="round" stroke-linejoin="round"/>
<path d="M-171.196 500.325H1009.86" stroke="url(#paint36_linear_95_154)" stroke-width="6" stroke-linecap="round" stroke-linejoin="round"/>
</g>
<defs>
<linearGradient id="paint0_linear_95_154" x1="669.216" y1="357.47" x2="669.216" y2="482.783" gradientUnits="userSpaceOnUse">
<stop stop-color="#287F71"/>
<stop offset="1" stop-color="#D3D3D3"/>
</linearGradient>
<linearGradient id="paint1_linear_95_154" x1="343.941" y1="87.0688" x2="343.941" y2="501.164" gradientUnits="userSpaceOnUse">
<stop stop-color="#287F71"/>
<stop offset="1" stop-color="#06162E"/>
</linearGradient>
<linearGradient id="paint2_linear_95_154" x1="508.671" y1="466.206" x2="508.671" y2="498.133" gradientUnits="userSpaceOnUse">
<stop stop-color="#287F71"/>
<stop offset="1" stop-color="#06162E"/>
</linearGradient>
<linearGradient id="paint3_linear_95_154" x1="497.929" y1="472.854" x2="497.929" y2="498.999" gradientUnits="userSpaceOnUse">
<stop stop-color="#287F71"/>
<stop offset="1" stop-color="#06162E"/>
</linearGradient>
<linearGradient id="paint4_linear_95_154" x1="626.297" y1="438.035" x2="626.297" y2="474.372" gradientUnits="userSpaceOnUse">
<stop stop-color="#287F71"/>
<stop offset="1" stop-color="#06162E"/>
</linearGradient>
<linearGradient id="paint5_linear_95_154" x1="614.574" y1="438.035" x2="614.574" y2="479.282" gradientUnits="userSpaceOnUse">
<stop stop-color="#287F71"/>
<stop offset="1" stop-color="#06162E"/>
</linearGradient>
<linearGradient id="paint6_linear_95_154" x1="381.611" y1="470.416" x2="381.611" y2="499.599" gradientUnits="userSpaceOnUse">
<stop stop-color="#287F71"/>
<stop offset="1" stop-color="#06162E"/>
</linearGradient>
<linearGradient id="paint7_linear_95_154" x1="372.567" y1="477.043" x2="372.567" y2="499.865" gradientUnits="userSpaceOnUse">
<stop stop-color="#287F71"/>
<stop offset="1" stop-color="#06162E"/>
</linearGradient>
<linearGradient id="paint8_linear_95_154" x1="219.351" y1="470.047" x2="219.351" y2="499.599" gradientUnits="userSpaceOnUse">
<stop stop-color="#287F71"/>
<stop offset="1" stop-color="#06162E"/>
</linearGradient>
<linearGradient id="paint9_linear_95_154" x1="214.807" y1="480.821" x2="214.807" y2="499.599" gradientUnits="userSpaceOnUse">
<stop stop-color="#287F71"/>
<stop offset="1" stop-color="#06162E"/>
</linearGradient>
<linearGradient id="paint10_linear_95_154" x1="561.112" y1="303.561" x2="561.112" y2="330.308" gradientUnits="userSpaceOnUse">
<stop stop-color="#287F71"/>
<stop offset="1" stop-color="#06162E"/>
</linearGradient>
<linearGradient id="paint11_linear_95_154" x1="643.066" y1="189.181" x2="643.066" y2="364.534" gradientUnits="userSpaceOnUse">
<stop stop-color="#287F71"/>
<stop offset="1" stop-color="#06162E"/>
</linearGradient>
<linearGradient id="paint12_linear_95_154" x1="568.723" y1="71.5203" x2="568.723" y2="285.483" gradientUnits="userSpaceOnUse">
<stop stop-color="#287F71"/>
<stop offset="1" stop-color="#06162E"/>
</linearGradient>
<linearGradient id="paint13_linear_95_154" x1="501.6" y1="82.2339" x2="501.6" y2="142.226" gradientUnits="userSpaceOnUse">
<stop stop-color="#287F71"/>
<stop offset="1" stop-color="#06162E"/>
</linearGradient>
<linearGradient id="paint14_linear_95_154" x1="575.828" y1="162.629" x2="576.725" y2="185.051" gradientUnits="userSpaceOnUse">
<stop stop-color="#287F71"/>
<stop offset="1" stop-color="#06162E"/>
</linearGradient>
<linearGradient id="paint15_linear_95_154" x1="630.049" y1="163.192" x2="631.031" y2="185.593" gradientUnits="userSpaceOnUse">
<stop stop-color="#287F71"/>
<stop offset="1" stop-color="#06162E"/>
</linearGradient>
<linearGradient id="paint16_linear_95_154" x1="605.368" y1="202.091" x2="605.368" y2="216.656" gradientUnits="userSpaceOnUse">
<stop stop-color="#287F71"/>
<stop offset="1" stop-color="#06162E"/>
</linearGradient>
<linearGradient id="paint17_linear_95_154" x1="605.761" y1="189.614" x2="605.761" y2="203.849" gradientUnits="userSpaceOnUse">
<stop stop-color="#287F71"/>
<stop offset="1" stop-color="#06162E"/>
</linearGradient>
<linearGradient id="paint18_linear_95_154" x1="633.229" y1="71.7444" x2="633.229" y2="138.615" gradientUnits="userSpaceOnUse">
<stop stop-color="#287F71"/>
<stop offset="1" stop-color="#06162E"/>
</linearGradient>
<linearGradient id="paint19_linear_95_154" x1="619.457" y1="78.8499" x2="619.457" y2="138.495" gradientUnits="userSpaceOnUse">
<stop stop-color="#287F71"/>
<stop offset="1" stop-color="#06162E"/>
</linearGradient>
<linearGradient id="paint20_linear_95_154" x1="562.056" y1="94.1643" x2="562.056" y2="105.722" gradientUnits="userSpaceOnUse">
<stop stop-color="#287F71"/>
<stop offset="1" stop-color="#06162E"/>
</linearGradient>
<linearGradient id="paint21_linear_95_154" x1="583.122" y1="91.2595" x2="583.122" y2="112.243" gradientUnits="userSpaceOnUse">
<stop stop-color="#287F71"/>
<stop offset="1" stop-color="#06162E"/>
</linearGradient>
<linearGradient id="paint22_linear_95_154" x1="601.45" y1="94.1643" x2="601.45" y2="105.722" gradientUnits="userSpaceOnUse">
<stop stop-color="#287F71"/>
<stop offset="1" stop-color="#06162E"/>
</linearGradient>
<linearGradient id="paint23_linear_95_154" x1="613.316" y1="58.5796" x2="613.316" y2="149.003" gradientUnits="userSpaceOnUse">
<stop stop-color="#287F71"/>
<stop offset="1" stop-color="#06162E"/>
</linearGradient>
<linearGradient id="paint24_linear_95_154" x1="569.823" y1="46.4492" x2="569.823" y2="63.3423" gradientUnits="userSpaceOnUse">
<stop stop-color="#287F71"/>
<stop offset="1" stop-color="#D3D3D3"/>
</linearGradient>
<linearGradient id="paint25_linear_95_154" x1="546.211" y1="12.3877" x2="546.211" y2="47.9614" gradientUnits="userSpaceOnUse">
<stop stop-color="#287F71"/>
<stop offset="1" stop-color="#06162E"/>
</linearGradient>
<linearGradient id="paint26_linear_95_154" x1="569.234" y1="1.9978" x2="569.234" y2="47.6483" gradientUnits="userSpaceOnUse">
<stop stop-color="#287F71"/>
<stop offset="1" stop-color="#06162E"/>
</linearGradient>
<linearGradient id="paint27_linear_95_154" x1="590.587" y1="9.2915" x2="590.587" y2="48.1681" gradientUnits="userSpaceOnUse">
<stop stop-color="#287F71"/>
<stop offset="1" stop-color="#06162E"/>
</linearGradient>
<linearGradient id="paint28_linear_95_154" x1="591.776" y1="35.3923" x2="591.776" y2="49.3983" gradientUnits="userSpaceOnUse">
<stop stop-color="#287F71"/>
<stop offset="1" stop-color="#06162E"/>
</linearGradient>
<linearGradient id="paint29_linear_95_154" x1="721.917" y1="170.358" x2="721.917" y2="193.844" gradientUnits="userSpaceOnUse">
<stop stop-color="#287F71"/>
<stop offset="1" stop-color="#06162E"/>
</linearGradient>
<linearGradient id="paint30_linear_95_154" x1="721.657" y1="189.656" x2="721.657" y2="211.91" gradientUnits="userSpaceOnUse">
<stop stop-color="#287F71"/>
<stop offset="1" stop-color="#06162E"/>
</linearGradient>
<linearGradient id="paint31_linear_95_154" x1="411.364" y1="305.518" x2="411.364" y2="331.47" gradientUnits="userSpaceOnUse">
<stop stop-color="#287F71"/>
<stop offset="1" stop-color="#06162E"/>
</linearGradient>
<linearGradient id="paint32_linear_95_154" x1="424.931" y1="105.735" x2="424.931" y2="371.356" gradientUnits="userSpaceOnUse">
<stop stop-color="#287F71"/>
<stop offset="1" stop-color="#06162E"/>
</linearGradient>
<linearGradient id="paint33_linear_95_154" x1="336.226" y1="243.917" x2="336.226" y2="265.926" gradientUnits="userSpaceOnUse">
<stop stop-color="#287F71"/>
<stop offset="1" stop-color="#06162E"/>
</linearGradient>
<linearGradient id="paint34_linear_95_154" x1="500.634" y1="170.386" x2="500.634" y2="193.844" gradientUnits="userSpaceOnUse">
<stop stop-color="#287F71"/>
<stop offset="1" stop-color="#06162E"/>
</linearGradient>
<linearGradient id="paint35_linear_95_154" x1="500.88" y1="189.656" x2="500.88" y2="211.91" gradientUnits="userSpaceOnUse">
<stop stop-color="#287F71"/>
<stop offset="1" stop-color="#06162E"/>
</linearGradient>
<linearGradient id="paint36_linear_95_154" x1="419.33" y1="500.325" x2="419.33" y2="501.325" gradientUnits="userSpaceOnUse">
<stop stop-color="#287F71"/>
<stop offset="1" stop-color="#06162E"/>
</linearGradient>
<clipPath id="clip0_95_154">
<rect width="830" height="502.929" fill="white"/>
</clipPath>
</defs>
</svg>
