<svg width="20" height="20" viewBox="0 0 20 20" fill="none" xmlns="http://www.w3.org/2000/svg">
<path d="M7 4.75001V13M13 7.00001V15.25M13.503 18.748L18.378 16.311C18.759 16.121 19 15.731 19 15.305V2.82001C19 1.98401 18.12 1.44001 17.372 1.81401L13.503 3.74801C13.186 3.90701 12.813 3.90701 12.497 3.74801L7.503 1.25201C7.34682 1.17394 7.17461 1.1333 7 1.1333C6.82539 1.1333 6.65318 1.17394 6.497 1.25201L1.622 3.68901C1.24 3.88001 1 4.27001 1 4.69501V17.18C1 18.016 1.88 18.56 2.628 18.186L6.497 16.252C6.814 16.093 7.187 16.093 7.503 16.252L12.497 18.749C12.814 18.907 13.187 18.907 13.503 18.749V18.748Z" stroke="#034460" stroke-width="1.5" stroke-linecap="round" stroke-linejoin="round"/>
</svg>
