<svg width="16" height="16" viewBox="0 0 16 16" fill="none" xmlns="http://www.w3.org/2000/svg">
<path d="M14.0161 9.34418C14.9441 5.18418 11.2961 1.40818 7.0081 2.12818C4.6881 0.688181 1.6001 2.32018 1.6001 5.08818C1.6001 5.72818 1.7761 6.33618 2.0801 6.84818C1.2321 11.0242 4.8961 14.7522 9.1841 13.9682C12.2081 15.5682 15.5361 12.3842 14.0161 9.34418ZM9.9521 11.8562C8.8321 12.3202 6.9761 12.3202 5.8561 11.7282C4.2561 10.8802 3.9841 8.96018 5.3601 8.96018C6.4001 8.96018 6.0641 10.1762 7.1201 10.6562C7.6001 10.8802 8.6401 10.8962 9.2321 10.4962C9.8241 10.0962 9.7761 9.47218 9.4561 9.18418C8.6081 8.40018 6.1601 8.70418 5.0401 7.32818C4.5601 6.73618 4.4641 5.68018 5.0561 4.91218C6.0961 3.56818 9.1521 3.48818 10.4641 4.49618C11.6801 5.44018 11.3441 6.67218 10.3681 6.67218C9.2001 6.67218 9.8081 5.13618 7.9041 5.13618C6.5281 5.13618 5.9841 6.11218 6.9601 6.59218C8.2721 7.26418 11.6161 7.04018 11.6161 9.60018C11.6161 10.6562 10.9601 11.4402 9.9521 11.8562Z" fill="#818692"/>
</svg>
