<svg width="20" height="20" viewBox="0 0 20 20" fill="none" xmlns="http://www.w3.org/2000/svg">
<path d="M13.849 0C13.8956 0 13.9421 0 13.9913 0C14.1055 1.41044 13.5671 2.46432 12.9128 3.22751C12.2708 3.98542 11.3917 4.7205 9.96985 4.60897C9.875 3.21872 10.4142 2.24301 11.0676 1.48158C11.6736 0.771967 12.7846 0.140517 13.849 0Z" fill="black"/>
<path d="M18.1529 14.6805C18.1529 14.6945 18.1529 14.7068 18.1529 14.72C17.7533 15.9302 17.1834 16.9674 16.4878 17.9299C15.8528 18.8038 15.0747 19.9797 13.6854 19.9797C12.4848 19.9797 11.6874 19.2078 10.457 19.1867C9.15543 19.1656 8.43967 19.8322 7.24967 19.9999C7.11354 19.9999 6.97742 19.9999 6.84392 19.9999C5.97008 19.8735 5.26486 19.1814 4.75109 18.5579C3.23614 16.7153 2.06546 14.3353 1.84766 11.2896C1.84766 10.991 1.84766 10.6933 1.84766 10.3947C1.93987 8.21493 2.99902 6.44266 4.40683 5.58374C5.14981 5.12706 6.1712 4.73801 7.30851 4.9119C7.79593 4.98742 8.29389 5.15429 8.73037 5.3194C9.14402 5.47836 9.66129 5.76027 10.1513 5.74534C10.4833 5.73568 10.8135 5.56267 11.1481 5.44059C12.1283 5.08667 13.089 4.68092 14.3555 4.8715C15.8774 5.10159 16.9577 5.77783 17.6251 6.82118C16.3376 7.64057 15.3197 8.87536 15.4936 10.984C15.6482 12.8994 16.7618 14.0201 18.1529 14.6805Z" fill="black"/>
</svg>
