<svg width="1000" height="1000" fill="none" xmlns="http://www.w3.org/2000/svg"><path d="M707.9 367c-12.19 2.59-16.32 16.58-19.11 27a136.067 136.067 0 00-3.67 19.53c-.74 6.43-.84 12.88-1.18 19.33-.37 7.05-1.18 14.13-3.94 20.69a1.13 1.13 0 00.51 1.26 2.941 2.941 0 003.67-.22c1.07-1 1-2.61-.63-3-1.63-.39-3.28 1.15-4.51 2a150.145 150.145 0 00-5.21 3.8c-6.16 4.69-12 9.83-18 14.71-3.8 3.07-7.7 6-11.74 8.74-1.21.82-.06 2.8 1.15 2a233.72 233.72 0 0019-14.77c2.92-2.46 5.85-4.92 8.85-7.27 1.68-1.333 3.39-2.627 5.13-3.88.9-.65 1.8-1.29 2.72-1.92.4-.28.79-.58 1.21-.83.42-.25.87-.27.7-.51v-1.13a.734.734 0 01-1.24.33l.51 1.26c4.75-11.33 3.73-23.87 4.68-35.85a135.304 135.304 0 012.87-19.09 96.147 96.147 0 015.4-17.9c2.57-5.8 6.78-11.28 13.14-13.08a.644.644 0 00.148-1.179.645.645 0 00-.488-.061l.03.04z" fill="url(#paint0_linear_82_2)"/><path d="M763.879 569.49a301.14 301.14 0 0030.69 60.51c10.42 15.83 25 32.06 43.94 32.25 13.39.14 25.37-7.92 35.84-16.26a343.604 343.604 0 0073.73-81.15c5.26-8.1 11.45-17.27 21-18.49a10.577 10.577 0 003.93-.87c4-2.3 1.21-8.42-2-11.68a141.095 141.095 0 00-13.89-12.31c-2.17-1.68-4.51-3.35-7.23-3.71-6.49-.88-11.27 5.56-15.31 10.71-21.07 26.89-58.48 34.56-84.82 56.31-4-29-18.15-55.43-32-81.19l-26.76 26.51c-3.26 3.24-11.23 7.78-8.67 11.6 4.2 6.27 1.06 11.34-.55 16.82s-4.21 12.47-10.07 12.3" fill="url(#paint1_linear_82_2)"/><path d="M763.219 569.68a292.212 292.212 0 0022.68 48.11c7.83 13.36 16.49 27.2 29 36.7a41.446 41.446 0 0019.24 8.51c7.81 1.08 15.53-.74 22.58-4.1 7.5-3.58 14.14-8.7 20.57-13.9 6.43-5.2 12.88-10.84 19-16.6a343.682 343.682 0 0034.25-37.4 339.867 339.867 0 0014.83-20.22c4.17-6.16 7.88-12.94 13.38-18.06a20.067 20.067 0 018.87-5.07c3.09-.74 7.08-.36 8.2-4.12.85-2.87-.7-6.11-2.33-8.39-2.34-3.27-5.67-6-8.66-8.64a73.493 73.493 0 00-10.06-8 10.85 10.85 0 00-9.95-1.11c-3.24 1.33-5.77 3.92-8 6.55-2.23 2.63-4.39 5.6-6.82 8.22-9.69 10.49-22.1 17.85-34.6 24.46-12.82 6.79-26.06 12.9-38.07 21.09-2.88 2-5.67 4-8.36 6.27l1.84.49c-3.21-22.73-12.55-44-23-64.21-3-5.78-6.06-11.52-9.14-17.25a1.11 1.11 0 00-.817-.53 1.132 1.132 0 00-.497.049 1.132 1.132 0 00-.426.261l-15.86 15.69c-4.58 4.54-9 9.4-14 13.46-2.63 2.11-8 5.85-6 9.89a21.776 21.776 0 011.81 3.7c.408 1.485.483 3.042.22 4.56-.43 2.67-1.56 5.18-2.35 7.76-1.35 4.43-3.27 11.91-9.11 11.85a1.102 1.102 0 00-.709 1.835c.184.202.437.329.709.355 5.13 0 8-4.45 9.65-8.71 1-2.47 1.66-5.06 2.53-7.57.87-2.51 1.8-5.33 1.62-8.12a11.967 11.967 0 00-.93-4 22.972 22.972 0 00-1.29-2.4 1.945 1.945 0 01-.34-1.12c.07-1.94 2.41-3.7 3.74-4.84 1.81-1.56 3.75-3 5.45-4.64 2.71-2.67 5.4-5.35 8.1-8l18.32-18.13-1.74-.23c10.77 20 21.65 40.26 27.9 62.23a138.287 138.287 0 014 18.69c.13.91 1.29.95 1.85.49 10.84-8.92 23.41-15.39 35.84-21.76 12.43-6.37 24.71-12.6 35.56-21.23a86.648 86.648 0 0014.3-14.48c2.14-2.74 4.38-5.65 7.3-7.6a8.83 8.83 0 019.82-.36c3.62 2.09 6.87 5.09 10 7.85a114.494 114.494 0 014.77 4.41 27.325 27.325 0 013.76 4.08c1.33 1.94 3.53 6.1.89 7.93-1.48 1-3.64.79-5.35 1.16a18.45 18.45 0 00-4.51 1.64c-6 3.06-10.24 8.85-13.91 14.33-4.45 6.65-8.85 13.31-13.61 19.74a342.494 342.494 0 01-32 37.24 343.88 343.88 0 01-17.76 16.68 232.072 232.072 0 01-19 15.29c-6.51 4.58-13.67 8.61-21.57 10.13a34.06 34.06 0 01-21.03-2.87c-13.25-6.36-22.58-18.84-30.36-30.88a300.115 300.115 0 01-24.26-45.7c-1.66-3.92-3.29-7.85-4.81-11.83-.31-.81-1.62-.47-1.32.37h-.03z" fill="url(#paint2_linear_82_2)"/><path d="M742.76 490.25c-6.65.71-13.48 1.06-20-.4-5.7 10.29-14.57 18.71-23.38 26.65-31.7 28.57-66.44 56.55-83.28 95.76-6.24 14.51-9.74 30-13.21 45.42-7.37 32.74-9.22 77.36-16.59 110.1-3.07 13.6-10.85 19.2-21.07 27a4.169 4.169 0 001.88 7.45c1.394.162 2.797.226 4.2.19l21.48-.28c6.75-.08 19.15.1 25.72.21a6.198 6.198 0 006.27-5.24c1.14-7.8-1.41-19.66-.68-25.69 2-16.71 11.32-31.5 19.54-46.19A436.494 436.494 0 00683 630.1c.74-2.65 1.49-5.37 3.14-7.56 1.82-2.42 4.54-4 7.18-5.42l50.36-28c2.8-1.56 5.68-3.18 7.58-5.75 1.9-2.57 2.62-5.78 3.3-8.9 2.21-10.26 4.21-21.87-2.4-30.34a15.515 15.515 0 01-2.81-5.31c-.74-2.73-.66-3.31.63-5.91.87-1.75 11-9.08 11.9-10.81 1.29-2.47-5.62-.55-2.54-7.43 4-8.88 13.13-10.35 22.1-28.71a9.251 9.251 0 00.73-4.07 198.506 198.506 0 01-39.41 8.36z" fill="url(#paint3_linear_82_2)"/><path d="M575.539 371.58a135.784 135.784 0 00-4.09-33.11l34.18-27.88-30-52-41.29 15.67a135.31 135.31 0 00-57.34-33.1l-7-43.56h-60l-7.07 43.56a135.44 135.44 0 00-57.29 33.1l-41.28-15.67-30 52 34.17 27.88a136.007 136.007 0 000 66.21l-34.17 27.89 30 52 41.28-15.68a135.431 135.431 0 0057.22 33.11l7.07 43.57h60l7.07-43.57a135.304 135.304 0 0057.29-33.1l41.29 15.68 30-52-34.18-27.89a135.707 135.707 0 004.14-33.11z" fill="url(#paint4_linear_82_2)"/><path d="M577.409 371.58a140.518 140.518 0 00-4.15-33.58l-.48 1.82 29.94-24.43 4.23-3.45a1.884 1.884 0 00.3-2.27l-10.14-17.55-16.16-28-3.72-6.45a1.898 1.898 0 00-2.12-.86l-36.17 13.74-5.12 1.94 1.83.48a138.764 138.764 0 00-58.12-33.58l1.31 1.3-6.19-38.17-.87-5.39a1.885 1.885 0 00-1.81-1.38h-60a1.898 1.898 0 00-1.81 1.38l-6.19 38.17-.87 5.39 1.31-1.3a138.66 138.66 0 00-58.12 33.58l1.82-.48-36.21-13.77-5.11-1.94a1.883 1.883 0 00-2.12.86l-10.13 17.56-16.17 28-3.72 6.44a1.903 1.903 0 00.29 2.27l29.95 24.43 4.23 3.45-.48-1.82a139.439 139.439 0 000 67.21l.48-1.82-29.95 24.43-4.23 3.45a1.887 1.887 0 00-.29 2.27l10.14 17.56 16.16 28 3.72 6.44a1.895 1.895 0 002.12.86l36.21-13.73 5.11-1.94-1.82-.48a138.776 138.776 0 0058.12 33.58l-1.31-1.31 6.19 38.17.87 5.4a1.888 1.888 0 001.81 1.37h60a1.897 1.897 0 001.81-1.37l6.22-38.18.88-5.39-1.31 1.31a138.764 138.764 0 0058.12-33.58l-1.83.48 36.14 13.73 5.11 1.94a1.886 1.886 0 002.12-.86l10.13-17.51 16.17-28 3.72-6.45a1.888 1.888 0 00-.3-2.27l-29.95-24.47-4.23-3.45.48 1.82a140.435 140.435 0 004.15-33.6 1.87 1.87 0 10-3.74 0 136.857 136.857 0 01-4 32.61 1.847 1.847 0 00.48 1.82l30 24.43 4.23 3.45-.29-2.27-10.14 17.56-16.16 28-3.78 6.44 2.12-.86-36.19-13.76-5.11-1.94a1.837 1.837 0 00-1.82.48 134.798 134.798 0 01-56.46 32.62 1.837 1.837 0 00-1.31 1.31l-6.23 38.2-.87 5.39 1.8-1.37h-60l1.8 1.37-6.19-38.17-.87-5.39a1.823 1.823 0 00-1.31-1.31 134.798 134.798 0 01-56.46-32.62 1.835 1.835 0 00-1.82-.48l-36.18 13.73-5.11 1.94 2.11.86-10.13-17.55-16.17-28-3.72-6.45-.29 2.27 30-24.43 4.23-3.45a1.844 1.844 0 00.48-1.82 135.255 135.255 0 010-65.22 1.847 1.847 0 00-.48-1.82l-29.95-24.43-4.23-3.46.29 2.27 10.07-17.53 16.16-28 3.72-6.45-2.11.86 36.23 13.72 5.11 1.94a1.875 1.875 0 001.82-.48 134.731 134.731 0 0156.43-32.59 1.81 1.81 0 00.832-.472c.231-.228.396-.514.478-.828l6.19-38.17.87-5.4-1.8 1.38h60l-1.8-1.38 6.18 38.17.88 5.4a1.821 1.821 0 001.31 1.3 134.713 134.713 0 0156.5 32.59 1.857 1.857 0 001.82.48l36.18-13.74 5.11-1.94-2.12-.86 10.14 17.56 16.16 28 3.73 6.45.29-2.27-29.95 24.43-4.23 3.45a1.85 1.85 0 00-.48 1.82 136.754 136.754 0 014 32.61c.03 2.42 3.77 2.42 3.76 0z" fill="url(#paint5_linear_82_2)"/><path d="M439.95 421.19c27.399 0 49.61-22.211 49.61-49.61s-22.211-49.61-49.61-49.61-49.61 22.211-49.61 49.61 22.211 49.61 49.61 49.61z" fill="#fff"/><path d="M487.681 371.58a47.54 47.54 0 11-.56-7.45c.376 2.465.563 4.956.56 7.45a1.88 1.88 0 003.75 0 51.562 51.562 0 00-102.955-4.186 51.558 51.558 0 0082.44 45.29 51.56 51.56 0 0019.865-33.004c.416-2.68.633-5.388.65-8.1a1.884 1.884 0 00-1.875-1.743 1.88 1.88 0 00-1.875 1.743z" fill="url(#paint6_linear_82_2)"/><path d="M210.67 338a93.156 93.156 0 00-18-14l3-30-39.57-10.68-12.37 27.53a92.524 92.524 0 00-43.68 11.69L75.59 304.9l-29 29 17.64 24.46a92.557 92.557 0 00-11.69 43.68L25 414.43l10.62 39.63 30-3a92.997 92.997 0 0032 32l-3 30 39.63 10.62 12.38-27.52a92.536 92.536 0 0043.68-11.69l24.46 17.64 29-29-17.63-24.46a92.485 92.485 0 0011.68-43.68l27.53-12.37-10.62-39.63-30 3A92.874 92.874 0 00210.67 338z" fill="url(#paint7_linear_82_2)"/><path d="M212.001 336.63a96.705 96.705 0 00-18.35-14.31l.93 1.61 2.66-26.24.38-3.75a1.885 1.885 0 00-1.38-1.8l-34.77-9.32-4.86-1.3a1.87 1.87 0 00-2.11.86l-10.86 24.12-1.53 3.4 1.62-.92a95.5 95.5 0 00-44.62 11.94H101l-21.41-15.43-3.06-2.21a1.89 1.89 0 00-2.27.29L48.8 329l-3.55 3.56a1.89 1.89 0 00-.29 2.27l15.43 21.4 2.21 3.06v-1.89a95.55 95.55 0 00-12 44.62l.93-1.61-24.07 10.87-3.4 1.53a1.89 1.89 0 00-.86 2.12l9.31 34.77 1.3 4.86a1.892 1.892 0 001.81 1.37l26.24-2.66 3.75-.38L64 452a96.002 96.002 0 0032.67 32.67l-.94-1.67-2.66 26.25-.38 3.75a1.893 1.893 0 001.37 1.81l34.78 9.32 4.86 1.3a1.911 1.911 0 002.11-.86l10.85-24.12 1.53-3.41-1.62.93A95.62 95.62 0 00191.19 486h-1.89l21.41 15.43 3.06 2.2a1.862 1.862 0 002.26-.29l25.46-25.46 3.56-3.55a1.893 1.893 0 00.29-2.27l-15.43-21.41-2.21-3.05v1.89a95.466 95.466 0 0011.94-44.63l-.92 1.62 24.12-10.84 3.4-1.54a1.87 1.87 0 00.86-2.11l-9.32-34.78-1.3-4.85a1.88 1.88 0 00-1.8-1.38l-26.24 2.67-3.75.38 1.62.92A97.154 97.154 0 00212 336.63c-1.7-1.71-4.35.94-2.65 2.65a91.99 91.99 0 0113.73 17.59 1.877 1.877 0 001.62.93l26.24-2.66 3.75-.38-1.81-1.38 9.32 34.78 1.3 4.86.86-2.12-24.12 10.85-3.4 1.53a1.842 1.842 0 00-.93 1.61 91.503 91.503 0 01-11.43 42.74 1.86 1.86 0 000 1.89l15.43 21.4 2.21 3.06.29-2.27-25.46 25.46-3.55 3.55 2.26-.29L194.25 485l-3.06-2.21a1.879 1.879 0 00-1.89 0 91.498 91.498 0 01-42.73 11.44 1.844 1.844 0 00-1.62.92l-10.84 24.12-1.53 3.41 2.11-.86-34.78-9.32-4.85-1.3 1.37 1.8 2.66-26.24.38-3.75a1.82 1.82 0 00-.92-1.61 91.997 91.997 0 01-31.33-31.33 1.819 1.819 0 00-1.61-.92l-26.24 2.66-3.75.38 1.8 1.37-9.31-34.78-1.31-4.85-.86 2.07 24.12-10.8 3.41-1.53a1.857 1.857 0 00.93-1.62 91.367 91.367 0 0111.43-42.73 1.86 1.86 0 000-1.89L50.39 336l-2.2-3-.29 2.27 25.46-25.46 3.55-3.56-2.27.29L96.05 322l3.06 2.2a1.849 1.849 0 001.89 0 91.487 91.487 0 0142.73-11.43 1.831 1.831 0 001.61-.93l10.85-24.12 1.53-3.4-2.11.86 34.77 9.32 4.86 1.3-1.37-1.81-2.67 26.25-.38 3.74a1.865 1.865 0 00.93 1.62 92.447 92.447 0 0117.59 13.73c1.71 1.67 4.36-1 2.66-2.7z" fill="url(#paint8_linear_82_2)"/><path d="M145.15 437.37c18.722 0 33.9-15.178 33.9-33.9 0-18.723-15.178-33.9-33.9-33.9-18.722 0-33.9 15.177-33.9 33.9 0 18.722 15.178 33.9 33.9 33.9z" fill="#fff"/><path d="M167.789 380.83a31.888 31.888 0 01.695 44.207 31.891 31.891 0 01-44.146 2.416 31.886 31.886 0 01-4.133-44.018 31.886 31.886 0 0143.824-5.845 31.437 31.437 0 013.76 3.24c1.72 1.69 4.37-.95 2.65-2.65a35.762 35.762 0 00-49.568-.947 35.759 35.759 0 0020.827 61.835 35.764 35.764 0 0038.894-30.744 35.76 35.76 0 00-6.533-25.914 39.413 39.413 0 00-3.62-4.23c-1.7-1.71-4.34.93-2.65 2.65zM299.2 523a65.017 65.017 0 00-15.84 1.95L270 508.57l-24.86 14.36 7.49 19.74a64.838 64.838 0 00-15.83 27.39l-20.8 3.38v28.71l20.83 3.38a64.838 64.838 0 0015.83 27.39l-7.49 19.75L270 667l13.33-16.34a65.27 65.27 0 0031.67 0L328.36 667l24.87-14.35-7.5-19.75a64.838 64.838 0 0015.83-27.39l20.83-3.38v-28.69l-20.83-3.38a64.838 64.838 0 00-15.83-27.39l7.5-19.74-24.87-14.36L315 524.91a65.022 65.022 0 00-15.8-1.91z" fill="#fff"/><path d="M299.2 521.09a69.076 69.076 0 00-16.33 2l1.82.48-13.34-16.34a1.871 1.871 0 00-2.26-.3l-21.8 12.59-3.07 1.77a1.877 1.877 0 00-.86 2.11l7.5 19.75.48-1.83A67.565 67.565 0 00235 569.57l1.31-1.31-20.84 3.38a1.867 1.867 0 00-1.37 1.8v28.71a1.895 1.895 0 001.4 1.85l20.84 3.37L235 606a67.592 67.592 0 0016.31 28.22l-.48-1.82-7.5 19.74a1.873 1.873 0 00.86 2.11L266 666.86l3.08 1.78a1.89 1.89 0 002.26-.29L284.69 652l-1.82.48a67.99 67.99 0 0032.65 0l-1.82-.48 13.3 16.35a1.885 1.885 0 002.26.29l21.8-12.58 3.07-1.78a1.884 1.884 0 00.86-2.11l-7.5-19.74-.48 1.82A67.611 67.611 0 00363.36 606l-1.3 1.3 20.83-3.3a1.882 1.882 0 001.37-1.81v-28.75a1.875 1.875 0 00-1.37-1.8l-20.83-3.38 1.3 1.31a67.578 67.578 0 00-16.31-28.23l.48 1.83 7.5-19.75a1.885 1.885 0 00-.86-2.11l-21.79-12.58-3.08-1.73a1.88 1.88 0 00-2.26.3l-13.34 16.29 1.82-.48a69.103 69.103 0 00-16.32-2 1.871 1.871 0 000 3.74 64.458 64.458 0 0115.33 1.89 1.854 1.854 0 001.82-.48l13.33-16.35-2.26.3 21.79 12.58 3.07 1.77-.86-2.11-7.5 19.74a1.845 1.845 0 00.49 1.82 63.697 63.697 0 0115.34 26.57 1.852 1.852 0 001.31 1.31l20.83 3.37-1.37-1.8v28.71l1.37-1.8-20.83 3.37a1.883 1.883 0 00-1.31 1.31 63.685 63.685 0 01-15.34 26.57 1.84 1.84 0 00-.49 1.82l7.5 19.74.86-2.11-21.79 12.58-3.07 1.78 2.26.29-13.33-16.34a1.867 1.867 0 00-1.82-.49 63.896 63.896 0 01-30.67 0 1.859 1.859 0 00-1.82.49l-13.33 16.32 2.27-.29-21.8-12.59-3.07-1.77.86 2.11 7.5-19.74a1.864 1.864 0 00-.48-1.82 63.591 63.591 0 01-15.35-26.6 1.875 1.875 0 00-.483-.827 1.875 1.875 0 00-.827-.483l-20.83-3.37 1.37 1.8v-28.68l-1.37 1.8 20.83-3.37a1.849 1.849 0 001.31-1.31A63.59 63.59 0 01254 544a1.861 1.861 0 00.48-1.82L247 522.43l-.86 2.11L267.9 512l3.08-1.77-2.27-.3L282 526.24c.232.236.524.405.844.489.32.084.657.081.976-.009a64.432 64.432 0 0115.34-1.89c2.44-.01 2.45-3.75.04-3.74z" fill="url(#paint9_linear_82_2)"/><path d="M299.2 611.52c13.101 0 23.72-10.62 23.72-23.72s-10.619-23.72-23.72-23.72c-13.1 0-23.72 10.62-23.72 23.72s10.62 23.72 23.72 23.72z" fill="url(#paint10_linear_82_2)"/><path d="M299.201 566a21.847 21.847 0 0121.038 27.697 21.854 21.854 0 01-19.469 15.945 21.845 21.845 0 01-21.571-12.962 21.849 21.849 0 01-1.438-13.12 22.05 22.05 0 0121.44-17.56c2.4 0 2.41-3.76 0-3.75a25.594 25.594 0 00-24.112 16.953 25.59 25.59 0 007.831 28.416 25.597 25.597 0 0039.651-9.357 25.601 25.601 0 001.73-15.362 25.91 25.91 0 00-25.1-20.65c-2.41-.06-2.42 3.68 0 3.75z" fill="url(#paint11_linear_82_2)"/><path d="M684.59 304.59a67.303 67.303 0 01-2.38 11.61 32.242 32.242 0 01-2.1 5.46c-.86 1.66-2.19 3.19-1.78 5.19a6.106 6.106 0 003.7 4c1 .41 1.84.38 1.84 1.6 0 1.22-.1 2.68 0 4a31.305 31.305 0 001.23 7.05c.64 2.12 1.43 4.44 3 6 4 3.91 10 1.84 14.91 2.41 1.38.17 1.37-2 0-2.16-4.12-.49-9.78 1.45-13.23-1.67-1.65-1.49-2.32-4-2.86-6.08a29.257 29.257 0 01-1-7c0-1.72.61-4.15-1-5.37-1.61-1.22-3.84-1-4.5-3.16-.3-1 .32-1.86.8-2.68a19.83 19.83 0 001.14-2.2 38.105 38.105 0 001.8-5 46.068 46.068 0 002-12.17c0-1.08-1.52-1-1.64 0l.07.17z" fill="url(#paint12_linear_82_2)"/><path d="M692.049 317.49l.05.05-.18-.69a.733.733 0 00.19.72l.06.07-.12-.15a.993.993 0 01.09.15l-.08-.19c.025.079.045.159.06.24v-.22.16-.22c.004.05.004.1 0 .15l.09-.2a.586.586 0 01-.09.15l.14-.18-.13.13.18-.14a.384.384 0 01-.15.09l.22-.09h-.15.24l.79.45a1.675 1.675 0 00-.12-.23 3.446 3.446 0 00-.29-.37l-.18-.14a.72.72 0 00-.34-.11.487.487 0 00-.24 0 .65.65 0 00-.33.11.998.998 0 00-.32.32.65.65 0 00-.11.33.731.731 0 000 .36l.05.12c.037.109.081.216.13.32 0 .07.1.14.15.21l.15.18a.61.61 0 00.29.19c.07.043.149.067.23.07.118.03.242.03.36 0 .107-.034.211-.078.31-.13a1.57 1.57 0 00.32-.26 1.88 1.88 0 00.24-.34c.045-.093.082-.19.11-.29a1.783 1.783 0 000-.31c.02-.139.02-.281 0-.42a.98.98 0 00-.15-.37 1.411 1.411 0 00-.57-.54l-.17-.07a.61.61 0 00-.3 0 .408.408 0 00-.19.05.46.46 0 00-.23.16l.69-.18h-.44l-.16.07a.652.652 0 00-.28.33.596.596 0 000 .35.704.704 0 00.18.39v-.08z" fill="url(#paint13_linear_82_2)"/><path d="M690 311.14a.828.828 0 00.59.78c.371.115.769.115 1.14 0l.57-.1c.108-.03.218-.05.33-.06h.1c.383-.03.767-.03 1.15 0 .093-.005.187-.005.28 0h.08c.27.05.54.11.82.14a1.11 1.11 0 001.11-1 1.13 1.13 0 00-.81-1.23 4.654 4.654 0 00-1.44-.13 7.995 7.995 0 00-1.38.16c-.442.09-.871.231-1.28.42l-.29.14c0 .06-.36 0-.06 0h-.1a1.003 1.003 0 00-.33.06l.74.3a.65.65 0 00-1.19.5l-.03.02z" fill="url(#paint14_linear_82_2)"/><path d="M690.91 333.64c.22-.08.451-.13.681-.2.232-.069.47-.122.709-.16h-.23c.114-.01.227-.01.34 0a2.42 2.42 0 00.54-.11.852.852 0 00.62-.81 1.045 1.045 0 00-.12-.43.81.81 0 00-.5-.39 3.705 3.705 0 00-.47-.06 1.992 1.992 0 00-.47.09 3.14 3.14 0 00-.54.18 3.105 3.105 0 00-.66.31c-.19.15-.38.3-.55.46a.68.68 0 00-.1.81.778.778 0 00.241.23.642.642 0 00.509.07v.01z" fill="url(#paint15_linear_82_2)"/><path d="M709.73 317.33a5.179 5.179 0 014.71-3.2 4.8 4.8 0 014.47 3.22 6.35 6.35 0 01-1.1 6 5.819 5.819 0 01-2.289 1.79c-.909.33-1.89.409-2.841.23a1 1 0 00-.52 1.9c1.94 1.06 4.461.08 6.051-1.17a9.002 9.002 0 003.219-6 7.423 7.423 0 00-2.089-6.12 6.81 6.81 0 00-6.051-1.76 6.397 6.397 0 00-4.79 4.52c-.2.71.91 1.23 1.23.52v.07z" fill="url(#paint16_linear_82_2)"/><path d="M714.91 318.19c-.248.061-.482.17-.69.32a3.88 3.88 0 00-1.08 1.07 3.148 3.148 0 00-.37.7.871.871 0 00.08.65c.111.187.29.324.5.38.219.06.453.031.65-.08l.17-.13a.917.917 0 00.21-.37l-.08.2c.12-.288.275-.56.46-.81l-.13.17c.174-.219.372-.417.59-.59l-.16.12.21-.15c.114-.078.221-.165.32-.26l.11-.14a.499.499 0 00.08-.27.598.598 0 00-.08-.45.725.725 0 00-.346-.296.721.721 0 00-.454-.034l.01-.03z" fill="url(#paint17_linear_82_2)"/><path d="M709.619 316.26c-2.43-3.3-2-8.19-4.73-11.22-.77-.85-1.74-1.49-2.45-2.39-1.54-2-1.49-4.69-1.38-7.19a45.812 45.812 0 01-10.27 6.12 8.515 8.515 0 01-3.58.88 3.22 3.22 0 01-2.93-1.91 1.992 1.992 0 01-.106-.899 1.993 1.993 0 011.806-1.771 4.569 4.569 0 01-3 1.8c-2.36.62-5.22 1-6.91-.75a4.295 4.295 0 01-.53-4.84 6.24 6.24 0 014-3c-.77.21-1.94.18-2-.63a1.314 1.314 0 01.54-1c3.13-2.89 7.68-3.62 11.94-3.68a51.122 51.122 0 018.65.61 9.297 9.297 0 002.4.19 39.358 39.358 0 0124.4 6c4.65 3 8.41 8 8.45 13.55a25.14 25.14 0 01-.95 6 419.45 419.45 0 01-4.62 17.15c-.33 1.12-.77 2.37-1.83 2.85-.787.27-1.642.27-2.43 0-3.16-.74-5.72-3.52-8.27-5.53 3-1.44 5-2.87 5.63-6.16a7.997 7.997 0 00-4-8.46c-3-1.47-5.81-.69-7.07 2.4" fill="url(#paint18_linear_82_2)"/><path d="M710.19 315.93c-1.93-3.08-1.8-6.92-3.57-10.06-1-1.72-2.8-2.68-3.78-4.35-.98-1.67-.91-4.06-.82-6.06 0-.92-1-1.14-1.63-.67a47.91 47.91 0 01-8.24 5.17c-1.47.72-3.24 1.71-4.94 1.59a2.612 2.612 0 01-1.77-.8c-.46-.59-.45-1.86.54-1.94l-.81-1.4c-.73 1.14-2.48 1.36-3.71 1.59a5.996 5.996 0 01-4.14-.31 3.08 3.08 0 01-1.13-3.69 5.133 5.133 0 013.62-2.95 1.012 1.012 0 00.71-1.24 1.01 1.01 0 00-1.24-.71c-.2 0-.69.18-.87 0 .38.3.83-.34 1.07-.52a11.075 11.075 0 012-1.18 16.445 16.445 0 014.56-1.32c3.412-.45 6.868-.45 10.28 0a29.33 29.33 0 005.19.48 37.55 37.55 0 0114.39 1.66c5.92 1.84 12.08 5.06 15.21 10.65a13.364 13.364 0 011.43 9.17c-.68 3.66-1.75 7.28-2.71 10.88-.547 2.06-1.117 4.12-1.71 6.18-.3 1.06-.58 2.13-.92 3.18-.23.7-.51 1.65-1.32 1.86-1.67.45-3.83-1-5.09-1.91-1.46-1-2.77-2.29-4.18-3.4l-.22 1.67c2.27-1.12 4.47-2.51 5.52-4.91a9.354 9.354 0 00-.22-7.76c-2.35-4.87-9.63-6.71-12.15-1-.54 1.25 1.29 2.33 1.84 1.08 2-4.63 7.47-2.16 8.79 1.69a7.114 7.114 0 01-.39 5.66c-1 1.7-2.77 2.61-4.46 3.42a1.06 1.06 0 00-.21 1.66c2.74 2.22 5.34 5.12 8.93 5.9 1.74.38 3.45.12 4.49-1.46s1.38-3.75 1.89-5.55a305.43 305.43 0 003.67-13.83c1-3.89 1.47-7.69-.08-11.51-2.82-7-9.74-11.05-16.56-13.36a41.122 41.122 0 00-11.48-2.12c-1.93-.08-3.9.26-5.82.14-2.32-.16-4.61-.65-7-.75-4.22-.2-8.69 0-12.57 1.78-1.37.64-4 2-4 3.71s1.93 2 3.26 1.73l-.53-1.95a7.206 7.206 0 00-4.9 4 5.193 5.193 0 001.19 5.73c1.56 1.39 3.75 1.47 5.71 1.17 1.96-.3 4.35-.87 5.5-2.69a.938.938 0 00.005-.931.925.925 0 00-.805-.469 3.003 3.003 0 00-2.66 3.55c.44 2 2.67 3 4.58 2.84 2.48-.21 5-1.66 7.15-2.81a46.192 46.192 0 006.69-4.39l-1.63-.68a14.38 14.38 0 00.63 6.12c.84 2.09 2.77 3 4 4.76 2.23 3.13 2 7.31 4.41 10.38.46.59 1.42-.17 1-.79l.01.07z" fill="url(#paint19_linear_82_2)"/><path d="M703.379 351.64c-.15.29-.47-.09-.26.32.091.145.195.283.31.41.2.26.4.52.59.79.4.527.79 1.057 1.17 1.59.8 1.1 1.56 2.23 2.28 3.38.72 1.15 1.38 2.26 2 3.41.62 1.15 1.21 2.45 1.89 3.62.54.94 2.24.31 1.81-.77a33.111 33.111 0 00-2.41-4.61c-.86-1.45-1.77-2.88-2.74-4.26-.97-1.38-2-2.73-3.07-4-.45-.53-1-1.28-1.73-1.31a1.001 1.001 0 00-1 1.29.665.665 0 00.544.462.653.653 0 00.646-.302l-.03-.02z" fill="url(#paint20_linear_82_2)"/><path d="M723.8 330.39c1.34 2.15 2.73 4.26 4.16 6.35l2.16 3.13a24.061 24.061 0 002.28 3 .799.799 0 001.125.125.8.8 0 00.125-1.125 24.413 24.413 0 00-2.16-3.13c-.72-1-1.43-2-2.15-3l-4.34-6.06c-.52-.72-1.7-.07-1.21.71h.01z" fill="url(#paint21_linear_82_2)"/><path d="M735.099 339.8c-6.4 9.65-14 19.22-23.75 25.4-.57-1-.83-1.93-1.41-3-1 .68-1.39 1.58-2.36 2.25-1.16.8-2.4 1.72-2.73 3.09a5.82 5.82 0 00.3 2.94l1.38 4.88c.18.64.43 1.36 1 1.61 1.11.46 2-1 2.4-2.11l2-6.28 3.93 7.23c.88 1.64 2.05 3.47 3.9 3.66 1.7.18 3.16-1.13 4.37-2.34 6.78-6.81 13.61-13.69 18.9-21.71 2.17-3.29 4.11-6.86 4.58-10.77a2.725 2.725 0 00-.2-1.72 2.916 2.916 0 00-1.08-.95l-5.92-3.72a11.821 11.821 0 00-4.1-1.88 6.115 6.115 0 00-5 2.1c0-.25-.14.21 0 0 0 .25.4.55.49.73.32.63 1.68 2.45 2 3.08" fill="url(#paint22_linear_82_2)"/><path d="M750 350.82c16.18-1 31.52 6.75 43.6 17 13 11 23.08 24.87 34.25 37.62 5.36 6.13 11.49 11.82 15.65 18.9a36.437 36.437 0 014.11 24.37c-1.36 8.44-5 16.29-9.44 23.53a174.453 174.453 0 01-15.29 20.89c-11.41 13.63-24.16 26.1-36.6 38.77l-4.79 4.87c-1 1 .56 2.59 1.57 1.57 12.92-13 26.19-25.85 38.27-39.7a205.478 205.478 0 0016.31-21.09c4.77-7.16 9-14.86 11.25-23.22s2.49-17.31-.51-25.4c-2.89-7.8-8.58-14-14.13-20-11.86-12.85-22.08-27.32-35-39.14-11.87-10.85-26.81-19.76-43.25-20.48a47.68 47.68 0 00-6 .12c-.92.08-.94 1.52 0 1.47v-.08z" fill="url(#paint23_linear_82_2)"/><path d="M748.671 376.42c-.11 11.23 9.77 19.23 17.25 26.2a5282.992 5282.992 0 0029.89 27.65l7.32 6.71c1.15 1.06 2.32 2 1.6 3.66-.72 1.66-1.58 3-2.36 4.45-3.1 5.807-6.223 11.6-9.37 17.38a838.775 838.775 0 01-9.77 17.44c-3.12 5.42-6.21 10.91-9.8 16a52.06 52.06 0 01-6.48 7.73c-2.24 2.16-4.79 4-6.7 6.47-2.87 3.72-3.89 10.36 1 13a1.212 1.212 0 001.566-.479 1.213 1.213 0 00-.346-1.601 5.2 5.2 0 01-2.1-5.26c.32-2.52 2-4.52 3.78-6.21 2-1.93 4.2-3.65 6.11-5.68a60.566 60.566 0 005.49-6.87c3.49-5 6.5-10.37 9.55-15.66a813.185 813.185 0 009.52-17c3.107-5.706 6.19-11.43 9.25-17.17l2.18-4.09c.7-1.32 1.48-2.75 1.19-4.3a5.542 5.542 0 00-1.63-2.74c-1.22-1.23-2.57-2.36-3.85-3.53-9.78-8.94-19.593-17.84-29.44-26.7-5-4.51-10.28-8.82-14.88-13.75-4-4.35-7.54-9.54-7.62-15.68a.673.673 0 00-1.144-.474.67.67 0 00-.196.474l-.01.03z" fill="url(#paint24_linear_82_2)"/><path d="M761.66 521.54c-5.83 3.57-12.31 7.83-14.31 14.79a.998.998 0 001.374.927c.203-.082.374-.229.486-.417 2.19-6.33 7.88-10.45 13.09-14.21.65-.46.07-1.52-.64-1.09z" fill="url(#paint25_linear_82_2)"/><path d="M756.22 540.81c.387 3.538.424 7.105.11 10.65a64.685 64.685 0 01-2.18 10.59.999.999 0 00.733.932.999.999 0 001.107-.422 40.372 40.372 0 002.11-10.9 46.885 46.885 0 00-.46-11c-.13-.8-1.5-.62-1.42.19v-.04z" fill="url(#paint26_linear_82_2)"/><path d="M764.63 563.29a16.28 16.28 0 002.65-9.27c0-1-1.68-1-1.64 0a15.835 15.835 0 01-2.19 8.58c-.45.76.7 1.42 1.18.69z" fill="url(#paint27_linear_82_2)"/><path d="M774.22 560.69c.551-3.044.789-6.137.71-9.23 0-1.09-1.75-1.09-1.7 0 .151 2.958.03 5.924-.36 8.86a.731.731 0 00.49.86.7.7 0 00.86-.49z" fill="url(#paint28_linear_82_2)"/><path d="M781.11 558.63a28.793 28.793 0 002-13c-.18-2.28-.73-4.51-.87-6.78a11.8 11.8 0 01.31-3.74c.353-.972.608-1.977.76-3 .12-2-1.24-3.46-2.48-4.83a27.37 27.37 0 00-4.309-3.8 25.455 25.455 0 00-10.821-4.58c-1.35-.18-2 1.8-.58 2.11A28.006 28.006 0 01775 525a24.723 24.723 0 014.271 3.63 10.79 10.79 0 011.799 2.25c.53 1 .081 2.13-.229 3.16-1.23 4-.001 7.9.449 11.91a27.476 27.476 0 01-1.47 12.36c-.31.85 1.001 1.18 1.331.37l-.041-.05z" fill="url(#paint29_linear_82_2)"/><path d="M682.951 507.166l-16.698 27.228a3.51 3.51 0 001.157 4.827l3.64 2.232a3.51 3.51 0 004.827-1.157l16.698-27.228a3.51 3.51 0 00-1.157-4.827l-3.64-2.232a3.51 3.51 0 00-4.827 1.157z" fill="url(#paint30_linear_82_2)"/><path d="M673.934 536.267l14.167-23.102 17.331 10.628-14.168 23.102-17.33-10.628z" fill="url(#paint31_linear_82_2)"/><path d="M444.27 375l-4.07 6.63a3.082 3.082 0 00.43 3.77l15.91 16.11a3.064 3.064 0 002.11.91l9.57.26a3.06 3.06 0 002.7-1.47l4.73-7.7a3.055 3.055 0 00.08-3.07l-4.57-8.44a2.996 2.996 0 00-1.76-1.47l-21.58-6.87a3.066 3.066 0 00-3.55 1.34z" fill="url(#paint32_linear_82_2)"/><path d="M808 573.59L781 557a16.715 16.715 0 01-9.33 9.54 13.995 13.995 0 01-14.71-2.94 4.618 4.618 0 01-1.09-1.54 5.63 5.63 0 01-.14-2.58c.527-5.413 1.06-10.823 1.6-16.23l-.16-.87-40.75-25a18.32 18.32 0 00-20.331.762 18.325 18.325 0 00-4.859 5.238l-6.69 10.91a18.322 18.322 0 006 25.2l91.65 56.2a18.322 18.322 0 0025.19-6l6.7-10.92a18.321 18.321 0 00-6.08-25.18z" fill="url(#paint33_linear_82_2)"/><path d="M697.72 549.79l9.1 5.58 21.86 13.41L755.14 585l23 14.09 7.54 4.62c1.18.72 2.34 1.56 3.57 2.19l.16.09c1 .64 2-1 .94-1.61l-9.1-5.58-21.86-13.41-26.49-16.22-23-14.09-7.54-4.62c-1.17-.72-2.34-1.56-3.57-2.19l-.16-.1c-1-.63-2 1-.94 1.62h.03z" fill="url(#paint34_linear_82_2)"/><path d="M703.66 539.679l9.1 5.581 21.85 13.399 26.46 16.231L784 589l7.54 4.619c1.17.73 2.34 1.571 3.57 2.201l.16.089c1 .63 2-1 .94-1.61l-9.1-5.58-21.86-13.409-26.46-16.22-23-14.09-7.54-4.62c-1.18-.72-2.34-1.56-3.57-2.19l-.16-.1c-1-.63-2 1-.94 1.62l.08-.031z" fill="url(#paint35_linear_82_2)"/><path d="M773.65 568.85l24.159 14.81 3.43 2.11c1 .63 2-1 1-1.62l-24.24-14.81-3.44-2.11c-1-.63-2 1-.94 1.62h.031z" fill="url(#paint36_linear_82_2)"/><path d="M709.589 529.56l15.27 9.37 24.14 14.79 5.62 3.44a.935.935 0 001.275-.335.93.93 0 00-.335-1.275l-15.27-9.37-24.12-14.79-5.63-3.39c-1-.63-2 1-.95 1.61v-.05z" fill="url(#paint37_linear_82_2)"/><path d="M698.37 385.26a72.061 72.061 0 003 35.05c3.92 11.22 11.31 21.72 11.43 34a24.418 24.418 0 01-1.35 8.34c-.9 2.58-2.17 5.14-2.2 7.93a7.675 7.675 0 00.72 3.34c.55 1.19 1.69 2.25 1.83 3.6.14 1.35-.53 2.66-.54 4a7.065 7.065 0 00.76 3.13c2.2 4.4 7.77 6.05 12.22 6.81a65.647 65.647 0 0018 .12 196.594 196.594 0 0040.92-8.7c1.49-.49.86-2.85-.65-2.37a204.413 204.413 0 01-35.06 7.93 95.86 95.86 0 01-17.83 1.1c-4.75-.26-10.81-.95-14.31-4.57a5.382 5.382 0 01-1.45-2.49c-.3-1.3.19-2.54.36-3.82a5.582 5.582 0 00-.5-3.29c-.59-1.22-1.56-2.22-1.88-3.56-.59-2.59.76-5.35 1.61-7.73a26.947 26.947 0 001.58-7.79c.56-11.54-5.59-21.77-10.06-32a70.878 70.878 0 01-5.33-38.67c.13-.86-1.17-1.24-1.32-.37l.05.01z" fill="url(#paint38_linear_82_2)"/><path d="M800.999 434.62c.27 1.85.45 3.71.58 5.58.06.93.12 1.86.15 2.79 0 .939.051 1.877.15 2.81a.839.839 0 00.94.61.869.869 0 00.75-.84c.054-.93.027-1.864-.08-2.79-.07-1-.16-1.94-.29-2.9a61.308 61.308 0 00-1-5.6c-.17-.81-1.34-.45-1.22.34h.02z" fill="url(#paint39_linear_82_2)"/><path d="M682.392 626.47l4.16-3.14a.714.714 0 00.192-1.038.704.704 0 00-.508-.276.695.695 0 00-.544.194l-4.09 3.24a.647.647 0 00.356 1.055c.146.032.3.013.434-.055v.02zm-94.001 144.19l6.14.23a30.919 30.919 0 015.36.35 3.996 3.996 0 013.29 2.78 33.998 33.998 0 001.17 4.09c1.31 2.8 4.3 3.12 7.06 3.09 1.84 0 3.67 0 5.51.16 1 .08 2 .2 3 .35.985.228 1.989.368 3 .42.76 0 1.19-1.16.42-1.52a18 18 0 00-5.51-1.06 49.843 49.843 0 00-5.61-.31c-1.57 0-3.48.25-4.9-.57-1.42-.82-1.64-2.52-2-4-.75-2.93-2.37-4.76-5.45-5.21a36.19 36.19 0 00-5.1-.16h-6.39a.66.66 0 100 1.32l.01.04zm346.29-241.19c6.65 2.08 11.43 7.43 15.66 12.68.597.61 1.13 1.28 1.59 2 .47.95-.15 1.62-.39 2.55a6.124 6.124 0 00.043 2.39c.172.785.497 1.53.957 2.19.57 1 1.63 3 3 2.8a1.3 1.3 0 00.51-2.38c-.9-.68-2 .79-1.19 1.55l.12.11-.29-.7.21-.43.77-.1c-.55-.13-1.24-1.55-1.52-2a4.532 4.532 0 01-.77-2.35c0-1.35 1-2.39.54-3.79a12.003 12.003 0 00-2.42-3.23c-.92-1.09-1.85-2.16-2.81-3.21-3.78-4.1-8.16-7.79-13.61-9.37a.665.665 0 00-.804.471.667.667 0 00.444.819h-.04zm-83.68 53.72c.51 5.36 1.48 10.72 2.25 16 .14 1 1.68.58 1.52-.42-.81-5.26-1.44-10.59-2.51-15.8-.14-.71-1.33-.56-1.26.17v.05zm5.59 2.44a22.817 22.817 0 011.47 6.42.766.766 0 00.226.524c.139.14.327.221.524.226a.75.75 0 00.75-.75 24.413 24.413 0 00-1.68-6.78.673.673 0 00-1.239-.161.665.665 0 00-.051.521z" fill="#fff"/><path d="M678.581 536.89c3.85-6.06 7.43-12.29 10.8-18.62.42-.79-.79-1.49-1.19-.7-3.3 6.38-6.91 12.59-10.76 18.65-.46.72.69 1.39 1.15.67z" fill="url(#paint40_linear_82_2)"/><path d="M654.661 506.69a10.654 10.654 0 0010.44.9 9.618 9.618 0 002.16-1.33c1-.81 1.74-1.74 3.12-1.87a32.75 32.75 0 006.73-1.05c4.38-1.36 8.34-3.74 12.23-6.12 3.89-2.38 8-4.91 11.86-7.63a67.032 67.032 0 0011.7-10.28c1-1.08-.63-2.67-1.58-1.58-5.89 6.69-13.35 11.59-20.87 16.24a82.338 82.338 0 01-11.5 6.4 25.323 25.323 0 01-6.44 1.77c-2 .25-3.72.14-5.34 1.54-1.62 1.4-3.22 2.67-5.54 3a9.521 9.521 0 01-6.29-1.17c-.76-.45-1.37.67-.68 1.16v.02z" fill="url(#paint41_linear_82_2)"/><path d="M651.189 508.91c-4.57 1-9.06 2.16-13.7 2.86-4.26.64-9 1.46-13.32.56-4.32-.9-6.53-4.09-8.6-7.6-1.193-2-2.343-4.05-3.45-6.15-1-2-2.11-4-1.34-6.23 1.58-4.69 5.23-8.43 8.39-12.07a.937.937 0 000-1.33.94.94 0 00-1.33 0 31.391 31.391 0 00-4.78 5.31 40.232 40.232 0 00-3.82 6 7.777 7.777 0 00-.52 6.45 46.464 46.464 0 003.47 6.72c2.11 3.75 4.33 8.1 8.38 10.08 4.21 2.07 9.19 1.39 13.67.8a70.72 70.72 0 0017.29-4.17.64.64 0 00.149-1.178.642.642 0 00-.489-.062v.01z" fill="url(#paint42_linear_82_2)"/><path d="M624.69 483.49a14.076 14.076 0 00-5 5.81.838.838 0 00-.136.668.85.85 0 001.596.192c.247-.555.531-1.093.85-1.61.308-.487.642-.958 1-1.41a18.843 18.843 0 012.53-2.6c.57-.5-.17-1.46-.82-1.05h-.02z" fill="url(#paint43_linear_82_2)"/><path d="M625.08 495.15a8.407 8.407 0 014.77-5.4c.77-.34.22-1.68-.58-1.37a9.401 9.401 0 00-3.519 2.546 9.398 9.398 0 00-2.001 3.854.692.692 0 00.48.85.69.69 0 00.85-.48z" fill="url(#paint44_linear_82_2)"/><path d="M630.139 500.35a11.41 11.41 0 014.19-6.2.908.908 0 00.31-1.21.889.889 0 00-1.21-.32 11.8 11.8 0 00-3 3.3 12.017 12.017 0 00-1.58 4.07.702.702 0 00.48.85.688.688 0 00.85-.49h-.04z" fill="url(#paint45_linear_82_2)"/><path d="M616.69 481.78L471.27 392.6l-3.09 5 144.49 88.6a29.358 29.358 0 014.02-4.42z" fill="url(#paint46_linear_82_2)"/><path d="M644.999 499.16c-2.61.55-4.66 1.55-5 3.28a2.973 2.973 0 00-.06.58l39.45 24.19 3.09-5-37.48-23.05z" fill="url(#paint47_linear_82_2)"/><path d="M630.871 484.84c-.83-.11-.89-1.26-.53-1.8a4.227 4.227 0 012.43-1.38 18.091 18.091 0 016.66-.71 5.548 5.548 0 014.57 2.89 9.88 9.88 0 01.78 2.67c.254.907.335 1.853.24 2.79a1.07 1.07 0 001.94.81c.85-1.18.36-2.91.12-4.23a10.37 10.37 0 00-1.42-3.89c-1.7-2.54-4.69-3.4-7.61-3.23a26.019 26.019 0 00-4.88.8 8.194 8.194 0 00-3.58 1.7 3.133 3.133 0 00-1 3.18 2.241 2.241 0 002.26 1.7.655.655 0 00.46-.19.655.655 0 000-.92.65.65 0 00-.46-.19h.02z" fill="url(#paint48_linear_82_2)"/><path d="M713.73 387.69v-.05l.08.19a.602.602 0 010-.12v.21-.14.21a.855.855 0 010-.16l-.08.19c.023-.052.05-.102.08-.15l-.12.17c.046-.06.1-.114.16-.16l-.17.13c.071-.056.148-.103.23-.14l-.199.09a.86.86 0 01.229-.06h-.229.209-.24.151l-.211-.09.221.13-.181-.14c.064.053.122.113.171.18l-.141-.19c.082.107.15.225.2.35l-.09-.23c.056.139.096.283.12.43v-.25c.021.17.021.341 0 .51v-.26c-.017.14-.051.278-.1.41l.1-.23-.12.21.15-.2a.762.762 0 01-.13.13l.201-.15a.98.98 0 01-.171.1l.241-.1a.82.82 0 01-.211.06h.26-.28.26l-.25-.07.24.1a1.019 1.019 0 01-.22-.13l.201.16a1.217 1.217 0 01-.161-.16l.161.21a1.377 1.377 0 01-.151-.26l.1.24c-.04-.1-.07-.204-.09-.31v.27a1.34 1.34 0 010-.4v.27c.023-.143.06-.284.11-.42l-.099.25v-.09c.131-.248.17-.535.109-.81a1.058 1.058 0 00-1.289-.73 1.002 1.002 0 00-.621.48 2.697 2.697 0 00-.23.67 2.484 2.484 0 000 .71c.013.152.037.302.07.45.047.147.104.291.17.43.031.067.068.13.111.19.085.126.182.243.289.35.366.34.842.535 1.34.55a1.788 1.788 0 001.34-.51c.359-.402.558-.921.56-1.46a2.56 2.56 0 00-.15-1 2.39 2.39 0 00-.27-.56 2.208 2.208 0 00-.58-.56 1.66 1.66 0 00-1.32-.22 1.76 1.76 0 00-1.089.81 1.376 1.376 0 000 1.45c.11.171.276.298.469.36a.787.787 0 00.6-.08.787.787 0 00.28-1.07l-.02.01z" fill="url(#paint49_linear_82_2)"/><path d="M717.54 405.13l.07.18v-.12.21a.33.33 0 010-.14v.21a.523.523 0 01.05-.16l-.09.2c.026-.052.056-.103.09-.15l-.13.16c.052-.058.109-.112.17-.16l-.17.13c.071-.053.148-.097.23-.13l-.2.08a.877.877 0 01.23-.06h-.24.21-.23.15l-.21-.09.22.13-.19-.14c.065.055.125.115.18.18l-.14-.19c.08.109.147.226.2.35l-.09-.23c.051.14.088.284.11.43v-.25c.02.17.02.341 0 .51v-.26a1.86 1.86 0 01-.1.41l.09-.23a1.066 1.066 0 01-.12.21l.16-.2a.8.8 0 01-.13.13l.2-.15a.998.998 0 01-.17.1l.24-.1a.764.764 0 01-.22.06h.27a.66.66 0 01-.28 0h.26a.99.99 0 01-.25-.07l.24.1a.94.94 0 01-.22-.12l.2.15a.609.609 0 01-.16-.16l.15.21a1.372 1.372 0 01-.15-.26l.11.25a1.313 1.313 0 01-.09-.32v.27a2.67 2.67 0 010-.4v.27c.023-.143.06-.284.11-.42l-.1.25a.451.451 0 010-.09 1.118 1.118 0 00-.072-1.173.993.993 0 00-1.108-.357.953.953 0 00-.62.48 2.75 2.75 0 00-.23.66 2.482 2.482 0 000 .72c.014.152.037.302.07.45.047.144.103.285.17.42a1.948 1.948 0 00.4.54c.365.342.841.541 1.34.56a1.828 1.828 0 001.34-.52 2.21 2.21 0 00.56-1.45c.016-.34-.035-.68-.15-1a2.86 2.86 0 00-.27-.56 2.207 2.207 0 00-.58-.56 1.669 1.669 0 00-1.32-.22 1.767 1.767 0 00-1.09.82 1.368 1.368 0 000 1.44.882.882 0 00.47.36.781.781 0 00.6-.08.809.809 0 00.28-1.07l-.05-.04z" fill="url(#paint50_linear_82_2)"/><path d="M721.35 422.58v-.05l.08.19v-.12.21a.379.379 0 010-.15v.22a1.206 1.206 0 010-.17l-.08.2.09-.15-.13.17a.722.722 0 01.17-.17l-.17.13a.886.886 0 01.23-.13l-.21.08c.076-.024.153-.044.23-.06h-.23.21-.23l.15.05-.22-.09c.084.03.162.074.23.13l-.19-.15c.065.055.126.115.18.18l-.15-.18c.089.101.16.216.21.34l-.1-.22c.06.137.1.282.12.43v-.26c.02.17.02.341 0 .51v-.25a1.343 1.343 0 01-.1.4l.1-.23a.674.674 0 01-.12.21l.15-.2a.76.76 0 01-.12.14l.19-.16-.16.1.23-.1a.64.64 0 01-.21.06h.27c-.096.01-.193.01-.29 0h.27a.714.714 0 01-.25-.07l.24.1a.989.989 0 01-.23-.12l.21.15a.807.807 0 01-.17-.15l.16.2a1.315 1.315 0 01-.15-.25l.1.24a1.212 1.212 0 01-.08-.32v.27a2.67 2.67 0 010-.4v.28c.017-.147.054-.292.11-.43l-.11.25.05-.09c.132-.245.168-.53.1-.8a1.08 1.08 0 00-.48-.63 1.063 1.063 0 00-1.159.077 1.025 1.025 0 00-.261.303 2.697 2.697 0 00-.23.67 2.414 2.414 0 000 .71c.009.152.032.303.07.45.042.149.099.293.17.43.03.065.067.125.11.18.082.129.176.25.28.36.371.338.85.532 1.35.55a1.78 1.78 0 001.33-.52c.359-.398.562-.913.57-1.45a2.641 2.641 0 00-.15-1 2.848 2.848 0 00-.28-.55 2.098 2.098 0 00-.58-.57 1.66 1.66 0 00-1.32-.22 1.822 1.822 0 00-1.08.82 1.368 1.368 0 000 1.44.783.783 0 00.922.346.775.775 0 00.428-1.126l-.07-.04z" fill="url(#paint51_linear_82_2)"/><path d="M725.151 440l.08.19a.27.27 0 010-.12v.21-.14.21a.691.691 0 01.05-.16l-.08.19a.604.604 0 01.09-.15l-.13.17c.048-.061.102-.118.16-.17l-.17.13.23-.13-.2.09c.074-.029.151-.049.23-.06h-.23.21-.24.16l-.22-.09c.078.034.152.078.22.13l-.18-.14c.065.055.125.115.18.18l-.15-.19c.079.107.149.221.21.34l-.1-.22c.06.137.1.282.12.43v-.25c.025.169.025.341 0 .51v-.26a1.831 1.831 0 01-.1.4l.1-.23a.743.743 0 01-.12.21l.15-.19a.8.8 0 01-.13.13l.2-.16a.532.532 0 01-.16.1l.23-.1a.813.813 0 01-.21.06h.26a1.31 1.31 0 01-.28 0h.27a.971.971 0 01-.25-.06l.24.1a1.678 1.678 0 01-.23-.13l.2.16a1.21 1.21 0 01-.16-.16l.16.2a1.265 1.265 0 01-.15-.25l.1.24a1.6 1.6 0 01-.09-.32v.28a1.408 1.408 0 010-.41v.28c.018-.145.059-.287.12-.42l-.11.24a.339.339 0 000-.09.993.993 0 00.125-.791 1.007 1.007 0 00-.495-.629 1.004 1.004 0 00-.8-.11 1.05 1.05 0 00-.63.48 2.646 2.646 0 00-.22.67 2.414 2.414 0 000 .71c.017.152.044.302.08.45.042.149.099.293.17.43a2.052 2.052 0 00.39.54 2.12 2.12 0 001.35.55 1.83 1.83 0 00.717-.119c.228-.088.437-.221.613-.391.359-.401.558-.921.56-1.46a2.277 2.277 0 00-.15-1 2.095 2.095 0 00-.85-1.13 1.707 1.707 0 00-1.32-.22 1.841 1.841 0 00-1.09.82 1.406 1.406 0 000 1.45.81.81 0 00.46.35.777.777 0 00.6-.07.801.801 0 00.28-1.07l-.07-.04z" fill="url(#paint52_linear_82_2)"/><path d="M729 457.46l.08.19a.601.601 0 010-.12v.21-.14.21a.713.713 0 010-.16l-.08.19a.636.636 0 01.09-.15l-.13.17c.046-.06.1-.114.16-.16l-.17.13c.071-.056.148-.103.23-.14l-.2.09a.917.917 0 01.23-.06h-.23.21-.24.15l-.21-.09.22.13-.18-.14c.064.053.121.114.17.18l-.14-.19c.082.108.149.225.2.35l-.09-.23c.055.139.095.283.12.43v-.25c.02.17.02.341 0 .51v-.26a1.86 1.86 0 01-.1.41l.1-.24-.12.22.15-.2a.762.762 0 01-.13.13l.2-.15a.936.936 0 01-.17.1l.24-.1a1.566 1.566 0 01-.21.06h.26a1.31 1.31 0 01-.28 0h.26l-.25-.07.24.1a.958.958 0 01-.22-.13l.2.16-.16-.16.16.21a1.342 1.342 0 01-.15-.26l.1.24c-.04-.1-.071-.203-.09-.31v.27a1.34 1.34 0 010-.4v.27c.023-.143.059-.284.11-.42l-.1.25v-.09c.13-.248.169-.535.11-.81a1.1 1.1 0 00-.48-.62 1.095 1.095 0 00-.81-.11 1.013 1.013 0 00-.62.48 3.122 3.122 0 00-.23.67c-.03.236-.03.475 0 .71.013.152.036.302.07.45.046.148.103.291.17.43.031.067.068.131.11.19.086.126.183.243.29.35.371.338.849.532 1.35.55a1.787 1.787 0 001.33-.51c.358-.402.558-.921.56-1.46a2.74 2.74 0 00-.42-1.59 2.223 2.223 0 00-.58-.56 1.705 1.705 0 00-1.32-.23 1.814 1.814 0 00-1.09.82 1.406 1.406 0 000 1.45c.11.171.277.298.47.36.203.05.417.022.6-.08a.792.792 0 00.28-1.07l-.02-.01z" fill="url(#paint53_linear_82_2)"/><path d="M732.77 474.9l.08.18a.601.601 0 010-.12v.21a.33.33 0 010-.14v.21a.523.523 0 01.05-.16l-.09.2c.026-.052.056-.103.09-.15l-.13.16c.052-.058.109-.112.17-.16l-.17.13a.794.794 0 01.23-.13l-.2.08a.877.877 0 01.23-.06h-.23.2-.23.15l-.21-.09.22.13-.19-.14c.07.05.131.111.18.18l-.14-.19c.082.107.15.225.2.35l-.09-.23c.051.14.088.284.11.43v-.25c.02.17.02.341 0 .51v-.26a1.86 1.86 0 01-.1.41l.09-.23a1.066 1.066 0 01-.12.21l.16-.2a.762.762 0 01-.13.13l.2-.15a.998.998 0 01-.17.1l.24-.1a.842.842 0 01-.21.06h.26a.66.66 0 01-.28 0h.26l-.25-.07.24.1a.73.73 0 01-.22-.13l.2.16a1.273 1.273 0 01-.16-.16l.15.21a1.428 1.428 0 01-.15-.26l.11.25a1.313 1.313 0 01-.09-.32v.27a1.34 1.34 0 010-.4v.27c.023-.143.06-.284.11-.42l-.1.25a.451.451 0 010-.09 1.14 1.14 0 00.1-.81 1 1 0 00-1.28-.72.947.947 0 00-.62.48 2.75 2.75 0 00-.23.66 2.484 2.484 0 000 .71c.014.155.037.308.07.46.048.144.105.284.17.42a1.948 1.948 0 00.4.54c.366.34.841.539 1.34.56a1.859 1.859 0 001.34-.52 2.21 2.21 0 00.56-1.45c.016-.34-.035-.68-.15-1a2.39 2.39 0 00-.27-.56 2.207 2.207 0 00-.58-.56 1.669 1.669 0 00-1.32-.22 1.79 1.79 0 00-1.09.81 1.385 1.385 0 000 1.45.882.882 0 00.47.36.781.781 0 00.6-.08.806.806 0 00.28-1.07l-.06-.04z" fill="url(#paint54_linear_82_2)"/><defs><linearGradient id="paint0_linear_82_2" x1="676.13" y1="366.937" x2="676.13" y2="483.027" gradientUnits="userSpaceOnUse"><stop stop-color="#144794"/><stop offset="1" stop-color="#06162E"/></linearGradient><linearGradient id="paint1_linear_82_2" x1="869.433" y1="503.61" x2="869.433" y2="662.252" gradientUnits="userSpaceOnUse"><stop stop-color="#144794"/><stop offset="1" stop-color="#06162E"/></linearGradient><linearGradient id="paint2_linear_82_2" x1="869.633" y1="502.471" x2="869.633" y2="663.311" gradientUnits="userSpaceOnUse"><stop stop-color="#144794"/><stop offset="1" stop-color="#06162E"/></linearGradient><linearGradient id="paint3_linear_82_2" x1="672.876" y1="481.89" x2="672.876" y2="802.43" gradientUnits="userSpaceOnUse"><stop stop-color="#144794"/><stop offset="1" stop-color="#06162E"/></linearGradient><linearGradient id="paint4_linear_82_2" x1="439.994" y1="197.6" x2="439.994" y2="545.57" gradientUnits="userSpaceOnUse"><stop stop-color="#144794"/><stop offset="1" stop-color="#06162E"/></linearGradient><linearGradient id="paint5_linear_82_2" x1="439.948" y1="195.75" x2="439.948" y2="547.43" gradientUnits="userSpaceOnUse"><stop stop-color="#144794"/><stop offset="1" stop-color="#06162E"/></linearGradient><linearGradient id="paint6_linear_82_2" x1="439.871" y1="319.958" x2="439.871" y2="423.079" gradientUnits="userSpaceOnUse"><stop stop-color="#144794"/><stop offset="1" stop-color="#06162E"/></linearGradient><linearGradient id="paint7_linear_82_2" x1="145.175" y1="283.32" x2="145.175" y2="523.68" gradientUnits="userSpaceOnUse"><stop stop-color="#144794"/><stop offset="1" stop-color="#06162E"/></linearGradient><linearGradient id="paint8_linear_82_2" x1="145.151" y1="281.453" x2="145.151" y2="525.49" gradientUnits="userSpaceOnUse"><stop stop-color="#144794"/><stop offset="1" stop-color="#06162E"/></linearGradient><linearGradient id="paint9_linear_82_2" x1="299.18" y1="506.68" x2="299.18" y2="668.889" gradientUnits="userSpaceOnUse"><stop stop-color="#144794"/><stop offset="1" stop-color="#06162E"/></linearGradient><linearGradient id="paint10_linear_82_2" x1="299.2" y1="564.08" x2="299.2" y2="611.52" gradientUnits="userSpaceOnUse"><stop stop-color="#144794"/><stop offset="1" stop-color="#06162E"/></linearGradient><linearGradient id="paint11_linear_82_2" x1="299.184" y1="562.249" x2="299.184" y2="613.45" gradientUnits="userSpaceOnUse"><stop stop-color="#144794"/><stop offset="1" stop-color="#06162E"/></linearGradient><linearGradient id="paint12_linear_82_2" x1="691.148" y1="303.64" x2="691.148" y2="351.961" gradientUnits="userSpaceOnUse"><stop stop-color="#144794"/><stop offset="1" stop-color="#06162E"/></linearGradient><linearGradient id="paint13_linear_82_2" x1="692.495" y1="316.381" x2="692.495" y2="319.153" gradientUnits="userSpaceOnUse"><stop stop-color="#144794"/><stop offset="1" stop-color="#06162E"/></linearGradient><linearGradient id="paint14_linear_82_2" x1="693.09" y1="309.53" x2="693.09" y2="312.006" gradientUnits="userSpaceOnUse"><stop stop-color="#144794"/><stop offset="1" stop-color="#06162E"/></linearGradient><linearGradient id="paint15_linear_82_2" x1="691.82" y1="331.48" x2="691.82" y2="333.654" gradientUnits="userSpaceOnUse"><stop stop-color="#144794"/><stop offset="1" stop-color="#06162E"/></linearGradient><linearGradient id="paint16_linear_82_2" x1="714.981" y1="312.087" x2="714.981" y2="327.721" gradientUnits="userSpaceOnUse"><stop stop-color="#144794"/><stop offset="1" stop-color="#06162E"/></linearGradient><linearGradient id="paint17_linear_82_2" x1="714.267" y1="318.19" x2="714.267" y2="321.341" gradientUnits="userSpaceOnUse"><stop stop-color="#144794"/><stop offset="1" stop-color="#06162E"/></linearGradient><linearGradient id="paint18_linear_82_2" x1="704.472" y1="285.774" x2="704.472" y2="332.333" gradientUnits="userSpaceOnUse"><stop stop-color="#144794"/><stop offset="1" stop-color="#06162E"/></linearGradient><linearGradient id="paint19_linear_82_2" x1="704.512" y1="284.737" x2="704.512" y2="333.395" gradientUnits="userSpaceOnUse"><stop stop-color="#144794"/><stop offset="1" stop-color="#06162E"/></linearGradient><linearGradient id="paint20_linear_82_2" x1="707.707" y1="350.209" x2="707.707" y2="365.618" gradientUnits="userSpaceOnUse"><stop stop-color="#144794"/><stop offset="1" stop-color="#06162E"/></linearGradient><linearGradient id="paint21_linear_82_2" x1="728.75" y1="329.368" x2="728.75" y2="343.17" gradientUnits="userSpaceOnUse"><stop stop-color="#144794"/><stop offset="1" stop-color="#06162E"/></linearGradient><linearGradient id="paint22_linear_82_2" x1="726.223" y1="336.368" x2="726.223" y2="379.487" gradientUnits="userSpaceOnUse"><stop stop-color="#144794"/><stop offset="1" stop-color="#06162E"/></linearGradient><linearGradient id="paint23_linear_82_2" x1="799.954" y1="349.266" x2="799.954" y2="538.668" gradientUnits="userSpaceOnUse"><stop stop-color="#144794"/><stop offset="1" stop-color="#06162E"/></linearGradient><linearGradient id="paint24_linear_82_2" x1="778.086" y1="375.72" x2="778.086" y2="523.229" gradientUnits="userSpaceOnUse"><stop stop-color="#144794"/><stop offset="1" stop-color="#06162E"/></linearGradient><linearGradient id="paint25_linear_82_2" x1="754.966" y1="521.439" x2="754.966" y2="537.33" gradientUnits="userSpaceOnUse"><stop stop-color="#144794"/><stop offset="1" stop-color="#06162E"/></linearGradient><linearGradient id="paint26_linear_82_2" x1="756.193" y1="540.144" x2="756.193" y2="563.018" gradientUnits="userSpaceOnUse"><stop stop-color="#144794"/><stop offset="1" stop-color="#06162E"/></linearGradient><linearGradient id="paint27_linear_82_2" x1="765.316" y1="553.27" x2="765.316" y2="563.607" gradientUnits="userSpaceOnUse"><stop stop-color="#144794"/><stop offset="1" stop-color="#06162E"/></linearGradient><linearGradient id="paint28_linear_82_2" x1="773.898" y1="550.643" x2="773.898" y2="561.205" gradientUnits="userSpaceOnUse"><stop stop-color="#144794"/><stop offset="1" stop-color="#06162E"/></linearGradient><linearGradient id="paint29_linear_82_2" x1="773.82" y1="518.889" x2="773.82" y2="559.145" gradientUnits="userSpaceOnUse"><stop stop-color="#144794"/><stop offset="1" stop-color="#06162E"/></linearGradient><linearGradient id="paint30_linear_82_2" x1="674.602" y1="520.78" x2="684.226" y2="526.682" gradientUnits="userSpaceOnUse"><stop stop-color="#144794"/><stop offset="1" stop-color="#06162E"/></linearGradient><linearGradient id="paint31_linear_82_2" x1="681.017" y1="524.716" x2="698.348" y2="535.344" gradientUnits="userSpaceOnUse"><stop stop-color="#144794"/><stop offset="1" stop-color="#06162E"/></linearGradient><linearGradient id="paint32_linear_82_2" x1="457.925" y1="373.518" x2="457.925" y2="402.681" gradientUnits="userSpaceOnUse"><stop stop-color="#144794"/><stop offset="1" stop-color="#06162E"/></linearGradient><linearGradient id="paint33_linear_82_2" x1="749.295" y1="514.665" x2="749.295" y2="618.402" gradientUnits="userSpaceOnUse"><stop stop-color="#144794"/><stop offset="1" stop-color="#06162E"/></linearGradient><linearGradient id="paint34_linear_82_2" x1="744.02" y1="548.027" x2="744.02" y2="606.135" gradientUnits="userSpaceOnUse"><stop stop-color="#144794"/><stop offset="1" stop-color="#06162E"/></linearGradient><linearGradient id="paint35_linear_82_2" x1="749.895" y1="537.947" x2="749.895" y2="596.052" gradientUnits="userSpaceOnUse"><stop stop-color="#144794"/><stop offset="1" stop-color="#06162E"/></linearGradient><linearGradient id="paint36_linear_82_2" x1="787.91" y1="567.087" x2="787.91" y2="585.912" gradientUnits="userSpaceOnUse"><stop stop-color="#144794"/><stop offset="1" stop-color="#06162E"/></linearGradient><linearGradient id="paint37_linear_82_2" x1="732.582" y1="527.857" x2="732.582" y2="557.287" gradientUnits="userSpaceOnUse"><stop stop-color="#144794"/><stop offset="1" stop-color="#06162E"/></linearGradient><linearGradient id="paint38_linear_82_2" x1="740.723" y1="384.757" x2="740.723" y2="492.141" gradientUnits="userSpaceOnUse"><stop stop-color="#144794"/><stop offset="1" stop-color="#06162E"/></linearGradient><linearGradient id="paint39_linear_82_2" x1="802.283" y1="433.822" x2="802.283" y2="446.42" gradientUnits="userSpaceOnUse"><stop stop-color="#144794"/><stop offset="1" stop-color="#06162E"/></linearGradient><linearGradient id="paint40_linear_82_2" x1="683.396" y1="517.223" x2="683.396" y2="537.199" gradientUnits="userSpaceOnUse"><stop stop-color="#144794"/><stop offset="1" stop-color="#06162E"/></linearGradient><linearGradient id="paint41_linear_82_2" x1="683.787" y1="477.364" x2="683.787" y2="508.552" gradientUnits="userSpaceOnUse"><stop stop-color="#144794"/><stop offset="1" stop-color="#06162E"/></linearGradient><linearGradient id="paint42_linear_82_2" x1="630.126" y1="478.675" x2="630.126" y2="514.908" gradientUnits="userSpaceOnUse"><stop stop-color="#144794"/><stop offset="1" stop-color="#06162E"/></linearGradient><linearGradient id="paint43_linear_82_2" x1="622.634" y1="483.391" x2="622.634" y2="490.639" gradientUnits="userSpaceOnUse"><stop stop-color="#144794"/><stop offset="1" stop-color="#06162E"/></linearGradient><linearGradient id="paint44_linear_82_2" x1="626.972" y1="488.334" x2="626.972" y2="495.655" gradientUnits="userSpaceOnUse"><stop stop-color="#144794"/><stop offset="1" stop-color="#06162E"/></linearGradient><linearGradient id="paint45_linear_82_2" x1="631.79" y1="492.502" x2="631.79" y2="500.865" gradientUnits="userSpaceOnUse"><stop stop-color="#144794"/><stop offset="1" stop-color="#06162E"/></linearGradient><linearGradient id="paint46_linear_82_2" x1="542.435" y1="392.6" x2="542.435" y2="486.2" gradientUnits="userSpaceOnUse"><stop stop-color="#144794"/><stop offset="1" stop-color="#06162E"/></linearGradient><linearGradient id="paint47_linear_82_2" x1="661.209" y1="499.16" x2="661.209" y2="527.21" gradientUnits="userSpaceOnUse"><stop stop-color="#144794"/><stop offset="1" stop-color="#06162E"/></linearGradient><linearGradient id="paint48_linear_82_2" x1="637.964" y1="478.739" x2="637.964" y2="490.59" gradientUnits="userSpaceOnUse"><stop stop-color="#144794"/><stop offset="1" stop-color="#06162E"/></linearGradient><linearGradient id="paint49_linear_82_2" x1="713.859" y1="386.159" x2="713.859" y2="390.522" gradientUnits="userSpaceOnUse"><stop stop-color="#144794"/><stop offset="1" stop-color="#06162E"/></linearGradient><linearGradient id="paint50_linear_82_2" x1="717.699" y1="403.649" x2="717.699" y2="408.011" gradientUnits="userSpaceOnUse"><stop stop-color="#144794"/><stop offset="1" stop-color="#06162E"/></linearGradient><linearGradient id="paint51_linear_82_2" x1="721.529" y1="421.089" x2="721.529" y2="425.452" gradientUnits="userSpaceOnUse"><stop stop-color="#144794"/><stop offset="1" stop-color="#06162E"/></linearGradient><linearGradient id="paint52_linear_82_2" x1="725.341" y1="438.512" x2="725.341" y2="442.881" gradientUnits="userSpaceOnUse"><stop stop-color="#144794"/><stop offset="1" stop-color="#06162E"/></linearGradient><linearGradient id="paint53_linear_82_2" x1="729.13" y1="455.945" x2="729.13" y2="460.342" gradientUnits="userSpaceOnUse"><stop stop-color="#144794"/><stop offset="1" stop-color="#06162E"/></linearGradient><linearGradient id="paint54_linear_82_2" x1="732.939" y1="473.419" x2="732.939" y2="477.781" gradientUnits="userSpaceOnUse"><stop stop-color="#144794"/><stop offset="1" stop-color="#06162E"/></linearGradient></defs></svg>