<svg width="700" height="470" fill="none" xmlns="http://www.w3.org/2000/svg"><g clip-path="url(#clip0_90_215)"><path fill-rule="evenodd" clip-rule="evenodd" d="M532.857 113.056l.794 306.146-39.206 5.302 17.589-315.199" fill="url(#paint0_linear_90_215)"/><path fill-rule="evenodd" clip-rule="evenodd" d="M528.918 191.215c2.624 3.376 9.743 32.271 9.743 32.271l-14.232-11.415-8.832 15.466-3.948-14.291-14.6 13.591 11.554-38.11s17.69-.888 20.315 2.488z" fill="url(#paint1_linear_90_215)"/><path fill-rule="evenodd" clip-rule="evenodd" d="M527.069 283.828l13.626 39.923-17.965-10.528-9.06 15.429-3.947-14.291-13.892 6.627 9.455-35.935 21.783-1.225z" fill="url(#paint2_linear_90_215)"/><mask id="a" style="mask-type:luminance" maskUnits="userSpaceOnUse" x="519" y="0" width="41" height="107"><path d="M519.815 0h39.247v106.852h-39.247V0z" fill="#fff"/></mask><g mask="url(#a)"><path fill-rule="evenodd" clip-rule="evenodd" d="M519.815 106.292c8.739 1.8 22.297-.6 26.38-9.265-2.18-.488-5.506.388-7.685-.1 11.911-7.565 15.987-12.39 20.27-25.982-7.781 8.915-6.421 5.614-10.815 8.327 8.252-8.893 11.118-17.157 11.097-28.733-2.102 3.264-2.339 5.59-9.259 10.64 4.314-11.753 5.797-9.89 7.076-26.269-1.854 1.863-5.127 6.94-6.981 8.802.778-3.405-.884-40.547-10.748-43.712 0 0 4.371 26.633-1.265 37.373-2.348-1.025-7.581-3.55-9.928-4.588 2.633 9.002 5.649 16.066 5.726 25.982-2.515-1.576-4.652-5.164-7.167-6.74 4.445 19.668-2.995 35.847-6.701 54.265z" fill="url(#paint3_linear_90_215)"/></g><path fill-rule="evenodd" clip-rule="evenodd" d="M520.554 106.292c6.47-6.152 12.257-18.642 7.476-26.945-1.642 1.513-2.829 4.739-4.47 6.252.598-14.104-1.032-20.206-9.732-31.484 2.86 11.478.934 8.477.648 13.629-2.576-11.84-7.722-18.935-17.232-25.52 1.475 3.589 3.251 5.115 3.439 13.68-7.177-10.266-4.802-10.416-17.508-20.831.464 2.588 2.766 8.177 3.23 10.765-2.355-2.595-33.773-22.454-42.014-16.18 0 0 24.351 11.641 29.949 22.42-2.192 1.325-7.248 4.188-9.44 5.513 8.886 2.989 16.409 4.551 24.584 10.153-2.726 1.163-6.898.863-9.623 2.025 18.681 7.603 27.703 22.957 40.693 36.523z" fill="url(#paint4_linear_90_215)"/><path fill-rule="evenodd" clip-rule="evenodd" d="M522.679 107.492c-3.534-8.19-13.263-17.93-22.71-16.304.853 2.063 3.474 4.288 4.326 6.352-13.027-5.427-19.319-6.002-32.909-1.726 11.759 1.275 8.279 2.038 13.019 4.089-12.008-1.668-20.429.731-29.906 7.364 3.879-.138 5.923-1.275 14.027 1.501-12.102 3.188-11.427.912-25.582 9.252 2.584.45 8.627.212 11.21.675-3.244 1.325-32.728 23.96-29.67 33.859 0 0 19.324-18.842 31.363-20.38.496 2.513 1.432 8.24 1.928 10.765 5.863-7.314 9.928-13.841 18.005-19.58.155 2.963-1.568 6.777-1.413 9.74 13.575-14.917 31.098-18.092 48.312-25.607z" fill="url(#paint5_linear_90_215)"/><path fill-rule="evenodd" clip-rule="evenodd" d="M520.603 101.578c-7.15 5.339-14.37 17.055-10.602 25.87 1.809-1.301 3.367-4.377 5.176-5.677-2.257 13.929-1.359 20.18 5.95 32.409-1.486-11.728.072-8.527.966-13.616 1.159 12.074 5.437 19.716 14.1 27.382-1.041-3.738-2.626-5.464-1.803-13.991 5.918 11.04 3.541 10.903 14.932 22.744-.156-2.614-1.783-8.44-1.94-11.066 2.031 2.85 30.9 26.281 39.815 21.018 0 0-22.81-14.429-27.099-25.782 2.335-1.062 7.692-3.3 10.027-4.376-8.472-4.001-15.759-6.452-23.216-12.979 2.844-.837 6.951-.037 9.796-.875-17.655-9.752-24.803-26.057-36.102-41.061z" fill="url(#paint6_linear_90_215)"/><path fill-rule="evenodd" clip-rule="evenodd" d="M524.167 103.766c-8.921-.037-21.742 4.989-24.035 14.292 2.232.037 5.321-1.463 7.552-1.426-10.184 9.765-13.23 15.305-14.75 29.471 5.873-10.266 5.189-6.765 8.962-10.291-6.335 10.323-7.52 19.021-5.215 30.346 1.418-3.601 1.19-5.939 6.978-12.253-1.912 12.378-3.732 10.84-1.758 27.145 1.452-2.188 3.657-7.815 5.108-10.003-.091 3.5 8.866 39.581 19.155 40.749 0 0-9.535-25.257-6.128-36.898 2.506.55 8.132 1.988 10.638 2.538-4.355-8.302-8.705-14.641-10.734-24.331 2.775 1.037 5.579 4.138 8.355 5.189-8.236-18.418-4.132-35.735-4.128-54.528z" fill="url(#paint7_linear_90_215)"/><path fill-rule="evenodd" clip-rule="evenodd" d="M521.642 103.491c1.339 8.827 8.276 20.718 17.825 21.543-.302-2.213-2.271-5.026-2.572-7.239 11.223 8.552 17.162 10.703 31.391 10.028-11.049-4.226-7.488-4.089-11.551-7.277 11.19 4.67 19.944 4.504 30.796.475-3.789-.85-6.055-.263-13.189-5.002 12.519-.025 11.286 2.013 27.093-2.463-2.383-1.087-8.286-2.4-10.671-3.501 3.467-.448 37.731-14.864 37.296-25.207 0 0-23.476 13.317-35.511 11.741.16-2.55.709-8.34.869-10.903-7.528 5.59-13.115 10.866-22.387 14.367.603-2.901 3.238-6.152 3.839-9.053-16.916 10.978-34.67 9.59-53.228 12.491z" fill="url(#paint8_linear_90_215)"/><path fill-rule="evenodd" clip-rule="evenodd" d="M95.205 126.86l-.792 306.134 39.205 5.301-17.589-315.199" fill="url(#paint9_linear_90_215)"/><path fill-rule="evenodd" clip-rule="evenodd" d="M99.146 205.019c-2.624 3.363-9.745 32.271-9.745 32.271l14.234-11.428 8.833 15.479 3.947-14.291 14.6 13.579-11.554-38.098s-17.69-.888-20.315 2.488z" fill="url(#paint10_linear_90_215)"/><path fill-rule="evenodd" clip-rule="evenodd" d="M100.994 297.619l-13.626 39.923 17.965-10.528 9.06 15.43 3.948-14.292 13.892 6.627-9.456-35.922-21.783-1.238z" fill="url(#paint11_linear_90_215)"/><path fill-rule="evenodd" clip-rule="evenodd" d="M108.249 120.083c-8.739 1.801-22.298-.588-26.38-9.265 2.18-.488 5.505.388 7.685-.088-11.911-7.577-15.987-12.403-20.27-25.982 7.781 8.903 6.42 5.602 10.814 8.315-8.25-8.885-11.12-17.156-11.096-28.733 2.102 3.264 2.339 5.602 9.258 10.64-4.313-11.74-5.796-9.89-7.075-26.256 1.854 1.85 5.126 6.94 6.98 8.79-.777-3.41.885-40.536 10.747-43.712 0 0-4.37 26.632 1.267 37.385 2.347-1.038 7.58-3.551 9.927-4.589-2.633 8.99-5.649 16.054-5.726 25.97 2.516-1.563 4.653-5.165 7.167-6.74-4.445 19.68 2.996 35.86 6.702 54.265z" fill="url(#paint12_linear_90_215)"/><path fill-rule="evenodd" clip-rule="evenodd" d="M107.51 120.083c-6.471-6.139-12.257-18.63-7.476-26.945 1.642 1.513 2.827 4.739 4.47 6.252-.599-14.091 1.032-20.193 9.732-31.484-2.86 11.478-.935 8.478-.648 13.641 2.575-11.85 7.715-18.935 17.232-25.531-1.475 3.588-3.251 5.114-3.44 13.678 7.177-10.253 4.802-10.415 17.509-20.818-.464 2.576-2.766 8.177-3.23 10.753 2.352-2.586 33.783-22.449 42.014-16.167 0 0-24.351 11.64-29.95 22.406 2.193 1.338 7.248 4.189 9.441 5.527-8.886 2.976-16.41 4.538-24.584 10.14 2.725 1.175 6.896.863 9.622 2.038-18.68 7.59-27.702 22.944-40.692 36.51z" fill="url(#paint13_linear_90_215)"/><path fill-rule="evenodd" clip-rule="evenodd" d="M105.384 121.296c3.535-8.202 13.264-17.943 22.71-16.317-.853 2.063-3.473 4.289-4.326 6.352 13.027-5.427 19.318-6.002 32.908-1.726-11.758 1.276-8.277 2.051-13.017 4.101 12.008-1.68 20.436.709 29.904 7.365-3.877-.15-5.923-1.288-14.026 1.488 12.103 3.201 11.428.913 25.582 9.252-2.584.45-8.627.225-11.211.675 3.239 1.318 32.719 23.965 29.672 33.86 0 0-19.325-18.843-31.364-20.381-.496 2.513-1.431 8.252-1.928 10.766-5.862-7.315-9.927-13.829-18.006-19.568-.154 2.951 1.569 6.764 1.414 9.727-13.575-14.916-31.097-18.092-48.312-25.594z" fill="url(#paint14_linear_90_215)"/><path fill-rule="evenodd" clip-rule="evenodd" d="M107.461 115.369c7.149 5.339 14.37 17.067 10.6 25.882-1.808-1.313-3.366-4.376-5.175-5.689 2.257 13.929 1.358 20.181-5.95 32.409 1.486-11.728-.073-8.527-.966-13.603-1.158 12.058-5.437 19.711-14.1 27.382 1.042-3.738 2.625-5.464 1.802-13.991-5.916 11.028-3.54 10.903-14.93 22.743.156-2.625 1.783-8.452 1.939-11.065-2.031 2.843-30.895 26.278-39.814 21.006 0 0 22.809-14.429 27.098-25.783-2.335-1.062-7.692-3.3-10.027-4.363 8.473-4.014 15.759-6.452 23.217-12.979-2.845-.837-6.952-.05-9.796-.887 17.654-9.741 24.803-26.057 36.102-41.062z" fill="url(#paint15_linear_90_215)"/><path fill-rule="evenodd" clip-rule="evenodd" d="M103.896 117.57c8.922-.038 21.742 4.976 24.036 14.279-2.232.05-5.322-1.463-7.554-1.426 10.186 9.778 13.23 15.305 14.752 29.471-5.873-10.265-5.189-6.764-8.962-10.29 6.338 10.344 7.517 19.014 5.215 30.358-1.418-3.614-1.192-5.939-6.978-12.266 1.911 12.378 3.732 10.84 1.758 27.157-1.452-2.188-3.658-7.814-5.109-10.002.092 3.485-8.869 39.575-19.156 40.736 0 0 9.535-25.244 6.13-36.898-2.506.55-8.133 1.988-10.638 2.539 4.355-8.303 8.705-14.63 10.733-24.332-2.775 1.038-5.578 4.151-8.354 5.189 8.235-18.405 4.13-35.735 4.127-54.515z" fill="url(#paint16_linear_90_215)"/><mask id="b" style="mask-type:luminance" maskUnits="userSpaceOnUse" x="0" y="98" width="107" height="44"><path d="M0 98.64h106.422v43.093H0V98.64z" fill="#fff"/></mask><g mask="url(#b)"><path fill-rule="evenodd" clip-rule="evenodd" d="M106.422 117.295c-1.339 8.815-8.276 20.705-17.825 21.531.302-2.201 2.27-5.027 2.572-7.24-11.223 8.553-17.162 10.716-31.392 10.028 11.05-4.214 7.488-4.089 11.552-7.265-11.19 4.661-19.95 4.497-30.796.463 3.788-.838 6.056-.262 13.188-5.001-12.518-.025-11.285 2.013-27.092-2.451 2.383-1.1 8.287-2.413 10.67-3.501-3.464-.454-37.731-14.874-37.295-25.22 0 0 23.475 13.317 35.511 11.754-.16-2.563-.71-8.34-.87-10.903 7.528 5.577 13.116 10.853 22.387 14.354-.602-2.901-3.237-6.152-3.839-9.052 16.917 10.977 34.67 9.602 53.229 12.503z" fill="url(#paint17_linear_90_215)"/></g><path fill-rule="evenodd" clip-rule="evenodd" d="M96.818 427.68c25.485-11.729 90.107-21.821 123.65-24.095 34.833-4.476 69.299-10.052 104.59-8.252 54.189 7.361 113.435 16.192 167.183 26.608" fill="#fff"/><path d="M255.169 398.225l1.759-.214c27.69-3.346 47.804-4.547 68.172-3.508a.826.826 0 01.07.006l3.881.529c30.953 4.226 59.525 8.391 86.132 12.608l3.315.528c26.444 4.222 50.939 8.5 73.901 12.95a.832.832 0 01-.316 1.633c-41.11-7.967-87.147-15.386-140.493-22.913l-3.734-.525a5315.064 5315.064 0 00-17.1-2.37l-3.867-.528-1.909-.259-.604-.03c-20.475-.998-40.803.284-69.043 3.749l-1.739.215-2.064.258-2.527.321-4.141.536-7.334.967-12.88 1.704-3.061.397-1.013.131-.024.003-.025.002c-3.671.248-7.657.586-11.875 1.002l-1.212.121-1.223.125-1.235.13c-1.241.131-2.499.269-3.772.412l-1.277.146-.642.074-1.292.151-1.301.156-1.308.159a613.4 613.4 0 00-2.641.329l-1.332.17-1.338.173c-1.117.146-2.241.296-3.371.449l-1.357.186-2.045.285-1.369.193c-1.142.163-2.287.329-3.435.499l-1.379.204-1.381.208-.691.105-1.383.212-1.383.215-1.385.218a803.01 803.01 0 00-3.459.557l-1.383.227-1.38.23-1.379.233-1.376.234-.687.119-1.372.238c-1.37.24-2.735.483-4.092.73-25.896 4.702-46.873 10.131-58.604 15.53a.832.832 0 01-.696-1.511c11.893-5.473 32.978-10.93 59.003-15.656 1.361-.247 2.729-.491 4.102-.731l1.376-.239c1.147-.198 2.298-.394 3.451-.587l1.384-.231 1.386-.228 1.387-.225 1.387-.222 1.388-.22c.694-.109 1.388-.218 2.081-.325l1.387-.212 1.385-.21 1.384-.207 1.381-.204 1.378-.2 1.376-.198 1.372-.194c2.512-.353 5.004-.69 7.464-1.009l1.338-.172.667-.085 1.328-.167 1.32-.163 1.313-.16.653-.078 1.3-.154 1.291-.149c1.286-.148 2.558-.29 3.813-.426l1.25-.134a420.454 420.454 0 0115.069-1.346l.505-.035 4.609-.598 18.518-2.449 4.207-.547 2.518-.322 2.251-.284 2.677-.332z" fill="url(#paint18_linear_90_215)"/><path fill-rule="evenodd" clip-rule="evenodd" d="M388.253 469.247c2.414 0 2.417-3.75 0-3.75-2.414 0-2.417 3.75 0 3.75z" fill="url(#paint19_linear_90_215)"/><path fill-rule="evenodd" clip-rule="evenodd" d="M331.396 445.557c2.413 0 2.417-3.751 0-3.751-2.414 0-2.418 3.751 0 3.751z" fill="url(#paint20_linear_90_215)"/><path fill-rule="evenodd" clip-rule="evenodd" d="M293.49 440.819c2.414 0 2.418-3.751 0-3.751-2.413 0-2.417 3.751 0 3.751z" fill="url(#paint21_linear_90_215)"/><path fill-rule="evenodd" clip-rule="evenodd" d="M277.381 450.295c2.413 0 2.417-3.751 0-3.751-2.414 0-2.418 3.751 0 3.751z" fill="url(#paint22_linear_90_215)"/><path fill-rule="evenodd" clip-rule="evenodd" d="M230.947 451.243c2.413 0 2.417-3.751 0-3.751-2.414 0-2.418 3.751 0 3.751z" fill="url(#paint23_linear_90_215)"/><path fill-rule="evenodd" clip-rule="evenodd" d="M309.6 421.866c2.413 0 2.417-3.751 0-3.751-2.414 0-2.418 3.751 0 3.751z" fill="url(#paint24_linear_90_215)"/><path fill-rule="evenodd" clip-rule="evenodd" d="M348.453 431.342c2.413 0 2.417-3.75 0-3.75-2.414 0-2.418 3.75 0 3.75z" fill="url(#paint25_linear_90_215)"/><path fill-rule="evenodd" clip-rule="evenodd" d="M54.907 427.829c9.465-4.171 28.885-11.22 54.089-9.632 24.345 1.533 76.32 28.163 85.208 33.342" fill="#fff"/><path d="M75.865 420.042a116.292 116.292 0 0133.183-2.675c10.952.69 28.039 6.348 48.682 15.372l.864.379.867.382.87.387.872.389.874.392.874.395.876.397.876.4.875.401.874.402.873.404.871.405.868.406.866.406.861.406.858.406.853.406.848.404.842.404.836.403.829.401 1.23.598.811.396.801.394 1.185.585.778.386.768.382.757.379.745.374.733.371.721.365.707.361.694.356.68.35.335.173.658.342.643.335.626.329.61.322.594.315.29.155.567.305.276.149.54.293.262.143.511.28.49.272.47.263.45.254.428.245.406.235a.831.831 0 11-.838 1.437l-.402-.233-.424-.243-.221-.125-.456-.256a49.93 49.93 0 00-.236-.132l-.487-.27-.251-.138-.517-.283-.536-.29-.554-.299-.572-.306-.59-.313-.607-.32-.623-.328-.639-.333-.655-.34-.669-.345-.684-.351-.697-.357-.711-.361-.724-.367-.735-.37-1.126-.564-.764-.381-.775-.384-.784-.388-.794-.39-.802-.393-.811-.396-.819-.397-.826-.4-1.251-.602-.841-.402-.848-.404-.852-.404-.427-.202-.859-.405-.861-.404-.865-.404-.868-.404-.869-.402-.871-.401-.872-.4-.873-.397-.436-.199-.872-.394-.871-.392-.869-.39-.868-.386-.433-.192-.864-.381-.861-.377c-20.469-8.949-37.422-14.562-48.119-15.236a114.624 114.624 0 00-32.71 2.637 114.175 114.175 0 00-20.992 6.926.832.832 0 01-.67-1.522 115.833 115.833 0 0121.293-7.026z" fill="url(#paint26_linear_90_215)"/><path fill-rule="evenodd" clip-rule="evenodd" d="M480.949 428.57c8.891-6.57 20.721-13.608 35.565-18.523 46.353-15.348 87.985 1.298 101.51 7.409" fill="#fff"/><path d="M516.253 409.257c20.912-6.924 42.278-7.933 63.464-4.373a155.775 155.775 0 0123.522 5.889 158.057 158.057 0 018.925 3.276l.672.272c1.56.636 3.079 1.285 4.573 1.948l.639.286.318.143a.831.831 0 11-.685 1.516 155.705 155.705 0 00-9.194-3.813l-.697-.261a159.945 159.945 0 00-5.078-1.789 154.059 154.059 0 00-23.27-5.827c-20.933-3.518-42.029-2.521-62.666 4.312-13.177 4.363-24.862 10.665-35.333 18.403a.83.83 0 11-.988-1.338c10.605-7.837 22.445-14.223 35.798-18.644z" fill="url(#paint27_linear_90_215)"/><path fill-rule="evenodd" clip-rule="evenodd" d="M345.384 266.611c1.293 4.925 4.459 12.723 9.747 14.153l8.161 19.731c2.688-1.518 14.092-6.769 18.164-7.877.71-.663-5.456-13.004-6.01-14.117-6.309-12.603-8.288-23.406-25.711-20.18" fill="#fff"/><path d="M349.584 257.503c6.668-1.234 11.475-.527 15.152 2.048 1.239.868 2.317 1.89 3.34 3.177l.149.191.149.194.074.098.147.2c.148.202.294.41.44.625l.146.216.073.11.146.224.073.113.145.23.073.116.146.237.145.241.073.123.146.249.146.253.074.129.147.261.073.132.148.269.148.273.149.279.149.285.151.289.151.296.152.3.154.307.154.312.155.318.157.324.188.394 1.676 3.588.903 1.916.589 1.234.235.486.139.285.63 1.27.399.809.207.423a264.359 264.359 0 011.938 4.046l.253.545.201.434.226.492.287.633.271.608.193.437.184.422.117.272.113.265.108.258.104.25.148.362.092.231.088.223.085.22.082.214.076.206.036.1.068.192.063.184.057.174.052.166.047.157c.022.076.041.149.059.218.067.26.107.48.118.673.02.359-.041.659-.318.917a.832.832 0 01-.349.195 17.53 17.53 0 00-.967.298l-.282.096-.297.104-.311.112-.16.058-.331.122-.342.129-.354.136-.365.141-.374.147-.384.153-.392.157-.602.245-.41.169-.416.172-.421.177-.425.179-.429.182-.432.185-.434.187-.654.284-.436.191-.653.288-.65.289-.644.29-.425.192-.42.192-.415.19-.41.189-.601.28-.583.274-.564.268-.541.261-.347.169-.498.245-.316.158-.303.153-.146.075-.28.144-.134.07-.257.136a6.868 6.868 0 00-.123.066l-.231.126c-.075.041-.146.08-.214.119a.832.832 0 01-1.16-.368l-.018-.038-8.01-19.366-.013-.004c-2.463-.817-4.586-2.885-6.383-5.897l-.074-.127c-1.481-2.517-2.673-5.589-3.463-8.597a.832.832 0 011.609-.422c.753 2.87 1.892 5.804 3.287 8.176 1.712 2.911 3.694 4.796 5.872 5.386a.83.83 0 01.533.443l.018.042 7.808 18.877.267-.139.254-.131.265-.134.275-.139.286-.142.446-.22.467-.226.484-.233.672-.319.522-.245.355-.165.36-.167.549-.252.558-.254.565-.256.763-.341.576-.256.579-.255.579-.252.578-.25.575-.246.38-.162.567-.239.373-.156.37-.154.547-.225.536-.218.523-.21.341-.135.334-.131.327-.127.319-.122.311-.118.301-.112.293-.108.143-.051.277-.099.135-.048.262-.09.127-.043.244-.082.118-.038.091-.029-.02-.072-.038-.131-.043-.141-.049-.151-.027-.079-.057-.166c-.009-.029-.02-.057-.03-.086l-.065-.18-.07-.19-.075-.198-.118-.303-.085-.214-.089-.222-.143-.346-.152-.363-.161-.378-.17-.394-.179-.41-.253-.568-.2-.443-.137-.303-.213-.467-.269-.583-.252-.54a244.663 244.663 0 00-1.704-3.567l-.325-.665-.401-.816-.726-1.465-.179-.365-.372-.772-.276-.58-.693-1.466-2.063-4.413-.153-.319-.151-.312-.15-.307-.149-.301-.221-.44-.146-.287-.145-.281-.144-.276-.143-.27-.142-.265-.141-.26-.141-.254-.07-.126-.14-.247-.07-.121-.139-.24-.069-.118-.139-.232-.138-.228-.138-.223-.069-.109-.137-.216-.138-.212-.138-.207a21.308 21.308 0 00-.414-.596l-.138-.19-.139-.187-.139-.182c-.093-.12-.186-.238-.28-.353l-.141-.171a16.666 16.666 0 00-.499-.57l-.145-.155a13.482 13.482 0 00-2.079-1.8c-3.273-2.292-7.634-2.934-13.895-1.775a.83.83 0 11-.303-1.635z" fill="url(#paint28_linear_90_215)"/><path fill-rule="evenodd" clip-rule="evenodd" d="M335.513 242.867l30.027-.763-12.683 10.628.542 13.766 8.13 2.488-20.812 1.413 9.43-3.251-.433-14.316-14.201-9.965z" fill="#fff"/><path d="M335.492 242.035l-.04.002c-.772.054-1.062 1.058-.417 1.51l13.86 9.726.402 13.288-8.851 3.052c-.918.317-.641 1.682.327 1.616l20.812-1.413.043-.004c.882-.099 1.013-1.355.144-1.621l-7.565-2.315-.503-12.769 12.37-10.366c.604-.505.232-1.488-.555-1.468l-30.027.762zm2.562 1.599l25.127-.638-10.858 9.098a.832.832 0 00-.297.671l.542 13.766.003.042c.03.335.261.621.585.72l3.819 1.169-10.071.684 3.514-1.212a.83.83 0 00.56-.811l-.433-14.316-.003-.047a.832.832 0 00-.351-.609l-12.137-8.517z" fill="url(#paint29_linear_90_215)"/><path fill-rule="evenodd" clip-rule="evenodd" d="M351.337 250.981l-8.367-5.726 15.467-.063-7.1 5.789z" fill="url(#paint30_linear_90_215)"/><path fill-rule="evenodd" clip-rule="evenodd" d="M493.111 244.329c2.538 2.188.18-1.787 6.799 7.99 10.196 15.054-14.649 24.832-24.644 17.818-16.201-11.391 2.039-39.436 17.845-25.808z" fill="url(#paint31_linear_90_215)"/><path fill-rule="evenodd" clip-rule="evenodd" d="M432.916 268.986l19.512 22.782 30.511-29.884-16.291-7.652-33.732 14.754z" fill="#fff"/><path d="M466.315 253.47l-33.732 14.754a.831.831 0 00-.298 1.303l19.511 22.781c.313.366.87.39 1.214.054l30.511-29.884a.831.831 0 00-.229-1.346l-16.291-7.652a.83.83 0 00-.686-.01zm.32 1.675l14.866 6.983-29.02 28.423-18.203-21.253 32.357-14.153z" fill="url(#paint32_linear_90_215)"/><path fill-rule="evenodd" clip-rule="evenodd" d="M483.995 265.36c8.406-5.114 12.078-10.265 9.804-18.818-3.498-14.152-26.351-4.314-34.772 1.675-8.526 14.737 11.382 25.123 24.968 17.143z" fill="#fff"/><path d="M478.096 239.011c-2.102.42-4.342 1.076-6.582 1.891l-.42.155a61.827 61.827 0 00-5.371 2.303l-.399.195c-.729.361-1.443.732-2.136 1.11l-.375.207a45.973 45.973 0 00-4.268 2.667.84.84 0 00-.238.262c-4.184 7.231-2.089 14.188 4.477 18.215 6.218 3.815 14.91 4.01 21.632.061 9.293-5.653 12.444-11.259 10.187-19.748-.895-3.622-3.053-5.995-6.252-7.122-2.77-.976-6.253-.995-10.255-.196zm14.896 7.731c2.046 7.692-.719 12.609-9.429 17.908-6.174 3.626-14.208 3.446-19.909-.051l-.174-.108c-5.628-3.548-7.376-9.381-3.843-15.665l.02-.037.148-.103a45.706 45.706 0 014.01-2.468l.366-.2.185-.099.372-.197.375-.196a58.916 58.916 0 012.122-1.044l.394-.183c3.559-1.635 7.377-2.974 10.793-3.657 7.947-1.588 13.12.235 14.57 6.1z" fill="url(#paint33_linear_90_215)"/><path fill-rule="evenodd" clip-rule="evenodd" d="M468.367 272.625c4.213-.063 10.283-6.084 10.88-10.765.722-5.177-6.304-2.239-8.621-.889-3.589 2.089-4.143 6.39-5.345 9.828" fill="#fff"/><path fill-rule="evenodd" clip-rule="evenodd" d="M489.77 262.972c11.838 1.408 12.858-6.079 7.419-17.367-2.16-5.314.321-10.115-5.017-12.891-6.739-3.501-12.029 6.764-12.029 6.764s.616 6.639 2.443 10.728c1.281 2.876 4.112 5.376 4.487 8.377.112.901-.165 4.139 2.697 4.389z" fill="url(#paint34_linear_90_215)"/><path fill-rule="evenodd" clip-rule="evenodd" d="M481.926 262.547c5.725 4.739-4.673 9.853-5.907 2.501l5.907-2.501z" fill="#fff"/><path d="M481.285 262.017a.831.831 0 011.171-.11c1.551 1.283 2.219 2.765 1.954 4.214-.234 1.276-1.182 2.359-2.476 2.964-1.284.6-2.765.662-4.01.097-1.422-.645-2.393-2.022-2.725-3.997a.831.831 0 011.64-.275c.244 1.452.879 2.353 1.772 2.758.781.354 1.757.313 2.619-.09.837-.39 1.414-1.051 1.544-1.757.147-.804-.26-1.708-1.379-2.633a.832.832 0 01-.11-1.171z" fill="url(#paint35_linear_90_215)"/><path d="M475.272 244.886a.831.831 0 01.534 1.574l-.039.014-6.772 2.111.198 1.976a.83.83 0 01-.703.905l-.041.005a.832.832 0 01-.905-.703l-.005-.042-.266-2.65a.833.833 0 01.542-.864l.038-.013 7.419-2.313z" fill="url(#paint36_linear_90_215)"/><path fill-rule="evenodd" clip-rule="evenodd" d="M475.669 265.773c.3 2.863-7.207 3.301-9.874 3.126-23.335-2.597-17.716-23.05-2.498-25.42 3.057 9.512 1.302 14.914 12.241 19.493 0 0 .03 1.851.131 2.801z" fill="url(#paint37_linear_90_215)"/><path fill-rule="evenodd" clip-rule="evenodd" d="M350.784 336.142c-18.171.5-72.507-26.369-72.507-26.369l-41.065 22.981-24.852-18.418c5.107-6.201 47.668-33.709 59.399-35.822 28.51 1.441 60.736 16.442 89.474 16.567 0 0 51.33-31.771 64.115-30.471 5.474.563 23.234-.062 27.567 2.013 13.263 6.389 18.565 19.055-.066 32.822 0 0-83.895 36.197-102.065 36.697z" fill="#fff"/><path d="M394.337 275.332c-.919.475-1.851.961-2.793 1.458l-.946.5-.953.508-.959.514c-.482.258-.966.519-1.452.783a575.63 575.63 0 00-17.676 10.015l-1.333.787-1.233.732-1.187.708-.689.413-1.11.668-.851.515-1.496.91-.66.405-.368-.003c-6.175-.072-12.796-.823-20.26-2.215l-.555-.104-.375-.072-1.126-.219-.377-.074-1.133-.229-.723-.15-.863-.182-.697-.149-.882-.192-.894-.199-.909-.205-.554-.127-.936-.216-1.151-.271-.983-.234-1.006-.243-1.243-.304-1.283-.317-1.102-.276-1.832-.462-1.677-.428-5.847-1.513-4.419-1.144-2.278-.585-1.877-.478-1.36-.342-1.106-.276-1.397-.345-1.163-.282-1.273-.304-.924-.217-.906-.21-.745-.169-.887-.199-.935-.206-.829-.18-1.265-.269-.363-.076-.721-.149-.716-.146-.709-.142-.704-.138-.699-.134c-.232-.044-.463-.088-.693-.13l-.688-.127a155.515 155.515 0 00-3.691-.629l-.656-.102c-4.029-.618-7.799-1.019-11.418-1.202a.863.863 0 00-.19.012c-3.078.555-8.322 2.821-14.9 6.297l-.71.377a233.477 233.477 0 00-5.236 2.888l-.784.446-.395.226-.795.458c-.4.231-.803.466-1.208.702l-.815.478c-.545.321-1.096.647-1.651.977l-.836.5c-.419.252-.841.506-1.265.763l-.852.517-.858.523-.864.531-1.305.807-.395.246-.786.491-.782.49-.778.491-.387.245-.77.49-.383.244-.762.488-.379.244-.753.486-.374.242-.743.483-.368.241-.733.48-.363.239-.721.477-.712.473-.705.47-.348.234-.691.465-.342.231-.676.46-.667.455-.329.226-.651.449-.64.443-.628.439-.31.217-.611.431-.301.213-.593.422-.292.209-.573.413-.56.406c-.554.404-1.087.797-1.598 1.179l-.504.378-.488.37-.239.182-.465.359c-2.439 1.888-4.195 3.421-5.019 4.421a.831.831 0 00.147 1.197l24.851 18.418.039.026a.83.83 0 00.863.031l40.684-22.768 1.017.497 1.361.657 1.128.541 1.179.562.98.465 1.011.477 1.041.489.531.248a581.027 581.027 0 0020.405 9.08 413.53 413.53 0 0010.193 4.139c.459.179.915.355 1.368.53l.901.345c.747.285 1.485.563 2.213.835l.87.322c12.686 4.682 22.422 7.237 28.307 7.075 6.374-.175 20.701-4.526 40.968-12.037l1.391-.517c1.4-.522 2.827-1.059 4.281-1.61l1.464-.555 1.481-.565 1.318-.505 1.328-.511.668-.258 1.343-.52 1.352-.526 1.362-.531.685-.268c9.85-3.856 19.999-7.976 29.919-12.107l2.247-.937 1.967-.824 2.52-1.059 2.974-1.257 2.789-1.186 2.315-.992a.814.814 0 00.164-.095c9.001-6.65 13.068-13.492 12.326-19.941-.667-5.786-5.216-10.841-12.393-14.298-.488-.234-1.107-.437-1.866-.615l-.201-.046-.207-.044-.214-.044-.22-.042-.227-.041a26.003 26.003 0 00-.116-.021l-.236-.039a4.982 4.982 0 00-.12-.019l-.247-.038a4.679 4.679 0 00-.125-.019l-.256-.036-.262-.036-.269-.034-.276-.033-.283-.033-.289-.031-.296-.031-.15-.014-.306-.029-.313-.029-.32-.027-.327-.026-.333-.026-.514-.037-.351-.023-.539-.034-.556-.032-.379-.02-.582-.029-.599-.028-.614-.026-.632-.024-.43-.016-.881-.029-.912-.027-1.762-.045-6.018-.12-1.663-.041-1.037-.032-.885-.036-.265-.012-.492-.027-.228-.014-.323-.023-.398-.032-.325-.031c-4.566-.465-13.665 2.864-26.264 9.104l-.855.425-.865.434c-1.016.511-2.053 1.04-3.111 1.586zm31.264-9.862l.307.025.215.017.281.019.237.014.312.018.541.026.521.021.832.028 1.257.035 2.128.046 5.552.113 1.219.033.869.026.424.014.623.023.608.023.787.034.383.018.562.028.547.029.531.031.516.033.336.022.49.035.476.037.46.039.299.026.292.028.285.028.278.029.272.03.264.03.259.032.251.032.245.033.238.034.116.017.228.035.222.036.108.018.211.038.205.038.1.019.194.04.188.04.182.041.175.043.084.021.165.044c.162.044.313.09.455.137l.138.047c.18.064.342.131.487.2 6.709 3.232 10.869 7.854 11.46 12.99l.019.173c.563 5.658-3.121 11.846-11.424 18.05l-.18.133-2.717 1.163-2.002.851-2.345.993-2.789 1.174-1.943.815-1.669.697a1534.526 1534.526 0 01-31.124 12.61l-.684.267-1.36.531-1.35.524-1.341.519-.667.258-1.326.51-1.316.504-1.468.56a348.8 348.8 0 01-.727.277l-1.441.545-1.424.537-.705.265-1.397.522-1.379.512-1.362.503c-.45.167-.898.331-1.343.494l-1.324.483c-17.976 6.542-30.754 10.321-36.467 10.478-5.044.139-13.296-1.883-23.984-5.639l-.817-.289-.411-.147-.831-.298c-.556-.202-1.119-.407-1.688-.617l-.857-.318-.433-.162-.871-.328-.88-.334-.888-.34-.898-.347-.452-.176a409.403 409.403 0 01-10.151-4.122 576.493 576.493 0 01-19.519-8.668l-1.093-.51-1.045-.49-1.265-.596-.977-.463-1.176-.561-1.124-.539-1.104-.534-.945-.459-.707-.347-.044-.02a.832.832 0 00-.731.04l-40.595 22.718-23.678-17.548.044-.044c.715-.712 1.76-1.614 3.077-2.664l.384-.303.197-.155.405-.316.208-.16.426-.327.44-.334.225-.169.46-.344.234-.175.479-.354.491-.36.25-.183.509-.369.521-.376.532-.38.543-.387.554-.391.28-.197.57-.399.288-.201.584-.406.593-.409.603-.414.612-.418.309-.21.624-.423.315-.213.637-.428.644-.431.652-.434.658-.436.666-.439.672-.441.338-.221.681-.443.687-.446.692-.446.697-.448.702-.449.353-.225.709-.449.713-.451.716-.45.72-.451.723-.45.431-.267.84-.519a385.45 385.45 0 012.489-1.52l.818-.494.813-.488.806-.481.8-.474.793-.467.786-.46c1.305-.76 2.579-1.491 3.82-2.189l.739-.414c.368-.206.733-.408 1.094-.607l.718-.395.71-.386c.469-.254.933-.503 1.39-.746l.68-.361a170.68 170.68 0 011.981-1.026l.639-.324c4.964-2.501 8.925-4.136 11.387-4.618l.066-.013-.097-.005c5.105.258 10.528.959 16.585 2.099l.688.131.694.135.699.139.705.142.355.072.714.148.817.172.904.193.447.097.787.173.872.193.875.198.59.135.896.209 1.229.29 1.279.309 1.345.329 1.795.447 1.746.441 1.672.426 2.036.523 4.084 1.057 4.374 1.135 1.777.457 1.462.373 1.64.415 1.574.394 1.086.269 1.057.259 1.031.249 1.203.288 1.364.32.949.22.747.17.736.165.546.121.72.158.713.154.706.151.875.182.695.143.691.139.517.103.379.074.378.074.377.072.567.108c.497.094.991.185 1.481.273l.732.13.727.126.721.122c6.474 1.077 12.339 1.642 17.873 1.666a.826.826 0 00.441-.124l.554-.341.969-.592 1.033-.626.857-.518 1.116-.671 1.165-.697 1.459-.867.754-.446a576.646 576.646 0 0118.449-10.473l.966-.522a427.993 427.993 0 013.795-2.02l.931-.488.924-.48.459-.237c.737-.381 1.465-.754 2.183-1.118l.856-.432c13.049-6.568 22.584-10.185 26.982-9.835l.479.045z" fill="url(#paint38_linear_90_215)"/><path fill-rule="evenodd" clip-rule="evenodd" d="M485.998 274.163c9.586-6.252 17.897-13.654 26.674-21.081.767-.65 5.806-7.302 7.194-6.202 2.402 1.913-8.685 11.941-8.351 12.654.944 2.025 1.871 2.776 1.329 3.326-7.256 7.414-14.754 14.766-21.429 22.694" fill="#fff"/><path d="M517.965 246.491c.926-.608 1.739-.801 2.419-.261.773.615.831 1.523.399 2.648l-.053.133a8.145 8.145 0 01-.331.695c-.348.654-.833 1.387-1.452 2.211l-.172.227-.179.231-.186.236-.095.12-.196.243-.1.124-.206.25a5.872 5.872 0 01-.105.127l-.238.284-.268.318-.28.325-.143.166-.406.464-.321.361-1.01 1.127-1.633 1.816-.235.268-.158.182-.142.168-.127.152-.076.094-.103.129-.102.134-.037.051.066.131c.103.202.212.402.331.61l.134.232.356.603.106.183.042.074c.476.861.566 1.493-.026 2.094l-1.419 1.447-4.359 4.425-1.875 1.911-.884.905-1.016 1.043-.812.838-.935.969-.749.781-.864.907-.695.733-.805.856-.649.696-.506.547-.496.538-.366.4-.361.396-.591.654-.465.519-.459.515-.566.643-.449.512-.374.431c-.567.654-1.128 1.312-1.692 1.982a.832.832 0 01-1.272-1.071c.525-.624 1.047-1.237 1.574-1.846l.377-.435.342-.392.459-.523.464-.524.469-.526.475-.529.604-.668.494-.54.502-.547.513-.555.658-.705.54-.576.554-.588.858-.904.443-.463.914-.953.792-.821.823-.85 1.206-1.239 1.463-1.495 1.56-1.586 4.506-4.576.764-.78-.003-.007a2.364 2.364 0 00-.051-.107l-.044-.084-.037-.066-.22-.377-.3-.508c-.27-.465-.497-.892-.716-1.362-.166-.355-.1-.627.065-.946.067-.128.157-.268.275-.429l.078-.105.07-.091.076-.096.081-.101.088-.107.144-.172.158-.186.175-.201.304-.344 2.252-2.505.704-.792.259-.296.249-.288.24-.281.117-.138.229-.271.098-.119.193-.233.186-.228.18-.224.174-.219.168-.214.162-.21.155-.206.149-.201.143-.196.136-.192c.178-.252.339-.493.482-.721l.105-.169c.101-.167.192-.327.274-.48.261-.49.407-.888.439-1.167a.827.827 0 00.005-.126l-.001-.014-.021.007a2.432 2.432 0 00-.423.223l-.051.033a6.268 6.268 0 00-.437.318l-.134.108c-.092.075-.186.156-.283.241l-.148.132a4.652 4.652 0 00-.076.068l-.154.143c-.078.073-.158.149-.239.228l-.165.161-.168.168-.086.087c-.254.259-.519.539-.797.84l-.202.222-.395.445-1.425 1.622-.407.457-.214.238-.173.188-.08.085-.042.042-.033.032-.012.011-6.974 5.931-.972.822-.947.797-.694.582-.682.569-.448.373-.662.548-.65.536-.639.524-.421.343-.623.506-.41.331-.405.327-.403.322-.596.475-.393.312-.39.307-.387.304-.575.448-.38.294-.565.434-.56.427-.556.419-.552.413-.365.271-.365.269-.363.266-.362.263-.542.391-.54.386-.359.254-.36.253-.359.251-.539.373-.36.247-.36.245-.361.244-.362.243-.545.362-.547.361-.184.119a.831.831 0 01-.908-1.393l.362-.237.36-.237.345-.229.344-.23.343-.231.514-.349.342-.234.341-.235.341-.237.342-.239.512-.361.342-.243.342-.245.343-.247.344-.25.517-.378.347-.255.522-.388.349-.261.528-.398.354-.269.356-.272.539-.414.361-.28.548-.426.553-.435.373-.294.564-.448.572-.458.58-.466.588-.476.397-.323.807-.66.823-.678.843-.698.862-.719.883-.74.905-.762 1.807-1.532 6.101-5.19.026-.025.055-.06.288-.322 1.844-2.101.315-.355.176-.195c.335-.366.653-.703.959-1.015.822-.836 1.538-1.467 2.162-1.878z" fill="url(#paint39_linear_90_215)"/><path fill-rule="evenodd" clip-rule="evenodd" d="M127.878 282.69l-11.636-21.969c16.994 2.01 37.046 35.47 100.052 51.389 50.91 11.791 108.647 38.486 162.037 12.416 39.333-17.407 75.38-30.794 98.803-48.675l12.924 9.277s-3.737 15.792-58.37 45.6c-54.632 29.796-89.365 52.152-131.58 50.289-42.217-1.863-172.23-98.327-172.23-98.327z" fill="#fff"/><path d="M115.507 261.111l11.636 21.968c.058.11.14.205.24.279l.807.596 1.425 1.047 1.935 1.413 1.9 1.381 1.444 1.047 1.782 1.286 1.216.876 1.866 1.34 1.593 1.139 1.956 1.396 1.666 1.184 1.356.962 2.071 1.465.35.247c16.342 11.532 33.323 23.065 50.069 33.829.47.303.94.605 1.409.905l1.405.899 1.401.893c.698.444 1.395.887 2.09 1.327l1.388.877 1.383.87 1.377.864c1.145.718 2.285 1.428 3.42 2.132l1.358.841c.678.419 1.354.836 2.028 1.25l1.345.824c.894.547 1.785 1.09 2.672 1.628 36.693 22.262 64.478 35.288 79.976 35.972 11.29.498 22.323-.707 33.729-3.581 13.448-3.387 27.358-9.022 44.749-17.801l.956-.485 1.076-.547 1.085-.555 1.094-.564 1.331-.689 1.351-.705 1.375-.721 1.639-.865 1.196-.634 1.219-.65 1.75-.937 1.803-.971 2.134-1.154 1.377-.748 2.275-1.24 2.676-1.465 2.995-1.649 12.659-6.984 6.542-3.602 4.109-2.258 2.489-1.363.407-.222c23.965-13.076 40.093-24.464 49.858-34.117l.16-.159.317-.316.156-.157.308-.312.301-.31.296-.307c.292-.306.576-.607.851-.905l.272-.296.266-.294.26-.291.255-.289.249-.285.122-.142.241-.282.118-.14.232-.277.226-.275.221-.273c.146-.18.288-.359.426-.537l.204-.264c.303-.394.588-.78.855-1.156l.175-.25.086-.124.167-.246.082-.121.16-.242c.131-.2.256-.398.377-.592.548-.887.95-1.656 1.228-2.308.062-.147.116-.283.162-.407l.051-.143.023-.067.037-.117.019-.063.014-.053a.83.83 0 00-.319-.888l-12.924-9.278a.831.831 0 00-.989.015c-9.697 7.403-21.777 14.283-38.366 22.129l-1.151.543a571.083 571.083 0 01-5.976 2.763l-1.033.469-1.625.735-1.637.735-1.454.649-1.7.755-1.531.676-1.354.596-2.359 1.031-2.251.98-3.231 1.399-3.848 1.658-17.269 7.415-4.327 1.868-3.198 1.39-1.928.845-2.294 1.01-2.103.93-.028.013c-19.121 9.337-39.72 12.391-63.18 10.373-6.606-.568-13.419-1.532-20.655-2.893l-.888-.168-.893-.173-.448-.087-.899-.179-.904-.182-.908-.187c-1.67-.345-3.363-.71-5.083-1.096l-.94-.212-.472-.107-1.357-.313-.541-.126c-.451-.105-.9-.211-1.35-.318l-1.005-.239-1.165-.282-1.172-.287-1.182-.293-1.194-.299-1.211-.308-1.23-.316-1-.259-1.272-.334-1.038-.274-1.325-.353-1.084-.291-.829-.223-1.698-.461-1.461-.4-1.813-.5-1.883-.522-2.968-.83-2.438-.685-7.319-2.064-3.547-.998-3.175-.889-2.239-.623-1.776-.492-1.658-.456-1.3-.355-1.234-.334-1.63-.437-1.106-.293-1.273-.333-1.026-.265-.603-.154-.991-.251-.977-.244-.778-.192-.786-.191-.588-.142-.89-.214-1.21-.286-.933-.219-.96-.223c-20.231-5.111-37.251-12.291-52.752-21.501-5.406-3.212-10.497-6.587-15.878-10.447l-.741-.533-.731-.529-.552-.402-.558-.408-.756-.556-.776-.572-1.003-.744-1.267-.945-6.06-4.543-.682-.505-.771-.569-.448-.328-.581-.423-.424-.307-.55-.396-.401-.286-.393-.279-.385-.27-.252-.176-.371-.258-.364-.251-.239-.163-.469-.317-.345-.23-.338-.223-.334-.218-.328-.212-.324-.206-.319-.201-.316-.196-.209-.128-.31-.188-.308-.183-.204-.12-.203-.118-.303-.175c-3.312-1.89-6.171-2.976-8.897-3.298a.832.832 0 00-.833 1.215zm2.267.726l.128.031c1.978.483 4.104 1.397 6.511 2.771l.295.169.297.174.3.178.201.121.202.123.307.188.31.193.314.199.319.204.323.21.329.215.447.298.343.23.349.237.356.244.363.252.247.172.376.264.514.364.397.283.543.39.56.406.725.531.603.443.781.578 2.723 2.037 3.316 2.488 1.109.829 1.055.784.813.602.986.724.579.424.573.417.758.549.568.409.189.135c5.417 3.886 10.547 7.287 15.998 10.525 15.635 9.291 32.803 16.533 53.21 21.688l1.007.235.978.229.954.226.937.224.925.224.308.075 1.066.262 1.158.29.979.248.799.205 1.022.265 1.057.278 1.097.291 1.146.307 1.448.392 1.807.494 1.664.458 2.091.581 2.958.825 3.3.926 5.909 1.665 3.769 1.064 2.178.612 2.086.583 1.343.374 2.581.713 1.85.507 1.784.485 1.44.388 1.402.374 1.368.362 1.071.281 1.315.342 1.034.266 1.273.323 1.255.316.994.247.74.182 1.227.298.978.235.975.232.786.185 1.086.253 1.09.251c.476.109.95.216 1.421.321l.942.21c1.094.242 2.179.476 3.254.702l.919.191c.916.19 1.826.373 2.728.551l.901.176c7.787 1.504 15.084 2.561 22.154 3.169l.711.06c23.211 1.901 43.704-1.149 62.757-10.313l.568-.275 4.193-1.85 2.423-1.061 2.87-1.248 3.229-1.395 7.296-3.136 11.536-4.952 4.187-1.806 2.858-1.238 2.869-1.251 2.479-1.087 1.968-.869 2.088-.928 2.036-.913 1.248-.562 1.245-.565.621-.282 1.195-.546 1.18-.542 1.167-.539c18.163-8.419 31.202-15.667 41.59-23.484l.189-.143 11.919 8.556-.041.099c-.245.573-.608 1.268-1.113 2.085a24.62 24.62 0 01-.359.565l-.153.231a7.944 7.944 0 01-.079.116l-.16.235-.082.119-.168.239-.086.121-.176.243a42.49 42.49 0 01-.657.874l-.2.255-.102.129-.208.26-.106.131-.216.264-.222.267-.113.134-.23.271-.355.412-.244.277a8.26 8.26 0 01-.124.14l-.252.282-.129.142-.261.286-.267.289-.272.291-.279.295-.284.297-.29.299-.148.151-.299.304-.152.153-.308.308-.156.155c-9.547 9.436-25.328 20.607-48.773 33.449l-2.276 1.245-4.763 2.615-13.675 7.535-7.972 4.399-2.433 1.335-2.332 1.274-1.409.767-1.914 1.04-1.851 1-1.286.692-1.506.808-1.469.784-1.435.761-1.404.742-1.377.722-1.352.706-1.109.576-1.097.566-1.302.667-1.288.656-.427.217c-.702.355-1.397.705-2.088 1.05l-1.031.514-.512.254-1.019.502-1.011.495c-14.939 7.286-27.304 12.11-39.271 15.125-11.254 2.835-22.126 4.022-33.25 3.531-15.106-.666-42.753-13.627-79.186-35.732a804.137 804.137 0 01-2.668-1.625l-1.342-.823c-.224-.137-.449-.275-.673-.414l-1.351-.833-1.356-.839-1.362-.847c-.682-.425-1.366-.852-2.052-1.282l-1.375-.862-1.38-.869-1.386-.876-.694-.44-1.393-.885a270.88 270.88 0 01-.698-.445l-1.401-.894-.702-.449-1.407-.903c-16.36-10.517-32.948-21.77-48.944-33.038l-2.109-1.489-1.715-1.214-2.016-1.432-2.293-1.634-1.281-.916-1.571-1.126-1.839-1.323-1.494-1.077-1.457-1.054-2.469-1.795-1.781-1.3-2.225-1.636-10.75-20.297z" fill="url(#paint40_linear_90_215)"/><path fill-rule="evenodd" clip-rule="evenodd" d="M490.713 291.067c-2.816 3.539-17.183-13.553-14.528-17.779 6.707-10.691 23.392 3.651 21.619 12.066-.656 3.113-5.328 3.488-7.091 5.713z" fill="#fff"/><path d="M498.597 285.618l.02-.093c.929-4.41-2.674-10.402-7.971-14.054-5.829-4.019-11.823-3.953-15.165 1.374-1.501 2.389.957 7.562 5.276 12.775a38.999 38.999 0 002.769 3.017l.24.231c.918.875 1.815 1.622 2.644 2.193l.074.05.146.098.073.048.144.093c.12.075.238.147.355.215l.14.08.139.076c.069.037.137.072.205.106l.135.067.067.031.133.061c1.389.613 2.536.568 3.306-.356l.037-.045c.028-.036.057-.071.087-.106l.06-.068a3.25 3.25 0 01.129-.134l.068-.066.036-.032.073-.065.038-.032.079-.064c.026-.022.054-.043.082-.064l.087-.065.045-.032.093-.065.049-.033.101-.066.106-.067.112-.068.058-.035.12-.07.127-.072.133-.074.139-.076.147-.078.154-.081.162-.083.256-.13.804-.4.208-.106.199-.103.095-.05.184-.097.174-.096.167-.093.159-.092.225-.136.143-.09c.14-.091.271-.181.398-.274l.125-.094.123-.095.12-.099c.81-.676 1.345-1.462 1.568-2.416zm-8.895-12.778c4.756 3.279 7.987 8.606 7.31 12.233l-.022.109c-.164.779-.619 1.353-1.583 1.98l-.134.086-.141.087-.073.043-.151.088-.078.045-.161.09-.083.045-.171.093-.179.093-.185.096-.096.048-.717.357-.29.147-.272.139-.172.09-.164.088-.157.086-.151.084-.144.082-.138.082-.132.08c-.065.04-.127.079-.188.119l-.119.078a9.402 9.402 0 00-.223.157l-.105.079a5.46 5.46 0 00-.473.407l-.085.086a3.897 3.897 0 00-.125.132l-.081.091-.08.094-.078.097c-.119.15-.351.204-.688.141l-.082-.017a1.385 1.385 0 01-.087-.022l-.091-.026a2.668 2.668 0 01-.047-.015l-.097-.033-.05-.019-.103-.04-.107-.046-.111-.05-.057-.027-.117-.057a8.133 8.133 0 01-.373-.204l-.132-.078a7.242 7.242 0 01-.136-.084l-.139-.089-.144-.094-.147-.1c-1.159-.798-2.493-2-3.831-3.44l-.229-.249a38.665 38.665 0 01-1.928-2.276l-.216-.278a50.909 50.909 0 01-.212-.276l-.208-.277a37.67 37.67 0 01-1.154-1.637l-.176-.268a28.976 28.976 0 01-1.232-2.064l-.131-.245c-1.192-2.277-1.667-4.123-1.147-4.951 2.748-4.38 7.672-4.434 12.813-.89z" fill="url(#paint41_linear_90_215)"/><path fill-rule="evenodd" clip-rule="evenodd" d="M138.838 291.855c-13.15 3.087-14.679-19.238-11.349-27.82 9.564-6.631 13.236 10.262 11.839 17.066-.152 3.652 3.058 9.916-.49 10.754z" fill="#fff"/><path d="M127.015 263.352a.827.827 0 00-.301.382c-1.822 4.697-2.115 12.647-.536 18.794 1.948 7.584 6.36 11.66 12.85 10.137 1.491-.352 2.222-1.458 2.309-3.079l.002-.058.005-.115.003-.116.001-.116v-.058l-.002-.117-.001-.059-.004-.119-.007-.121-.008-.124-.009-.125-.012-.129-.014-.131-.016-.136-.018-.139-.019-.143-.022-.148-.024-.154-.04-.239-.062-.341-.051-.273-.077-.389-.064-.312-.119-.563-.183-.861-.066-.319-.041-.203-.056-.289-.051-.273-.046-.257-.027-.163-.025-.158-.023-.151-.021-.147-.018-.141-.016-.137-.014-.132-.012-.128-.009-.125-.008-.121-.005-.118-.003-.116-.001-.057-.001-.112.002-.11.001-.045-.014.071c.783-3.813.039-9.911-1.867-14.084-2.438-5.339-6.455-7.164-11.26-3.833zm9.747 4.524c1.762 3.857 2.462 9.596 1.751 13.058a.847.847 0 00-.016.133l-.005.129-.001.065-.001.13v.066l.002.131.004.134.006.135.009.138.01.14.013.144.016.147.017.15.02.156.034.241.026.167.028.173.031.179.05.281.056.296.062.313.068.331.073.35.185.87.089.436.061.311.038.199.053.289.032.186.03.18.028.174.025.169.034.244.02.156.017.15.007.073.014.143.011.138.009.133.007.129.004.123.001.06v.117l-.002.112c-.003.109-.01.212-.021.309l-.012.095c-.101.709-.425 1.052-.998 1.187-5.434 1.275-9.108-2.12-10.858-8.932l-.044-.175c-1.402-5.625-1.171-12.84.372-17.206l.057-.158.018-.011c3.721-2.45 6.56-1.09 8.57 3.312z" fill="url(#paint42_linear_90_215)"/><path d="M200.087 320.26a.831.831 0 011.13-.325c40.124 22.224 76.336 32.772 116.753 32.48a.831.831 0 01.012 1.663c-40.725.294-77.211-10.334-117.571-32.688a.83.83 0 01-.324-1.13z" fill="url(#paint43_linear_90_215)"/><path d="M401.407 341.161a.831.831 0 11.871 1.416c-19.52 12.009-38.053 19.234-58.122 22.976-17.491 3.262-35.843 3.98-62.049 2.954a.832.832 0 01.065-1.662c26.093 1.021 44.333.308 61.679-2.927 19.866-3.704 38.207-10.854 57.556-22.757z" fill="url(#paint44_linear_90_215)"/><path d="M471.434 289.994a.832.832 0 01.725 1.496l-.476.232-.474.233-.473.234-.472.234-.47.236-.469.237-.469.239-.467.24-.234.121-.467.242-.467.244-.467.246-.467.247-.701.375-.468.253-.468.255-.47.257-.471.26-.472.262-.473.264-.237.133-.476.269-.718.408-.481.275-.483.279-.486.282-.489.284-.491.289-.494.291-.498.295-.501.299-.759.455-.767.463-.776.472-.523.32-.793.487-.803.497-.542.337-.824.514-.835.525-.849.535-.862.547-.876.557-1.768 1.133-7.876 5.079-1.748 1.123-.704.449-.915.582-.601.38-.89.561-.586.366-.866.541-.57.353-.844.521-.557.341-.55.336-.274.166-.813.491-.268.162-.534.319-.529.315-.524.31-.521.306-.516.301-.513.298-.255.147-.507.291-.504.288-.251.142-.499.281-.496.278-.493.274-.246.135-.49.269-.243.133-.487.263-.484.26-.482.257-.48.253-.479.25-.239.124-.477.246-.475.243-.238.121-.474.238-.237.119-.473.234-.473.233-.473.229-.236.114-.473.226-.473.224-.473.222-.237.11-.474.219-.475.216-.238.108-.476.214-.478.212-.239.105-.24.105c-9.885 4.317-19.897 7.086-30.952 8.325a.831.831 0 11-.185-1.652c10.885-1.221 20.735-3.945 30.471-8.197l.474-.208.472-.209.471-.212.235-.106.469-.214.469-.216.468-.218.468-.221.234-.111.467-.224.468-.226.467-.228.468-.231.235-.117.469-.235.47-.237.47-.241.472-.243.474-.247.475-.249.238-.126.477-.254.48-.258.481-.261.484-.264.243-.134.487-.269.491-.274.246-.138.495-.279.497-.283.754-.431.506-.293.51-.298.515-.301.518-.306.523-.31.527-.314.532-.319.536-.324.542-.329.546-.333.552-.339.558-.343.563-.349.856-.532.578-.362.584-.367.889-.561.904-.573 1.318-.842 9.885-6.371 1.198-.765.881-.561.58-.368.573-.362.567-.358 1.117-.7.824-.514.543-.336.538-.333.797-.49.526-.322.781-.475.772-.466.255-.153.508-.304.504-.301.501-.297.498-.293.494-.29.492-.287.49-.284.486-.28.485-.278.482-.274.48-.272.479-.269.477-.266.475-.264.474-.262.474-.259.472-.256.471-.255.472-.253.47-.25.471-.249.47-.247.471-.245.471-.243.708-.363.473-.239.474-.239.475-.237.476-.237.478-.235.479-.234.241-.117z" fill="url(#paint45_linear_90_215)"/><path fill-rule="evenodd" clip-rule="evenodd" d="M313.907 300.057c-110.383 1.473-78.821 11.576-129.693 96.952-10.76 6.263-29.174-12.047-24.916-3.064 2.743 5.356 26.871 30.106 34.375 30.485 3.931-2.014 58.926-78.885 62.19-84.562 0 0 61.913-2.738 69.875-4.539" fill="#fff"/><path d="M313.896 299.225a.833.833 0 01.023 1.664c-37.582.501-56.31 2.047-69.002 6.058-12.47 3.941-19.136 10.216-26.151 23.527l-.248.473-.249.479-.25.486-.378.744-.256.509-.194.389-.328.662-.267.545-.41.845-.423.88-.438.921-.377.799-.47 1.003-.574 1.234-.783 1.695-3.905 8.543-1.006 2.189-.635 1.373-.616 1.328-.608 1.302-.304.647-.274.585-.55 1.164a536.722 536.722 0 01-2.201 4.592l-.552 1.134a432.275 432.275 0 01-17.542 32.44.831.831 0 01-.296.293c-2.708 1.576-5.965 1.813-9.722.973-2.489-.557-5.056-1.536-8.072-2.973l-.455-.219-.376-.183-.517-.255-.549-.274-2.427-1.229-.376-.188-.347-.17-.242-.117-.3-.142-.277-.128-.13-.058-.185-.081-.174-.074-.11-.045-.157-.062-.148-.055-.094-.033-.091-.031-.044-.014a3.13 3.13 0 00-.162-.049l-.097-.026-.035-.008.005.023c.065.259.19.598.379 1.017l.079.172.035.076.037.071c.298.558.824 1.324 1.535 2.245l.207.268.218.276.227.283.117.145.241.295.25.303.128.154.263.313.135.159.276.323.14.164.288.332.146.169.299.341.307.346.313.352.32.357.327.361.333.366.34.371.345.374.351.378.357.381.545.577.184.194.372.39.188.196.378.394.383.395.193.198.389.398.392.399.197.2.398.401.4.401.606.603.407.402.205.201.41.401.413.401.414.4.415.399.417.397.209.199.454.429.481.45.477.444.475.438.471.431c.157.143.312.285.468.425l.464.419.461.411.457.405c.151.133.302.266.453.397l.449.391.445.383c.664.57 1.314 1.116 1.948 1.635l.421.343c4.597 3.723 8.313 6.032 10.444 6.323l.033.004.035-.029.069-.059.076-.068.081-.078.043-.041.091-.091.098-.099.103-.107.11-.117.116-.125.121-.133.128-.142.203-.228.216-.247.151-.175.158-.184.162-.191.255-.303.268-.32.281-.338.393-.479.415-.51.548-.68.463-.579.607-.764.509-.645.528-.674.688-.882.865-1.116.6-.779.619-.805.636-.832.996-1.308.829-1.094 1.028-1.361 1.242-1.652 1.474-1.97 1.143-1.532 1.371-1.845 1.411-1.903 1.657-2.245 1.704-2.314 1.526-2.079 2.233-3.052 1.829-2.507 1.864-2.561 1.592-2.193 1.514-2.089 1.64-2.268 1.226-1.699 1.625-2.254 2.009-2.795 1.585-2.208 1.56-2.178 1.53-2.141 1.497-2.098 1.458-2.048 1.416-1.993 1.368-1.93 1.317-1.862 1.566-2.222.6-.853.87-1.24 1.102-1.573.779-1.117.496-.713.934-1.346.852-1.236.583-.851.361-.529.338-.498.463-.686.279-.417.13-.195.241-.365.215-.33c.27-.416.47-.736.594-.952a.833.833 0 01.684-.417l3.885-.177 5.187-.244 2.751-.133 3.879-.19 3.094-.155 2.31-.118 3.061-.159 2.278-.12 2.26-.121 2.238-.121 2.216-.123 1.462-.082 2.106-.12 2.696-.156 2.607-.156 2.515-.153 2.421-.153 1.752-.113 1.417-.094 1.917-.13 1.58-.11 1.751-.126 1.563-.117 1.485-.115 1.012-.081 1.16-.096.92-.079 1.049-.093.665-.061.946-.091.74-.075.56-.059.402-.043.634-.072.359-.043.23-.028.332-.042.315-.041.298-.041.373-.055.259-.04.243-.039.226-.039.209-.039.191-.038.119-.025.056-.013a.831.831 0 01.367 1.622l-.122.027-.128.027-.137.027-.218.04-.155.028-.331.055-.268.042-.284.042-.301.042-.209.029-.328.043-.228.029-.476.058-.505.059-.398.044-.697.075-.59.06-.937.092-.829.078-1.051.095-.922.079-.966.081-1.007.082-1.264.099-1.549.117-1.423.105-1.543.109-1.875.13-1.954.131-1.443.094-1.782.114-2.773.172-2.565.155-1.649.097-2.366.138-2.79.158-1.419.079-2.871.158-2.907.156-1.465.078-1.473.077-2.963.153-2.982.151-2.995.15-1.501.074-5.896.284-7.042.326-.025.039-.167.265-.194.301-.107.165-.233.355-.258.389-.283.423-.307.456-.505.744-.365.535-.387.566-.408.595-.653.946-.941 1.357-1.017 1.46-1.09 1.559-1.158 1.65-.91 1.294-1.266 1.795-1.322 1.87-1.373 1.937-1.783 2.509-1.847 2.593-1.52 2.127-1.55 2.167-1.578 2.201-1.199 1.67-.806 1.12-1.623 2.255-1.637 2.268-1.233 1.707-1.237 1.708-1.237 1.707-2.316 3.187-2.077 2.85-2.253 3.083-1.323 1.804-1.514 2.06-1.896 2.572-1.836 2.482-.796 1.072-1.361 1.829-1.134 1.519-1.101 1.471-1.244 1.654-.86 1.14-1 1.319-.731.961-.735.963-.709.925-.683.888-.818 1.057-.626.804-.6.766-.574.728-.549.692-.394.493-.381.473-.366.451-.236.289-.23.28-.224.27-.323.388-.208.247-.201.238-.29.338-.186.214-.266.303-.17.19-.164.181-.079.087-.154.166-.148.158-.141.147-.135.139-.129.128-.123.12-.116.11c-.283.263-.508.437-.674.522a.83.83 0 01-.421.09c-3.236-.163-9.171-4.239-16.452-10.788l-.498-.451a25.89 25.89 0 01-.251-.228l-.505-.461-.508-.469c-.425-.394-.855-.796-1.288-1.205l-.434-.411-.434-.414-.432-.414-.43-.416-.429-.417-.426-.417-.424-.417-.421-.418-.418-.417-.416-.417-.412-.416-.205-.208-.406-.414-.403-.413-.398-.411a38.974 38.974 0 00-.198-.205l-.391-.409-.387-.405-.382-.403-.377-.401-.371-.397-.365-.393-.181-.196-.356-.388-.35-.383-.343-.38-.337-.374-.329-.37-.322-.365-.315-.359-.307-.353-.298-.347a61.156 61.156 0 01-.291-.341l-.282-.335-.138-.165-.268-.324-.131-.159-.255-.313c-1.168-1.444-2.026-2.64-2.464-3.463l-.045-.086-.011-.023a12.67 12.67 0 01-.081-.174l-.077-.168-.036-.082-.069-.161a8.975 8.975 0 01-.179-.453l-.05-.141c-.251-.745-.291-1.301-.091-1.757.212-.484.65-.743 1.174-.778.349-.023.74.049 1.21.199l.104.035.107.037.111.039.113.042.116.046.121.048.124.051.128.054.202.088.213.095.225.104.238.112.167.08.263.127.278.137.398.198 2.144 1.086.286.145.41.205.39.193.376.185.367.178.322.154.394.187c.327.153.648.3.964.442l.376.167c2.182.96 4.122 1.639 5.988 2.057 3.235.723 5.976.566 8.218-.619l.121-.065.231-.388c7.872-13.253 14.126-25.232 20.425-38.61l.577-1.229.79-1.692.598-1.291.83-1.799.999-2.179 3.367-7.367.798-1.733.667-1.435.553-1.181.454-.961.366-.769.356-.741.347-.716.338-.693.2-.405.328-.66.194-.388.384-.758.253-.495.377-.728.251-.478c13.299-25.233 26.936-29.542 96.601-30.473z" fill="url(#paint46_linear_90_215)"/><path fill-rule="evenodd" clip-rule="evenodd" d="M320.082 299.595c-.13-.063-.259-.125-.388-.2l.388.2z" fill="url(#paint47_linear_90_215)"/><path fill-rule="evenodd" clip-rule="evenodd" d="M335.972 293.193c0-.575-.129-.388.581-.388l-.581.388z" fill="url(#paint48_linear_90_215)"/><path fill-rule="evenodd" clip-rule="evenodd" d="M311.923 298.269l-1.629-14.854 50.869 10.203c-4.154 7.548 12.089 29.735 14.147 33.097-9.611 8.867-53.6 11.599-60.968 10.29l-6.349-37.085 3.93-1.651z" fill="url(#paint49_linear_90_215)"/><path fill-rule="evenodd" clip-rule="evenodd" d="M450.712 266.673c1.232-1.334 33.991-2.082 33.676-.988 0 0 31.048-38.585 33.035-42.286 1.987-3.689-2.72-15.392.111-20.581 2.831-5.176 2.725 2.401 3.625 5.201.9 2.801 2.711-15.379 2.711-15.379 13.002 10.555 12.201 19.534 10.536 37.361-19.613 65.638-51.921 66.754-107.752 72.169" fill="#fff"/><path d="M524.394 191.995c6.438 5.225 9.756 10.228 11.058 16.427.577 2.75.777 5.776.676 9.501l-.015.497-.015.443-.007.177-.022.532-.034.689-.032.573-.048.766-.056.812-.058.769-.083 1.04-.096 1.142-.172 1.944-.256 2.771a.79.79 0 01-.031.161c-8.883 29.727-20.595 47.266-37.436 57.337-7.598 4.544-16.335 7.666-27.158 9.922l-.524.109-.263.053-.525.106-.527.105-.529.103-.265.051-.532.101-.534.1-.537.098-.27.049-.541.097-.546.095-.549.095-.554.093-.559.093-.563.091-.284.046-.571.09-.577.09-.583.088-.59.089-.297.043-.6.087-.608.087-.614.086-.623.086-.631.085-.64.085-.648.085-.657.084-1.005.126-1.027.126-.698.084-1.067.126-1.092.126-1.12.127-1.147.127-1.176.128-1.206.129-1.237.13-1.7.175-1.759.179-1.361.135-1.87.184-10.668 1.028a.832.832 0 01-.161-1.655l10.19-.982 1.416-.138 1.38-.136 1.784-.179 1.722-.176 1.254-.131 1.221-.129 1.582-.17.771-.085 1.133-.126 1.105-.126 1.079-.126.706-.083.694-.084 1.022-.125.669-.084.659-.084.65-.084.64-.084.945-.127.619-.085.611-.086.604-.086.597-.086.589-.087.583-.088.289-.044.858-.134.565-.09.281-.045.557-.092.276-.046.55-.093.546-.093.541-.095.538-.096.268-.049.533-.097.53-.099.528-.1.525-.102.523-.103.261-.052.522-.105.52-.107.259-.054c10.655-2.221 19.222-5.282 26.644-9.721 16.278-9.734 27.693-26.683 36.432-55.509l.241-.799.238-2.577.153-1.721.1-1.175.079-.964.061-.794.047-.652.047-.706.026-.423.033-.575.032-.64.024-.55.007-.175c.01-.261.019-.523.027-.787l.011-.442.01-.435c.016-.934.012-1.82-.014-2.667l-.014-.388c-.078-1.989-.282-3.756-.629-5.406-1.133-5.395-3.896-9.82-9.23-14.433l-.059-.051-.097.9-.095.849-.096.847c-.064.564-.13 1.123-.197 1.676l-.101.823-.102.81-.076.587-.073.555-.097.714-.048.345-.072.505-.071.486-.071.468-.07.449-.07.43-.046.276-.068.396-.062.347-.041.22-.04.213-.061.303-.059.284-.04.18-.039.171-.039.162-.039.155-.038.146-.019.07-.038.133-.038.125-.038.117-.038.108c-.178.493-.346.779-.731.941-.403.17-.815.037-1.075-.261a1.467 1.467 0 01-.283-.536l-.041-.132-.027-.09-.025-.091-.038-.14-.037-.147-.036-.153-.035-.163-.036-.172-.036-.185-.037-.197-.051-.287-.068-.401-.073-.454-.145-.91-.075-.456-.058-.332-.042-.231-.054-.285-.04-.196-.039-.183-.039-.169-.025-.106-.038-.148-.026-.092-.025-.087a.647.647 0 00-.013-.041l-.025-.079-.025-.074-.026-.07a.45.45 0 00-.013-.033l-.025-.063-.013-.029-.025-.052-.043.047-.057.069-.062.077c-.05.064-.101.134-.154.211l-.081.121c-.123.188-.255.41-.395.666a6.213 6.213 0 00-.612 1.741l-.031.162a9.462 9.462 0 00-.102.683l-.019.18-.009.091-.015.186-.014.19-.011.193c-.006.13-.011.264-.014.399l-.004.206-.002.21.001.214.003.219.005.222.007.227.01.232.012.236.006.12.016.243.017.247.019.252.022.257.023.262.026.266.027.272.03.276.032.281.034.286.036.292.037.296.051.382.125.909.334 2.323.119.857.077.582.063.509.033.29.029.272.031.311.029.353.021.277.017.281.013.231.011.247.008.241c.039 1.546-.134 2.705-.6 3.569l-.022.042-.052.09-.028.049-.064.105-.072.115-.08.125-.135.205-.1.148-.107.159-.177.255-.263.373-.217.304-.235.326-.34.466-.275.373-.393.529-.422.565-.452.601-.732.966-.66.865-.559.73-.739.96-.782 1.012-.995 1.282-1.604 2.058-1.536 1.963-1.766 2.246-1.62 2.055-1.704 2.157-1.635 2.063-1.649 2.079-1.675 2.107-1.695 2.129-1.71 2.144-2.152 2.693-3.426 4.281-3.047 3.795c-.338.42-.873.383-1.2.102l-.014-.013-.053-.01-.088-.016-.099-.016a1.14 1.14 0 01-.053-.008l-.116-.015-.126-.015-.136-.015-.146-.014-.154-.014-.247-.02-.267-.019-.384-.023-.31-.016-.441-.02-.352-.014-.368-.012-.386-.011-.541-.013-.645-.013-.525-.008-.544-.006-.751-.005-.78-.003h-.806l-.829.004-.637.004-.866.008-.884.011-.899.013-.913.017-.923.019-.932.022-.955.025-.969.028-.959.03-.948.033-.468.017-.697.027-.687.028-.9.04-.442.02-.869.043-.846.044-.617.035-.799.047-.58.037-.563.038-.544.038-.484.036-.445.035-.428.036-.276.024-.528.049-.376.037-.24.025-.344.037-.22.026-.211.025-.3.039-.189.026-.182.026-.173.026-.163.027-.153.026-.144.026-.132.027-.123.026-.112.026-.095.024-.079.022-.035.011-.061.02a.771.771 0 00-.026.009l-.021.008-.01.009a.831.831 0 01-1.046-.013l-.033-.029a.832.832 0 01.071-1.28l.047-.034c.032-.022.067-.044.105-.065l.059-.032.031-.015.064-.031.069-.029.073-.03.077-.028.081-.028.086-.028.089-.027.094-.026.099-.026.102-.025.108-.025.111-.024.116-.024.121-.024.189-.034.2-.034.139-.022.218-.032.151-.021.235-.031.332-.041.173-.02.361-.039.381-.039.402-.038.531-.047.45-.038.838-.065.485-.036.556-.038.573-.038.591-.037.606-.035.413-.024.846-.045.65-.032.662-.032.674-.03.915-.039.698-.028.943-.034.717-.025 1.207-.038.976-.027.951-.025 1.168-.026 1.153-.022.908-.014.893-.012.877-.009.645-.004.633-.003.824-.002.601.001.587.002.571.004.735.008.702.01.631.013.563.015.531.017.253.009.482.02.229.011.327.018.207.013.295.019.186.014.262.022.083.008.185.018.173.02.162.02c.157.021.296.043.419.067l.043.008 4.042-5.04 1.594-1.992 2.153-2.693 2.138-2.681 1.694-2.128 1.674-2.106 1.24-1.561 2.043-2.579 1.362-1.723 1.566-1.987 1.491-1.895 1.64-2.092 1.104-1.413 1.249-1.604.975-1.258.737-.954.865-1.126.802-1.049.596-.783.553-.733.511-.68.355-.477.434-.588.297-.406.271-.376.166-.233.155-.219.144-.205.067-.097.126-.184.114-.169.102-.155.091-.14.078-.126a4.38 4.38 0 00.12-.208c.294-.546.427-1.424.403-2.656l-.005-.209a3.617 3.617 0 01-.004-.106l-.01-.219a33.39 33.39 0 00-.037-.599l-.019-.241-.026-.294-.031-.308-.036-.329-.028-.235-.039-.315-.044-.343-.096-.702-.209-1.473-.212-1.475-.081-.582-.072-.549-.04-.309-.037-.305-.036-.299-.033-.294-.031-.29-.029-.284-.027-.28-.025-.275-.023-.271-.01-.133-.019-.264-.017-.259-.015-.255-.013-.25-.01-.246c-.01-.285-.016-.561-.016-.829v-.228l.004-.224.005-.22.004-.108.01-.215.012-.21.007-.104.016-.205c.121-1.424.435-2.588.983-3.593.564-1.031 1.062-1.673 1.583-1.981.735-.434 1.482-.2 1.946.482l.045.067.021.034.043.069.04.072.04.074.038.076.037.079.036.082.035.084.035.089.016.045.033.094.016.048.032.099.032.104.015.054.031.11.03.116.03.12.03.126.029.131.03.137.029.143.045.226.03.159.06.339.063.367.099.609.08.508.035-.2.068-.395.067-.415.046-.288.069-.448.07-.467.07-.485.071-.503.048-.345.072-.531.097-.734c.102-.789.203-1.603.302-2.432l.098-.833.048-.419.096-.842.047-.423.108-.987.128-1.206.068-.67a.832.832 0 011.352-.563z" fill="url(#paint50_linear_90_215)"/><path d="M310.065 298.527l41.765 2.175a.832.832 0 01-.045 1.662l-.042-.001-41.765-2.176a.832.832 0 01.045-1.662l.042.002z" fill="#fff"/><path fill-rule="evenodd" clip-rule="evenodd" d="M228.414 314.911l2.678-5.051 20.326-5.689-35.251 7.314 12.247 3.426z" fill="url(#paint51_linear_90_215)"/><path d="M178.771 409.9a.831.831 0 011.165-.164l.187.139.188.137.126.09.128.09.13.09.201.136.137.092.215.14.149.096.234.148.249.155.264.163.283.172.516.311.652.389.245.148.352.213.333.204.316.197.201.127.29.184.184.121.179.117.173.116.167.114.163.113.158.112.077.055.151.11.147.11.144.11.141.109.138.11.135.11.133.112.131.112.129.114.129.115.127.118.127.119.127.122.127.125.064.063a.832.832 0 01-1.177 1.175l-.057-.057-.115-.112-.114-.11-.115-.108-.116-.106-.117-.105-.118-.104-.12-.102-.122-.102a14.034 14.034 0 00-.062-.05l-.126-.102-.129-.1-.132-.101-.135-.102-.139-.102-.216-.154-.15-.105-.155-.106-.16-.108-.166-.109-.171-.112-.178-.115-.279-.177-.294-.183-.312-.192-.329-.2-1.223-.733-.424-.256-.198-.121-.189-.117-.27-.168-.254-.16-.241-.156-.23-.151-.221-.148-.143-.099-.141-.098-.139-.099-.07-.049-.133-.097a20.492 20.492 0 01-.268-.199.831.831 0 01-.164-1.164z" fill="url(#paint52_linear_90_215)"/><path d="M380.054 348.306a.831.831 0 01-.605 1.009l-.54.134-.52.127-.852.204-1.528.356-4.211.964-1.079.251-.76.18-.705.17-.569.141-.636.16-.441.114-.462.121-.184.049-.555.15c-.841.229-1.405.021-2.04-.533l-.183-.165c-.271-.245-.397-.322-.573-.345-.259-.036-.645.051-1.209.326l-.133.067-.069.036-.091.049-.114.068-.215.133-.321.205-.031.02-.002.048c-.015.299-.115.616-.277.936l-.028.053c-.271.512-.722 1.062-1.26 1.558-.534.494-1.121.904-1.656 1.143-.769.344-1.484.374-2.01-.152-.392-.395-.368-.891-.132-1.334.125-.235.319-.473.582-.737.149-.15.322-.309.518-.478l.151-.128.078-.065.163-.133.085-.068.175-.137.183-.141.19-.144.198-.147.105-.077.219-.158.146-.105-.043-.007c-.798-.125-1.905.005-3.224.372l-.215.061c-.254.074-.515.157-.783.248l-.232.08c-.582.205-1.195.448-1.831.728l-.256.113-.129.059-.259.119-.25.118-.21.101-.21.103-.209.105-.209.105-.311.162-.206.109-.205.11-.306.166-.201.113-.2.113-.199.114-.196.114-.195.115-.192.115-.19.115-.188.116-.277.173-.27.173-.177.115-.174.115-.171.115-.167.114-.164.113-.239.168-.155.112-.151.11-.146.109-.143.109-.138.106-.134.106-.13.104-.125.102-.12.101-.058.05-.112.098-.108.096-.051.048-.1.093-.048.046-.091.09a4.872 4.872 0 00-.203.215l-.071.081c-.113.134-.2.257-.26.366l-.017.033a.832.832 0 01-1.486-.746 3.19 3.19 0 01.35-.535l.085-.104c.16-.193.35-.395.567-.605l.122-.116.126-.117.131-.118.137-.119.141-.12.072-.061.149-.122.152-.123.157-.123.162-.125.165-.125.17-.126.173-.126.088-.063.179-.127.182-.127.186-.128.189-.127.193-.128.195-.127.199-.127.201-.127.101-.064.206-.126.207-.127.21-.125.212-.125.215-.125.216-.123.218-.123.22-.122.222-.121.223-.12.224-.118.226-.117.226-.116.228-.115.114-.056.229-.112.23-.111.251-.119.249-.115.248-.113.245-.109.122-.053.243-.105.121-.051.24-.1.238-.096.235-.093.234-.09.232-.086c.115-.042.229-.084.343-.123l.226-.078c.075-.026.149-.05.223-.074l.222-.071c2.532-.794 4.596-.885 5.917-.052l.013.008.255-.164.199-.125.13-.08.144-.085.057-.033.047-.025c1.805-.974 2.848-.851 3.898.072l.209.189.063.055.056.045c.138.11.207.125.338.095l.052-.013.47-.128.187-.05.655-.172.742-.189.671-.167.819-.198.775-.184.845-.197 1.8-.414 2.816-.644 1.147-.266.856-.204.615-.149.679-.169a.831.831 0 011.008.605z" fill="url(#paint53_linear_90_215)"/><path d="M442.938 319.404c.205.41.038.91-.372 1.115l-.426.211-.437.212-.299.144-.305.144-.47.221-.324.15-.332.152-.34.155-.35.158-1.072.476-5.066 2.207-1.505.662-.554.249-.202.091-.398.182-.393.181-.388.179-.381.179-.377.178-.186.089-.368.177-.363.177-.357.175-.353.175-.174.088-.345.174-.17.087-.337.174-.333.174-.164.087-.325.173-.32.173-.158.086-.314.173c-.155.087-.309.173-.461.26l-.302.172-.297.174-.147.086-.291.173-.287.174-.282.174-.14.087-.276.175-.136.087-.271.175-.133.088-.265.176c-.481.324-.942.65-1.386.982l-.241.181-.237.183-.234.183-.23.184-.227.186a5.114 5.114 0 00-.113.094l-.222.187-.22.189-.109.095-.215.191c-.356.32-.7.646-1.033.979a.831.831 0 11-1.176-1.176c.141-.141.283-.28.427-.418l.217-.206.109-.102.222-.203c.111-.101.223-.202.337-.302l.228-.199.231-.197c.311-.262.629-.521.956-.776l.247-.19.251-.19.254-.188.257-.187c.216-.156.436-.31.659-.464l.271-.184c.136-.092.273-.183.412-.274l.28-.182c.188-.122.378-.242.572-.363l.292-.18.147-.09.298-.18.303-.179.153-.09.309-.179.157-.089.315-.179.321-.179.325-.178.33-.179.167-.089.337-.179.342-.179.347-.179.352-.18.357-.179.18-.09.365-.181.37-.181.375-.182.381-.182.386-.183.392-.183.397-.185.403-.185.409-.187.415-.187.595-.265 1.783-.782 4.751-2.07.511-.227.355-.159.513-.232.493-.226.318-.147.462-.216.3-.143.293-.14.287-.139.281-.138.276-.138a.833.833 0 011.116.373z" fill="url(#paint54_linear_90_215)"/><path d="M431.473 311.1a.832.832 0 01-.461 1.082l-1.306.525a.83.83 0 11-.62-1.543l1.305-.525a.832.832 0 011.082.461z" fill="url(#paint55_linear_90_215)"/><path d="M257.012 355.253c.342-1.347 1.219-1.959 2.252-1.405.36.193.683.509 1.005.923l.065.087.07.097.073.103.156.23.129.196.069.11.012.022.002.004-.005-.004-.019-.026a.831.831 0 11-1.354.965l-.029-.045-.16-.257a6.133 6.133 0 00-.322-.461 3.414 3.414 0 00-.234-.273l-.045-.046-.002.006c-.019.06-.038.127-.056.203l-.014.058a.772.772 0 01-.042.134l-.019.043c-.057.121-.004.313.166.556l.049.067c.034.046.073.094.115.143l.067.075.072.077a5.7 5.7 0 00.078.079l.085.081a.853.853 0 00.044.041l.093.085c.096.085.201.173.314.263l.117.091.061.046.126.093.065.048.135.095.141.097.148.098.153.099c1.623 1.031 3.945 2.044 6.205 2.715 1.022.303 1.975.519 2.802.641l.076.011-.011-.048a4.628 4.628 0 01-.094-1.139l.004-.075c.104-1.649 1.244-2.647 2.912-1.98.14.055.261.148.352.267.828 1.081 1.234 1.993 1.187 2.791-.042.708-.423 1.236-1.033 1.559l-.042.022.083.038a8.34 8.34 0 002.166.624l.132.02.18.024.177.023.177.019c.118.013.237.023.359.033l.186.012.094.006.195.01.203.007.212.006.224.004.237.002h.295l.393-.002.431-.005 1.497-.026.309-.003.297-.001a.831.831 0 01.042 1.662l-.042.001-.434.002-.444.006-1.178.021-.425.006-.483.003-.267-.001-.253-.002-.24-.004-.228-.006-.147-.005-.213-.01-.206-.012-.135-.009-.132-.01-.131-.012-.131-.012-.13-.014-.195-.023-.132-.017-.199-.027c-1.575-.227-2.932-.721-4.179-1.589a2.34 2.34 0 01-.387-.349l-.029-.033-.049-.003c-1.137-.067-2.502-.335-3.994-.77l-.132-.039c-2.4-.713-4.863-1.786-6.624-2.906l-.156-.1-.152-.101a1.915 1.915 0 01-.074-.05l-.147-.1-.142-.101-.138-.101-.134-.1c-.044-.034-.088-.067-.13-.101l-.126-.101-.122-.101c-1.236-1.043-1.789-2.096-1.382-3.145l.024-.06.01-.04zm14.634 4.399l-.006-.002c-.287-.068-.381.066-.419.516l-.006.094c-.026.404.052.847.185 1.214l.012.034.025-.002a3 3 0 00.462-.074l.05-.014c.314-.087.39-.163.397-.282.01-.173-.066-.43-.241-.762l-.059-.107a4.96 4.96 0 00-.216-.351l-.086-.126c-.014-.022-.03-.044-.045-.065l-.053-.073z" fill="url(#paint56_linear_90_215)"/><path fill-rule="evenodd" clip-rule="evenodd" d="M357.827 275.463c-5.507-2.976.873-11.578-.265-15.391-1.033-3.452-7.12-2.164-6.009-8.078 5.343-.226 16.03 10.235 19.118 17.142" fill="#fff"/><path d="M351.517 251.163c1.456-.061 3.242.547 5.209 1.691l.228.134c.343.205.691.426 1.044.662l.236.159.237.164.119.084.239.171.24.175c.12.088.241.178.362.27l.243.185.244.19c.162.128.326.259.49.392l.246.202c.37.306.743.625 1.117.957l.25.223.125.114.251.228.126.116c.241.223.48.45.717.679l.284.276.281.278a47.65 47.65 0 014.664 5.386l.214.294c1.165 1.611 2.113 3.186 2.747 4.604a.833.833 0 01-1.519.679c-3.02-6.757-12.657-15.88-17.586-16.608l-.056-.007v.003c-.086.979.09 1.685.485 2.231l.035.046c.109.144.227.275.365.4l.077.068c.066.057.136.113.212.169l.094.067c.049.034.099.068.152.102l.109.069.115.07.122.072.13.074.068.038.141.077.15.08.159.082.662.337.236.122.145.076.136.073.128.071.061.035.117.067.112.067.054.032.103.066.101.066.097.066.048.034.094.069.047.035.093.072a.85.85 0 01.047.037c.682.544 1.152 1.189 1.395 2 .251.841.222 1.833-.026 3.079l-.044.219-.027.127-.047.21-.048.206-.064.256-.074.277-.086.311-.1.353-.282.961-.335 1.133-.101.35-.074.263-.065.237-.062.233-.059.227-.055.223-.052.219-.049.214-.046.21-.042.206-.039.201-.018.099-.034.195c-.423 2.539.044 3.998 1.692 4.889a.831.831 0 01-.79 1.463c-1.646-.89-2.503-2.282-2.676-4.09-.098-1.033.014-2.137.321-3.507l.058-.251.062-.258.033-.132.069-.267.072-.275.115-.416.099-.347.137-.468.239-.808.15-.515.11-.384.125-.448.068-.253.084-.318.057-.225.035-.144.049-.208.03-.133.042-.192.025-.122.023-.119.021-.115.019-.111.017-.108.015-.104.014-.101.011-.099.01-.095.007-.092.006-.09.004-.087.002-.085v-.083l-.001-.08-.003-.079-.003-.038-.005-.076-.008-.075-.004-.036-.011-.072-.011-.071-.014-.07-.007-.035-.016-.068-.018-.068-.019-.067c-.162-.542-.447-.919-1.05-1.332l-.106-.071a7.544 7.544 0 00-.172-.109l-.123-.074-.13-.075-.137-.077-.144-.079-.152-.081-.16-.084-.168-.086-.333-.168-.19-.097-.269-.141-.168-.091-.16-.089a9.516 9.516 0 01-.368-.216l-.135-.084c-.572-.366-.967-.723-1.336-1.209-.818-1.077-1.072-2.475-.729-4.306a.834.834 0 01.782-.678z" fill="url(#paint57_linear_90_215)"/><path fill-rule="evenodd" clip-rule="evenodd" d="M343.662 264.01c-7.315 6.389 5.528 6.589 5.528 6.589 1.259-4.621-1.867-3.034-4.765-4.15-.645-.539-.202-2.927-.763-2.439z" fill="#fff"/><path d="M343.117 263.382l-.157.138-.15.137-.145.135-.14.135c-.345.336-.645.665-.899.987l-.099.129c-1.033 1.367-1.236 2.605-.578 3.691.616 1.016 1.882 1.674 3.637 2.11l.213.052c.107.025.216.049.327.073.89.189 1.836.315 2.78.392.283.023.549.04.793.052l.258.011.22.007a.834.834 0 00.815-.613c.035-.129.067-.255.096-.377l.042-.182.038-.177.033-.172c.232-1.277.092-2.177-.478-2.812-.349-.389-.72-.601-1.305-.746l-.12-.028-.062-.013-.13-.026-.067-.012-.139-.024-.072-.011-.15-.023-.078-.011-.162-.021-.169-.021-.602-.07-.219-.027-.196-.026-.177-.025-.161-.025-.149-.026-.047-.009-.092-.019-.09-.019-.087-.021-.044-.01-.131-.034-.088-.025-.091-.027-.131-.041-.004-.015a3.025 3.025 0 01-.087-.534l-.008-.095-.037-.523-.013-.165-.009-.095-.009-.087-.01-.079-.006-.037-.012-.069-.013-.066-.016-.064-.008-.031-.019-.062c-.223-.692-.985-.985-1.596-.454zm.122 2.187l.003.024c.086.699.246 1.157.651 1.494.07.059.149.105.233.138.161.061.324.117.492.167l.113.033.108.031.106.028.105.027.105.025.106.023.108.022.168.031.118.02.123.02.199.028.219.029.328.041.528.061.207.026.186.026.114.017.106.018.098.018.091.018.083.019.077.019.071.02.064.02.059.022.053.022a.628.628 0 01.224.153l.014.016c.152.188.205.583.088 1.272l-.025.142-.02.1-.117-.007c-.124-.008-.252-.018-.384-.028a20.558 20.558 0 01-2.569-.362l-.191-.042-.187-.044-.091-.022-.179-.047a2.26 2.26 0 01-.088-.023l-.172-.049c-1.125-.329-1.9-.76-2.193-1.243-.294-.487-.116-1.201.783-2.209l.085-.094z" fill="url(#paint58_linear_90_215)"/><path fill-rule="evenodd" clip-rule="evenodd" d="M344.9 259.446c-9.547 8.34 7.214 8.59 7.214 8.59 1.578-6.224-2.403-3.85-6.218-5.414-.844-.7-.264-3.826-.996-3.176z" fill="#fff"/><path d="M344.348 258.824l-.17.151-.171.154-.165.153-.161.152-.155.151-.151.151c-.396.4-.739.791-1.031 1.173l-.107.143c-1.218 1.66-1.44 3.141-.66 4.426.704 1.161 2.131 1.958 4.11 2.509l.226.062c.153.04.308.079.467.116l.24.056.245.053c1.149.243 2.373.406 3.596.505.374.03.724.052 1.045.067l.28.012.191.007.125.003a.832.832 0 00.818-.628c.028-.109.054-.217.079-.323l.048-.209.022-.103.042-.202c.356-1.793.218-2.987-.476-3.787-.408-.471-.85-.724-1.563-.891l-.125-.027-.13-.027-.137-.024-.07-.012-.146-.023-.152-.022-.159-.021-.252-.03-.269-.029-.587-.059-.27-.028-.249-.028-.231-.028-.143-.019-.138-.02-.194-.029-.122-.021-.119-.022-.114-.022-.111-.024-.108-.025-.054-.013-.105-.027-.053-.014-.104-.029-.105-.031-.105-.034-.107-.035-.108-.037-.103-.038-.003-.008a1.397 1.397 0 01-.052-.156 3.012 3.012 0 01-.079-.393l-.018-.138-.009-.073-.015-.157-.013-.149-.014-.189-.033-.49-.014-.176-.015-.153-.01-.091-.011-.083-.013-.078-.006-.037-.014-.07-.016-.067-.018-.066-.02-.065c-.241-.745-1.038-1.035-1.681-.464zm.201 2.084l.011.133.009.11.009.088.018.17c.102.887.293 1.458.768 1.853a.823.823 0 00.217.13c.122.05.246.097.371.141l.129.045.125.041.124.04.121.037.122.034.121.033.121.031.123.029.125.027.127.026.065.013.132.024.137.023.142.023.148.021.154.022.161.02.256.031.276.03.403.042.301.03.236.024.147.017.139.017.194.025.12.018.112.018.106.019.099.019.093.02.087.021.081.021.075.023.036.011.067.024c.141.053.248.114.333.186l.038.033.035.036.016.018.018.021c.235.294.317.869.175 1.83l-.024.155-.028.162-.032.168-.028.138-.28-.016a40.41 40.41 0 01-.586-.042 26.931 26.931 0 01-3.384-.474l-.112-.024-.22-.05a19.089 19.089 0 01-.426-.103l-.205-.055a13.663 13.663 0 01-.77-.234l-.179-.062c-1.147-.412-1.946-.921-2.299-1.503-.493-.813-.139-1.979 1.438-3.594l.112-.114z" fill="url(#paint59_linear_90_215)"/><path fill-rule="evenodd" clip-rule="evenodd" d="M344.456 255.132c-9.547 8.34 7.214 8.603 7.214 8.603 1.58-6.219-2.404-3.865-6.217-5.426-.845-.701-.263-3.814-.997-3.177z" fill="#fff"/><path d="M343.911 254.505l-.002.001-.175.155-.171.154-.083.077-.163.152-.158.152a2.76 2.76 0 00-.077.076l-.151.15-.146.15a10.74 10.74 0 00-.277.297l-.131.147c-.366.415-.672.82-.919 1.215l-.085.139c-.839 1.407-.92 2.676-.24 3.797.837 1.381 2.695 2.25 5.287 2.801 1.15.245 2.374.409 3.596.508.321.026.624.046.907.062l.275.013.211.008.248.007a.83.83 0 00.819-.626c.065-.256.122-.502.171-.737l.039-.199c.332-1.739.187-2.905-.495-3.692a3.016 3.016 0 00-.106-.117l-.072-.072c-.326-.319-.693-.518-1.209-.66l-.117-.03a4.95 4.95 0 00-.251-.056l-.133-.026-.14-.024-.072-.012-.149-.023-.156-.022-.163-.021-.257-.03-.181-.019-.491-.05-.365-.039-.168-.019-.235-.028-.147-.019-.14-.02-.133-.019-.189-.03-.12-.022-.058-.01-.114-.023-.111-.023-.107-.025-.106-.026-.105-.028-.104-.029-.052-.015-.104-.032-.105-.034-.107-.036-.054-.019-.109-.04-.008-.019a1.101 1.101 0 01-.051-.151 4.181 4.181 0 01-.114-.691l-.014-.155-.017-.23-.03-.438-.019-.24-.009-.104-.01-.095-.005-.045-.012-.083-.012-.078-.006-.036-.015-.071-.015-.067-.018-.066a1.57 1.57 0 00-.02-.064c-.239-.741-1.027-1.04-1.675-.476zm.082 2.203l.112-.114.015.182.004.045.017.176.019.168c.104.848.298 1.399.762 1.784a.804.804 0 00.216.129c.126.052.253.1.381.145l.128.044.125.041.122.039.121.037.12.034.121.033.06.015.121.03.123.028.125.027.128.025.132.024.068.012.138.023.144.022.15.021.157.021.164.021.172.02.275.031.297.032.486.049.23.025.143.017.135.018.189.026.116.018.11.019.102.019.096.02.09.021.043.01.081.022.039.011.073.023.068.025.063.025c.161.069.274.15.36.25l.018.021c.224.28.31.811.197 1.684l-.02.149a9.424 9.424 0 01-.038.235l-.03.164a2.554 2.554 0 01-.017.085l-.028.138h-.006l-.273-.016-.287-.019-.299-.023a26.969 26.969 0 01-3.385-.477 23.679 23.679 0 01-.332-.074l-.215-.051-.21-.053c-1.767-.458-2.992-1.096-3.454-1.859-.435-.718-.211-1.711.932-3.045l.117-.135.061-.068.127-.138c.064-.069.132-.14.201-.211z" fill="url(#paint60_linear_90_215)"/><path fill-rule="evenodd" clip-rule="evenodd" d="M345.007 250.544c-9.546 8.34 7.213 8.602 7.213 8.602 1.662-4.347-2.438-5.589-5.035-6.302 0 0-1.445-2.938-2.178-2.3z" fill="#fff"/><path d="M344.461 249.916l-.176.156-.17.154-.166.153-.16.152-.156.152-.076.075-.148.15c-.146.15-.285.298-.416.445l-.129.147c-1.664 1.925-2.06 3.627-1.18 5.078.837 1.381 2.694 2.25 5.287 2.801 1.149.245 2.373.409 3.596.508.373.031.724.053 1.045.069l.28.012.315.01a.833.833 0 00.79-.535c.884-2.312.408-4.15-1.167-5.452l-.065-.052c-.606-.489-1.269-.854-2.121-1.185l-.192-.073a17 17 0 00-.405-.144l-.213-.071a4.589 4.589 0 00-.109-.035l-.225-.071-.232-.071-.24-.071-.272-.078-.036-.068a13.715 13.715 0 00-.522-.878 6.458 6.458 0 00-.708-.921c-.244-.256-.489-.444-.761-.553-.432-.174-.901-.123-1.268.196zm.819 1.498l.007.008c.154.161.331.395.518.681.157.241.312.503.455.766l.036.068.068.126.075.148a.831.831 0 00.526.435l.234.065.225.064.217.063.209.063.202.062.194.062.187.062.181.062.173.062.085.031.164.063.159.063c.648.266 1.146.551 1.576.906l.05.042c.849.725 1.158 1.626.827 2.903l-.02.072-.067-.003a29.388 29.388 0 01-.86-.058 26.98 26.98 0 01-3.384-.477c-.15-.032-.297-.065-.44-.099l-.213-.052c-1.822-.46-3.087-1.108-3.558-1.886-.408-.673-.236-1.587.727-2.796l.095-.118.101-.12.106-.122.054-.061.114-.125.118-.126.124-.129.128-.13.134-.132.14-.134.145-.136.074-.069.114-.104z" fill="url(#paint61_linear_90_215)"/><path d="M263.853 178.782c.445 0 .808.35.83.79l.001.041v2.223a.832.832 0 01-1.662.042l-.001-.042v-2.223c0-.459.372-.831.832-.831z" fill="url(#paint62_linear_90_215)"/><path d="M404.558 99.963a.831.831 0 011.011.541l.012.039 2.436 8.833a.83.83 0 01-1.591.482l-.012-.04-2.436-8.833a.832.832 0 01.58-1.022z" fill="url(#paint63_linear_90_215)"/><path d="M228.843 103.206c.446 0 .809.35.831.79l.001.041v5.557a.833.833 0 01-1.662.042l-.001-.042v-5.557a.83.83 0 01.831-.831z" fill="url(#paint64_linear_90_215)"/><path d="M441.679 196.564c.445 0 .809.35.831.79l.001.042v5.557a.832.832 0 01-1.662.041l-.001-.041v-5.557c0-.46.372-.832.831-.832z" fill="url(#paint65_linear_90_215)"/><path d="M66.7 302.339a.83.83 0 01.506 1.061l-3.868 10.925a.832.832 0 01-1.568-.555l3.869-10.925a.83.83 0 011.06-.506z" fill="url(#paint66_linear_90_215)"/><path d="M155.433 350.106a.831.831 0 01.167 1.164l-6.669 8.891a.832.832 0 01-1.331-.997l6.669-8.892a.831.831 0 011.164-.166z" fill="url(#paint67_linear_90_215)"/><path d="M473.217 367.998a.832.832 0 011.139.292l4.56 7.713a.831.831 0 11-1.432.846l-4.56-7.712a.832.832 0 01.293-1.139z" fill="url(#paint68_linear_90_215)"/><path d="M583.35 343.444a.83.83 0 01.304 1.136l-3.242 5.61a.832.832 0 01-1.44-.832l3.242-5.611a.832.832 0 011.136-.303z" fill="url(#paint69_linear_90_215)"/><path d="M612.837 266.583a.83.83 0 01.83.79l.001.042v5.557a.83.83 0 01-1.662.041l-.001-.041v-5.557c0-.459.373-.832.832-.832z" fill="url(#paint70_linear_90_215)"/><path d="M653.959 140.994a.83.83 0 01.83.79l.001.041v1.111a.831.831 0 01-1.662.042l-.001-.042v-1.111c0-.459.373-.831.832-.831z" fill="url(#paint71_linear_90_215)"/><path d="M152.567 192.06a.832.832 0 01.266 1.642c-3.334.539-6.423 2.49-8.343 5.268a.83.83 0 11-1.368-.945c2.177-3.151 5.665-5.353 9.445-5.965z" fill="url(#paint72_linear_90_215)"/><path fill-rule="evenodd" clip-rule="evenodd" d="M316.032 167.871c.609-35.599 53.568-35.593 54.172.001-.154 35.42-54.022 35.417-54.172-.001z" fill="#fff"/><path d="M315.2 167.857c.155 36.54 55.676 36.542 55.835.019v-.018c-.622-36.686-55.206-36.689-55.835-.001zm54.14-.995l.032 1.017v-.01c-.149 34.315-52.363 34.313-52.509-.001.585-34.146 50.903-34.484 52.477-1.006z" fill="url(#paint73_linear_90_215)"/><path fill-rule="evenodd" clip-rule="evenodd" d="M153.576 251.467c6.973-12.278 18.426-15.46 38.154-8.721-3.976-8.998 7.934-26.722 26.996-7.952-5.72-30.134 39.482-33.622 37.249-4.464 11.301-14.091 41.157-6.081 29.544 10.742 17.439-4.325 24.498-.28 35.957 10.395h-167.9z" fill="#fff"/><path d="M235.963 209.5c-5.574.538-10.732 3.112-14.157 7.254l-.114.139c-3.286 4.051-4.781 9.327-4.161 15.467l.02.193-.145-.128c-3.931-3.472-7.732-5.58-11.317-6.383-3.743-.84-7.159-.226-9.958 1.621l-.151.102c-4.418 3.012-6.669 8.86-5.578 13.6l.017.07-.172-.055c-18.669-5.967-30.275-2.857-37.394 9.676a.832.832 0 00.723 1.243h167.9c.756 0 1.12-.926.567-1.44l-.2-.186-.395-.366-.39-.359-.385-.351-.38-.344-.374-.337-.37-.33-.183-.163-.363-.319-.359-.313-.178-.154-.352-.302-.174-.149-.346-.293a73.474 73.474 0 00-1.511-1.237l-.327-.257-.323-.252c-3.38-2.611-6.273-4.231-9.428-5.291l-.169-.056c-4.914-1.61-10.378-1.691-17.555-.21l-.45.095-.456.098-.094.021.007-.013c1.947-3.56 2.205-6.918.857-9.826-1.407-3.035-4.494-5.368-8.555-6.65-3.932-1.241-8.515-1.409-12.784-.427l-.16.037c-3.728.884-7.049 2.599-9.651 5.072l-.109.104v-.004c-.042-6.049-2.193-10.916-6.051-14.238-3.9-3.359-9.328-4.894-14.872-4.359zm13.787 5.619c3.922 3.377 5.902 8.542 5.397 15.148-.063.815.966 1.221 1.477.583 5.004-6.239 14.573-8.44 22.465-5.949 3.649 1.152 6.359 3.199 7.548 5.764 1.3 2.805.788 6.181-1.803 9.935-.435.63.142 1.464.885 1.279 8.479-2.102 14.484-2.216 19.756-.446l.142.048c.17.058.339.118.508.18l.252.094c.168.064.336.13.503.198l.251.103c.292.122.584.25.875.386l.25.117c.416.199.833.412 1.252.64l.251.139.253.142c.463.264.93.548 1.404.852l.259.168.391.26.263.179.264.183.266.187.268.192.271.196.272.201.274.206c.184.138.369.28.556.424l.281.22.284.225.287.229.289.234.146.12.294.241.297.248.3.252.303.257.153.131.309.266.311.271.316.276.319.282.161.143.488.437.305.276H155.041l.106-.17c6.959-10.928 18.064-13.168 36.315-6.933.685.235 1.322-.46 1.029-1.123-1.874-4.239.142-10.446 4.556-13.359 2.42-1.597 5.374-2.128 8.678-1.387 3.829.859 8.015 3.387 12.418 7.723.58.572 1.552.053 1.4-.748-1.3-6.85.044-12.593 3.545-16.825 3.134-3.791 7.885-6.162 13.035-6.659 5.11-.493 10.086.914 13.627 3.964z" fill="url(#paint74_linear_90_215)"/><path fill-rule="evenodd" clip-rule="evenodd" d="M699.001 258.989h-58.279c-2.182-7.522-.857-16.026 22.947-9.179 7.449-13.848 21.982-.026 35.332 9.179z" fill="#fff"/><path d="M663.323 248.731l-.059.099-.033-.009c-10.825-3.038-17.703-3.081-21.27-.482-3.041 2.215-3.451 6.009-2.037 10.882a.83.83 0 00.798.599h58.279c.816 0 1.144-1.052.472-1.516l-.317-.219-.748-.522-.663-.468-.71-.507-1.048-.755-4.128-3.004-1.276-.922-.58-.416-.98-.697-.735-.515-.465-.322-.375-.258-.512-.346-.358-.24-.427-.282-.431-.282-.145-.094-.512-.329a79.532 79.532 0 00-.551-.348l-.362-.225-.18-.11-.356-.217a63.644 63.644 0 00-1.046-.615l-.342-.194c-1.98-1.115-3.78-1.943-5.471-2.498-5.784-1.897-10.283-.506-13.432 4.812zm12.914-3.231c1.54.505 3.2 1.264 5.036 2.29l.326.183c.547.311 1.109.645 1.688 1.002l.35.217.176.111.356.225.503.324.214.138.248.162.389.257.285.19.37.249.54.367.643.445.509.356.721.51.781.558.741.533 1.291.936 3.355 2.443 1.238.894.373.267h-55.015l-.039-.151-.058-.234a17.519 17.519 0 01-.309-1.568l-.03-.214c-.378-2.865.233-5.004 2.021-6.307 3.104-2.261 9.74-2.169 20.499.926a.833.833 0 00.962-.405c2.764-5.139 6.546-6.439 11.836-4.704z" fill="url(#paint75_linear_90_215)"/><path fill-rule="evenodd" clip-rule="evenodd" d="M678.052 213.742H550.6c3.917-11.775 26.987-21.448 55.687-13.343 8.38-15.577 21.922-12.773 34.614 4.642 16.779-10.483 34.887 4.839 37.151 8.701z" fill="#fff"/><path d="M605.877 199.422l-.179-.049c-13.31-3.617-26.178-3.654-36.781-.555-9.911 2.896-17.012 8.366-19.106 14.662a.831.831 0 00.789 1.094h127.452a.832.832 0 00.717-1.252 8.132 8.132 0 00-.775-1.072l-.126-.15a4.345 4.345 0 00-.065-.075l-.134-.154a4.878 4.878 0 00-.07-.077l-.143-.158a5.352 5.352 0 00-.074-.079l-.151-.161-.078-.082-.16-.164-.081-.082-.168-.167-.172-.169-.088-.085-.179-.171-.091-.086-.187-.173-.19-.174-.097-.087-.197-.176-.201-.176-.205-.177-.104-.088-.21-.178-.215-.177-.217-.178-.221-.177a40.269 40.269 0 00-8.919-5.379l-.254-.11c-8.155-3.474-16.376-3.578-23.839.775l-.038.022-.346-.461c-12.797-16.899-26.279-18.965-34.699-4.402l-.198.348zm15.973-8.252c5.783.894 12.174 5.847 18.379 14.361a.83.83 0 001.113.215c7.212-4.505 15.218-4.461 23.246-.971a38.595 38.595 0 018.545 5.154l.102.082c.357.287.7.574 1.026.857l.241.212c.317.282.616.559.893.827l.204.2c.266.263.511.518.729.759l.041.044H551.814l.042-.094c2.376-5.219 8.753-9.838 17.527-12.402 10.513-3.072 23.373-2.972 36.678.786a.832.832 0 00.959-.407c3.94-7.325 9.044-10.518 14.83-9.623z" fill="url(#paint76_linear_90_215)"/></g><defs><linearGradient id="paint0_linear_90_215" x1="514.048" y1="109.305" x2="514.048" y2="424.504" gradientUnits="userSpaceOnUse"><stop stop-color="#287F71"/><stop offset="1" stop-color="#06162E"/></linearGradient><linearGradient id="paint1_linear_90_215" x1="517.855" y1="188.621" x2="517.855" y2="227.537" gradientUnits="userSpaceOnUse"><stop stop-color="#287F71"/><stop offset="1" stop-color="#06162E"/></linearGradient><linearGradient id="paint2_linear_90_215" x1="518.263" y1="283.828" x2="518.263" y2="328.652" gradientUnits="userSpaceOnUse"><stop stop-color="#287F71"/><stop offset="1" stop-color="#06162E"/></linearGradient><linearGradient id="paint3_linear_90_215" x1="539.439" y1="0" x2="539.439" y2="106.852" gradientUnits="userSpaceOnUse"><stop stop-color="#287F71"/><stop offset="1" stop-color="#06162E"/></linearGradient><linearGradient id="paint4_linear_90_215" x1="487.09" y1="28.44" x2="487.09" y2="106.292" gradientUnits="userSpaceOnUse"><stop stop-color="#287F71"/><stop offset="1" stop-color="#06162E"/></linearGradient><linearGradient id="paint5_linear_90_215" x1="473.47" y1="91.008" x2="473.47" y2="152.554" gradientUnits="userSpaceOnUse"><stop stop-color="#287F71"/><stop offset="1" stop-color="#06162E"/></linearGradient><linearGradient id="paint6_linear_90_215" x1="548.082" y1="101.578" x2="548.082" y2="187.418" gradientUnits="userSpaceOnUse"><stop stop-color="#287F71"/><stop offset="1" stop-color="#06162E"/></linearGradient><linearGradient id="paint7_linear_90_215" x1="511.804" y1="103.766" x2="511.804" y2="211.796" gradientUnits="userSpaceOnUse"><stop stop-color="#287F71"/><stop offset="1" stop-color="#06162E"/></linearGradient><linearGradient id="paint8_linear_90_215" x1="574.853" y1="84.848" x2="574.853" y2="127.938" gradientUnits="userSpaceOnUse"><stop stop-color="#287F71"/><stop offset="1" stop-color="#06162E"/></linearGradient><linearGradient id="paint9_linear_90_215" x1="114.015" y1="123.096" x2="114.015" y2="438.295" gradientUnits="userSpaceOnUse"><stop stop-color="#287F71"/><stop offset="1" stop-color="#06162E"/></linearGradient><linearGradient id="paint10_linear_90_215" x1="110.208" y1="202.425" x2="110.208" y2="241.341" gradientUnits="userSpaceOnUse"><stop stop-color="#287F71"/><stop offset="1" stop-color="#06162E"/></linearGradient><linearGradient id="paint11_linear_90_215" x1="109.801" y1="297.619" x2="109.801" y2="342.444" gradientUnits="userSpaceOnUse"><stop stop-color="#287F71"/><stop offset="1" stop-color="#06162E"/></linearGradient><linearGradient id="paint12_linear_90_215" x1="88.625" y1="13.791" x2="88.625" y2="120.644" gradientUnits="userSpaceOnUse"><stop stop-color="#287F71"/><stop offset="1" stop-color="#06162E"/></linearGradient><linearGradient id="paint13_linear_90_215" x1="140.974" y1="42.241" x2="140.974" y2="120.083" gradientUnits="userSpaceOnUse"><stop stop-color="#287F71"/><stop offset="1" stop-color="#06162E"/></linearGradient><linearGradient id="paint14_linear_90_215" x1="154.592" y1="104.8" x2="154.592" y2="166.346" gradientUnits="userSpaceOnUse"><stop stop-color="#287F71"/><stop offset="1" stop-color="#06162E"/></linearGradient><linearGradient id="paint15_linear_90_215" x1="79.981" y1="115.369" x2="79.981" y2="201.212" gradientUnits="userSpaceOnUse"><stop stop-color="#287F71"/><stop offset="1" stop-color="#06162E"/></linearGradient><linearGradient id="paint16_linear_90_215" x1="116.26" y1="117.569" x2="116.26" y2="225.587" gradientUnits="userSpaceOnUse"><stop stop-color="#287F71"/><stop offset="1" stop-color="#06162E"/></linearGradient><linearGradient id="paint17_linear_90_215" x1="53.211" y1="98.64" x2="53.211" y2="141.733" gradientUnits="userSpaceOnUse"><stop stop-color="#287F71"/><stop offset="1" stop-color="#06162E"/></linearGradient><linearGradient id="paint18_linear_90_215" x1="294.529" y1="394.14" x2="294.529" y2="428.511" gradientUnits="userSpaceOnUse"><stop stop-color="#287F71"/><stop offset="1" stop-color="#06162E"/></linearGradient><linearGradient id="paint19_linear_90_215" x1="388.253" y1="465.497" x2="388.253" y2="469.247" gradientUnits="userSpaceOnUse"><stop stop-color="#287F71"/><stop offset="1" stop-color="#06162E"/></linearGradient><linearGradient id="paint20_linear_90_215" x1="331.396" y1="441.806" x2="331.396" y2="445.557" gradientUnits="userSpaceOnUse"><stop stop-color="#287F71"/><stop offset="1" stop-color="#06162E"/></linearGradient><linearGradient id="paint21_linear_90_215" x1="293.49" y1="437.068" x2="293.49" y2="440.819" gradientUnits="userSpaceOnUse"><stop stop-color="#287F71"/><stop offset="1" stop-color="#06162E"/></linearGradient><linearGradient id="paint22_linear_90_215" x1="277.381" y1="446.544" x2="277.381" y2="450.295" gradientUnits="userSpaceOnUse"><stop stop-color="#287F71"/><stop offset="1" stop-color="#06162E"/></linearGradient><linearGradient id="paint23_linear_90_215" x1="230.947" y1="447.492" x2="230.947" y2="451.243" gradientUnits="userSpaceOnUse"><stop stop-color="#287F71"/><stop offset="1" stop-color="#06162E"/></linearGradient><linearGradient id="paint24_linear_90_215" x1="309.6" y1="418.115" x2="309.6" y2="421.866" gradientUnits="userSpaceOnUse"><stop stop-color="#287F71"/><stop offset="1" stop-color="#06162E"/></linearGradient><linearGradient id="paint25_linear_90_215" x1="348.453" y1="427.592" x2="348.453" y2="431.342" gradientUnits="userSpaceOnUse"><stop stop-color="#287F71"/><stop offset="1" stop-color="#06162E"/></linearGradient><linearGradient id="paint26_linear_90_215" x1="124.555" y1="417.135" x2="124.555" y2="452.371" gradientUnits="userSpaceOnUse"><stop stop-color="#287F71"/><stop offset="1" stop-color="#06162E"/></linearGradient><linearGradient id="paint27_linear_90_215" x1="549.487" y1="402.877" x2="549.487" y2="429.402" gradientUnits="userSpaceOnUse"><stop stop-color="#287F71"/><stop offset="1" stop-color="#06162E"/></linearGradient><linearGradient id="paint28_linear_90_215" x1="363.449" y1="256.912" x2="363.449" y2="301.327" gradientUnits="userSpaceOnUse"><stop stop-color="#287F71"/><stop offset="1" stop-color="#06162E"/></linearGradient><linearGradient id="paint29_linear_90_215" x1="350.527" y1="241.272" x2="350.527" y2="271.231" gradientUnits="userSpaceOnUse"><stop stop-color="#287F71"/><stop offset="1" stop-color="#06162E"/></linearGradient><linearGradient id="paint30_linear_90_215" x1="350.704" y1="245.192" x2="350.704" y2="250.981" gradientUnits="userSpaceOnUse"><stop stop-color="#287F71"/><stop offset="1" stop-color="#06162E"/></linearGradient><linearGradient id="paint31_linear_90_215" x1="485.633" y1="240.674" x2="485.633" y2="272.452" gradientUnits="userSpaceOnUse"><stop stop-color="#287F71"/><stop offset="1" stop-color="#06162E"/></linearGradient><linearGradient id="paint32_linear_90_215" x1="457.927" y1="253.401" x2="457.927" y2="292.599" gradientUnits="userSpaceOnUse"><stop stop-color="#287F71"/><stop offset="1" stop-color="#06162E"/></linearGradient><linearGradient id="paint33_linear_90_215" x1="475.724" y1="238.441" x2="475.724" y2="268.959" gradientUnits="userSpaceOnUse"><stop stop-color="#287F71"/><stop offset="1" stop-color="#06162E"/></linearGradient><linearGradient id="paint34_linear_90_215" x1="490.248" y1="231.986" x2="490.248" y2="263.142" gradientUnits="userSpaceOnUse"><stop stop-color="#287F71"/><stop offset="1" stop-color="#06162E"/></linearGradient><linearGradient id="paint35_linear_90_215" x1="479.827" y1="261.716" x2="479.827" y2="269.572" gradientUnits="userSpaceOnUse"><stop stop-color="#287F71"/><stop offset="1" stop-color="#06162E"/></linearGradient><linearGradient id="paint36_linear_90_215" x1="471.81" y1="244.848" x2="471.81" y2="251.475" gradientUnits="userSpaceOnUse"><stop stop-color="#287F71"/><stop offset="1" stop-color="#06162E"/></linearGradient><linearGradient id="paint37_linear_90_215" x1="462.872" y1="243.479" x2="462.872" y2="268.932" gradientUnits="userSpaceOnUse"><stop stop-color="#287F71"/><stop offset="1" stop-color="#06162E"/></linearGradient><linearGradient id="paint38_linear_90_215" x1="338.641" y1="263.74" x2="338.641" y2="336.981" gradientUnits="userSpaceOnUse"><stop stop-color="#287F71"/><stop offset="1" stop-color="#06162E"/></linearGradient><linearGradient id="paint39_linear_90_215" x1="503.109" y1="245.914" x2="503.109" y2="286.385" gradientUnits="userSpaceOnUse"><stop stop-color="#287F71"/><stop offset="1" stop-color="#06162E"/></linearGradient><linearGradient id="paint40_linear_90_215" x1="303.149" y1="259.89" x2="303.149" y2="381.957" gradientUnits="userSpaceOnUse"><stop stop-color="#287F71"/><stop offset="1" stop-color="#06162E"/></linearGradient><linearGradient id="paint41_linear_90_215" x1="486.901" y1="268.633" x2="486.901" y2="292.394" gradientUnits="userSpaceOnUse"><stop stop-color="#287F71"/><stop offset="1" stop-color="#06162E"/></linearGradient><linearGradient id="paint42_linear_90_215" x1="133.25" y1="261.678" x2="133.25" y2="292.981" gradientUnits="userSpaceOnUse"><stop stop-color="#287F71"/><stop offset="1" stop-color="#06162E"/></linearGradient><linearGradient id="paint43_linear_90_215" x1="259.395" y1="319.831" x2="259.395" y2="354.084" gradientUnits="userSpaceOnUse"><stop stop-color="#287F71"/><stop offset="1" stop-color="#06162E"/></linearGradient><linearGradient id="paint44_linear_90_215" x1="341.991" y1="341.037" x2="341.991" y2="368.941" gradientUnits="userSpaceOnUse"><stop stop-color="#287F71"/><stop offset="1" stop-color="#06162E"/></linearGradient><linearGradient id="paint45_linear_90_215" x1="425.76" y1="289.91" x2="425.76" y2="335.361" gradientUnits="userSpaceOnUse"><stop stop-color="#287F71"/><stop offset="1" stop-color="#06162E"/></linearGradient><linearGradient id="paint46_linear_90_215" x1="242.203" y1="299.225" x2="242.203" y2="425.261" gradientUnits="userSpaceOnUse"><stop stop-color="#287F71"/><stop offset="1" stop-color="#06162E"/></linearGradient><linearGradient id="paint47_linear_90_215" x1="319.888" y1="299.395" x2="319.888" y2="299.595" gradientUnits="userSpaceOnUse"><stop stop-color="#287F71"/><stop offset="1" stop-color="#06162E"/></linearGradient><linearGradient id="paint48_linear_90_215" x1="336.258" y1="292.776" x2="336.258" y2="293.193" gradientUnits="userSpaceOnUse"><stop stop-color="#287F71"/><stop offset="1" stop-color="#06162E"/></linearGradient><linearGradient id="paint49_linear_90_215" x1="341.652" y1="283.415" x2="341.652" y2="337.314" gradientUnits="userSpaceOnUse"><stop stop-color="#287F71"/><stop offset="1" stop-color="#06162E"/></linearGradient><linearGradient id="paint50_linear_90_215" x1="480.988" y1="191.808" x2="480.988" y2="303.002" gradientUnits="userSpaceOnUse"><stop stop-color="#287F71"/><stop offset="1" stop-color="#06162E"/></linearGradient><linearGradient id="paint51_linear_90_215" x1="233.792" y1="304.171" x2="233.792" y2="314.911" gradientUnits="userSpaceOnUse"><stop stop-color="#287F71"/><stop offset="1" stop-color="#06162E"/></linearGradient><linearGradient id="paint52_linear_90_215" x1="183.615" y1="409.568" x2="183.615" y2="416.983" gradientUnits="userSpaceOnUse"><stop stop-color="#287F71"/><stop offset="1" stop-color="#06162E"/></linearGradient><linearGradient id="paint53_linear_90_215" x1="361.356" y1="347.676" x2="361.356" y2="359.518" gradientUnits="userSpaceOnUse"><stop stop-color="#287F71"/><stop offset="1" stop-color="#06162E"/></linearGradient><linearGradient id="paint54_linear_90_215" x1="429.266" y1="318.944" x2="429.266" y2="334.71" gradientUnits="userSpaceOnUse"><stop stop-color="#287F71"/><stop offset="1" stop-color="#06162E"/></linearGradient><linearGradient id="paint55_linear_90_215" x1="430.049" y1="310.579" x2="430.049" y2="312.767" gradientUnits="userSpaceOnUse"><stop stop-color="#287F71"/><stop offset="1" stop-color="#06162E"/></linearGradient><linearGradient id="paint56_linear_90_215" x1="269.228" y1="353.645" x2="269.228" y2="365.307" gradientUnits="userSpaceOnUse"><stop stop-color="#287F71"/><stop offset="1" stop-color="#06162E"/></linearGradient><linearGradient id="paint57_linear_90_215" x1="361.044" y1="251.159" x2="361.044" y2="276.295" gradientUnits="userSpaceOnUse"><stop stop-color="#287F71"/><stop offset="1" stop-color="#06162E"/></linearGradient><linearGradient id="paint58_linear_90_215" x1="345.439" y1="263.109" x2="345.439" y2="271.431" gradientUnits="userSpaceOnUse"><stop stop-color="#287F71"/><stop offset="1" stop-color="#06162E"/></linearGradient><linearGradient id="paint59_linear_90_215" x1="347.211" y1="258.523" x2="347.211" y2="268.868" gradientUnits="userSpaceOnUse"><stop stop-color="#287F71"/><stop offset="1" stop-color="#06162E"/></linearGradient><linearGradient id="paint60_linear_90_215" x1="346.767" y1="254.212" x2="346.767" y2="264.566" gradientUnits="userSpaceOnUse"><stop stop-color="#287F71"/><stop offset="1" stop-color="#06162E"/></linearGradient><linearGradient id="paint61_linear_90_215" x1="347.333" y1="249.621" x2="347.333" y2="259.978" gradientUnits="userSpaceOnUse"><stop stop-color="#287F71"/><stop offset="1" stop-color="#06162E"/></linearGradient><linearGradient id="paint62_linear_90_215" x1="263.853" y1="178.782" x2="263.853" y2="182.668" gradientUnits="userSpaceOnUse"><stop stop-color="#287F71"/><stop offset="1" stop-color="#06162E"/></linearGradient><linearGradient id="paint63_linear_90_215" x1="405.998" y1="99.933" x2="405.998" y2="110.428" gradientUnits="userSpaceOnUse"><stop stop-color="#287F71"/><stop offset="1" stop-color="#06162E"/></linearGradient><linearGradient id="paint64_linear_90_215" x1="228.843" y1="103.206" x2="228.843" y2="110.426" gradientUnits="userSpaceOnUse"><stop stop-color="#287F71"/><stop offset="1" stop-color="#06162E"/></linearGradient><linearGradient id="paint65_linear_90_215" x1="441.679" y1="196.564" x2="441.679" y2="203.784" gradientUnits="userSpaceOnUse"><stop stop-color="#287F71"/><stop offset="1" stop-color="#06162E"/></linearGradient><linearGradient id="paint66_linear_90_215" x1="64.488" y1="302.291" x2="64.488" y2="314.879" gradientUnits="userSpaceOnUse"><stop stop-color="#287F71"/><stop offset="1" stop-color="#06162E"/></linearGradient><linearGradient id="paint67_linear_90_215" x1="151.6" y1="349.939" x2="151.6" y2="360.494" gradientUnits="userSpaceOnUse"><stop stop-color="#287F71"/><stop offset="1" stop-color="#06162E"/></linearGradient><linearGradient id="paint68_linear_90_215" x1="475.92" y1="367.882" x2="475.92" y2="377.258" gradientUnits="userSpaceOnUse"><stop stop-color="#287F71"/><stop offset="1" stop-color="#06162E"/></linearGradient><linearGradient id="paint69_linear_90_215" x1="581.313" y1="343.332" x2="581.313" y2="350.605" gradientUnits="userSpaceOnUse"><stop stop-color="#287F71"/><stop offset="1" stop-color="#06162E"/></linearGradient><linearGradient id="paint70_linear_90_215" x1="612.837" y1="266.583" x2="612.837" y2="273.803" gradientUnits="userSpaceOnUse"><stop stop-color="#287F71"/><stop offset="1" stop-color="#06162E"/></linearGradient><linearGradient id="paint71_linear_90_215" x1="653.959" y1="140.994" x2="653.959" y2="143.768" gradientUnits="userSpaceOnUse"><stop stop-color="#287F71"/><stop offset="1" stop-color="#06162E"/></linearGradient><linearGradient id="paint72_linear_90_215" x1="148.253" y1="192.05" x2="148.253" y2="199.329" gradientUnits="userSpaceOnUse"><stop stop-color="#287F71"/><stop offset="1" stop-color="#06162E"/></linearGradient><linearGradient id="paint73_linear_90_215" x1="343.118" y1="140.343" x2="343.118" y2="195.265" gradientUnits="userSpaceOnUse"><stop stop-color="#287F71"/><stop offset="1" stop-color="#06162E"/></linearGradient><linearGradient id="paint74_linear_90_215" x1="237.526" y1="209.396" x2="237.526" y2="252.299" gradientUnits="userSpaceOnUse"><stop stop-color="#287F71"/><stop offset="1" stop-color="#06162E"/></linearGradient><linearGradient id="paint75_linear_90_215" x1="669.489" y1="243.113" x2="669.489" y2="259.82" gradientUnits="userSpaceOnUse"><stop stop-color="#287F71"/><stop offset="1" stop-color="#06162E"/></linearGradient><linearGradient id="paint76_linear_90_215" x1="614.326" y1="189.352" x2="614.326" y2="214.574" gradientUnits="userSpaceOnUse"><stop stop-color="#287F71"/><stop offset="1" stop-color="#06162E"/></linearGradient><clipPath id="clip0_90_215"><path fill="#fff" d="M0 0h700v469.33H0z"/></clipPath></defs></svg>